0
SECTION
2
HEADER
9
$INSUNITS
70
4
9
$ACADVER
1
AC1014
9
$HANDSEED
5
FFFF
0
ENDSEC
0
SECTION
2
TABLES
0
TABLE
2
VPORT
5
8
100
AcDbSymbolTable
0
ENDTAB
0
TABLE
2
LTYPE
5
5
100
AcDbSymbolTable
0
LTYPE
5
14
100
AcDbSymbolTableRecord
100
AcDbLinetypeTableRecord
2
BYBLOCK
70
0
0
LTYPE
5
15
100
AcDbSymbolTableRecord
100
AcDbLinetypeTableRecord
2
BYLAYER
70
0
0
ENDTAB
0
TABLE
2
LAYER
5
2
100
AcDbSymbolTable
70
2
0
LAYER
5
50
100
AcDbSymbolTableRecord
100
AcDbLayerTableRecord
2
0
70
0
6
CONTINUOUS
0
ENDTAB
0
TABLE
2
STYLE
5
3
100
AcDbSymbolTable
70
1
0
STYLE
5
11
100
AcDbSymbolTableRecord
100
AcDbTextStyleTableRecord
2
STANDARD
70
0
0
ENDTAB
0
TABLE
2
VIEW
5
6
100
AcDbSymbolTable
70
0
0
ENDTAB
0
TABLE
2
UCS
5
7
100
AcDbSymbolTable
70
0
0
ENDTAB
0
TABLE
2
APPID
5
9
100
AcDbSymbolTable
70
2
0
APPID
5
12
100
AcDbSymbolTableRecord
100
AcDbRegAppTableRecord
2
ACAD
70
0
0
ENDTAB
0
TABLE
2
DIMSTYLE
5
A
100
AcDbSymbolTable
70
1
0
ENDTAB
0
TABLE
2
BLOCK_RECORD
5
1
100
AcDbSymbolTable
70
1
0
BLOCK_RECORD
5
1F
100
AcDbSymbolTableRecord
100
AcDbBlockTableRecord
2
*MODEL_SPACE
0
BLOCK_RECORD
5
1B
100
AcDbSymbolTableRecord
100
AcDbBlockTableRecord
2
*PAPER_SPACE
0
ENDTAB
0
ENDSEC
0
SECTION
2
BLOCKS
0
BLOCK
5
20
100
AcDbEntity
100
AcDbBlockBegin
2
*MODEL_SPACE
0
ENDBLK
5
21
100
AcDbEntity
100
AcDbBlockEnd
0
BLOCK
5
1C
100
AcDbEntity
100
AcDbBlockBegin
2
*PAPER_SPACE
0
ENDBLK
5
1D
100
AcDbEntity
100
AcDbBlockEnd
0
ENDSEC
0
SECTION
2
ENTITIES
0
LWPOLYLINE
5
100
100
AcDbEntity
8
0
100
AcDbPolyline
90
4
70
1
43
0.0
10
132.70141582003629
20
100.25036236276543
10
124.46141582003627
20
100.25036236276543
10
124.46141582003627
20
105.00036236276544
10
132.70141582003629
20
105.00036236276544
0
LWPOLYLINE
5
101
100
AcDbEntity
8
0
100
AcDbPolyline
90
4
70
1
43
0.0
10
119.69141582003633
20
104.0603623627654
10
137.47141582003619
20
104.0603623627654
10
137.47141582003621
20
71.040362362765606
10
119.69141582003635
20
71.040362362765606
0
LWPOLYLINE
5
102
100
AcDbEntity
8
0
100
AcDbPolyline
90
4
70
1
43
0.0
10
16.999999999999993
20
92
10
16.999999999999993
20
98
10
23.000000000000007
20
98
10
23.000000000000007
20
92
0
LWPOLYLINE
5
103
100
AcDbEntity
8
0
100
AcDbPolyline
90
4
70
1
43
0.0
10
25.999999999999996
20
92
10
25.999999999999996
20
98
10
32.000000000000014
20
98
10
32.000000000000014
20
92
0
LWPOLYLINE
5
104
100
AcDbEntity
8
0
100
AcDbPolyline
90
4
70
1
43
0.0
10
38.000000000000028
20
92
10
38.000000000000007
20
98
10
44.000000000000021
20
98
10
44.000000000000043
20
92
0
LWPOLYLINE
5
105
100
AcDbEntity
8
0
100
AcDbPolyline
90
4
70
1
43
0.0
10
46.999999999999993
20
92
10
46.999999999999993
20
98
10
53.000000000000007
20
98
10
53.000000000000007
20
92
0
LWPOLYLINE
5
106
100
AcDbEntity
8
0
100
AcDbPolyline
90
4
70
1
43
0.0
10
58.999999999999986
20
91.999998837709427
10
58.999999999999986
20
98.000001162290573
10
65
20
98.000001162290573
10
65
20
91.999998837709427
0
LWPOLYLINE
5
107
100
AcDbEntity
8
0
100
AcDbPolyline
90
4
70
1
43
0.0
10
67.999999701976776
20
91.999999865889549
10
67.999999701976776
20
98.000000134110451
10
74.00000262260437
20
98.000000134110451
10
74.000001102685928
20
92.00000137090683
0
CIRCLE
5
108
100
AcDbEntity
8
0
100
AcDbCircle
10
17.750000000000004
20
91.75
30
0
40
0.49999999999999756
210
0
220
0
230
1
0
CIRCLE
5
109
100
AcDbEntity
8
0
100
AcDbCircle
10
22.249999999999996
20
91.75
30
0
40
0.50000000000000222
210
0
220
0
230
1
0
CIRCLE
5
110
100
AcDbEntity
8
0
100
AcDbCircle
10
22.249999999999996
20
98.25
30
0
40
0.50000000000000533
210
0
220
0
230
1
0
CIRCLE
5
111
100
AcDbEntity
8
0
100
AcDbCircle
10
17.750000000000004
20
98.25
30
0
40
0.49999999999999795
210
0
220
0
230
1
0
CIRCLE
5
112
100
AcDbEntity
8
0
100
AcDbCircle
10
68.750001162290587
20
98.25
30
0
40
0.500000000000005
210
0
220
0
230
1
0
CIRCLE
5
113
100
AcDbEntity
8
0
100
AcDbCircle
10
73.250001162290573
20
98.25
30
0
40
0.49999999999999456
210
0
220
0
230
1
0
CIRCLE
5
114
100
AcDbEntity
8
0
100
AcDbCircle
10
73.250001162290573
20
91.75
30
0
40
0.49999999999999872
210
0
220
0
230
1
0
CIRCLE
5
115
100
AcDbEntity
8
0
100
AcDbCircle
10
68.750001162290587
20
91.75
30
0
40
0.50000000000000178
210
0
220
0
230
1
0
CIRCLE
5
116
100
AcDbEntity
8
0
100
AcDbCircle
10
59.75
20
98.25
30
0
40
0.49999999999999489
210
0
220
0
230
1
0
CIRCLE
5
117
100
AcDbEntity
8
0
100
AcDbCircle
10
64.249999999999986
20
98.25
30
0
40
0.50000000000000622
210
0
220
0
230
1
0
CIRCLE
5
118
100
AcDbEntity
8
0
100
AcDbCircle
10
59.75
20
91.749999999999986
30
0
40
0.49999999999999911
210
0
220
0
230
1
0
CIRCLE
5
119
100
AcDbEntity
8
0
100
AcDbCircle
10
64.249999999999986
20
91.749999999999986
30
0
40
0.49999999999999489
210
0
220
0
230
1
0
CIRCLE
5
120
100
AcDbEntity
8
0
100
AcDbCircle
10
52.25
20
98.25
30
0
40
0.49999999999999994
210
0
220
0
230
1
0
CIRCLE
5
121
100
AcDbEntity
8
0
100
AcDbCircle
10
47.75
20
98.25
30
0
40
0.49999999999999667
210
0
220
0
230
1
0
CIRCLE
5
122
100
AcDbEntity
8
0
100
AcDbCircle
10
47.75
20
91.75
30
0
40
0.50000000000000722
210
0
220
0
230
1
0
CIRCLE
5
123
100
AcDbEntity
8
0
100
AcDbCircle
10
52.25
20
91.75
30
0
40
0.49999999999999911
210
0
220
0
230
1
0
CIRCLE
5
124
100
AcDbEntity
8
0
100
AcDbCircle
10
43.250000000000014
20
98.25
30
0
40
0.49999999999999967
210
0
220
0
230
1
0
CIRCLE
5
125
100
AcDbEntity
8
0
100
AcDbCircle
10
38.750000000000014
20
98.25
30
0
40
0.50000000000000866
210
0
220
0
230
1
0
CIRCLE
5
126
100
AcDbEntity
8
0
100
AcDbCircle
10
38.750000000000036
20
91.749999999999986
30
0
40
0.50000000000000289
210
0
220
0
230
1
0
CIRCLE
5
127
100
AcDbEntity
8
0
100
AcDbCircle
10
43.250000000000028
20
91.749999999999986
30
0
40
0.50000000000000011
210
0
220
0
230
1
0
CIRCLE
5
128
100
AcDbEntity
8
0
100
AcDbCircle
10
31.25
20
91.75
30
0
40
0.49999999999999489
210
0
220
0
230
1
0
CIRCLE
5
129
100
AcDbEntity
8
0
100
AcDbCircle
10
26.750000000000007
20
91.75
30
0
40
0.499999999999997
210
0
220
0
230
1
0
CIRCLE
5
130
100
AcDbEntity
8
0
100
AcDbCircle
10
31.25
20
98.250000000000014
30
0
40
0.4999999999999965
210
0
220
0
230
1
0
CIRCLE
5
131
100
AcDbEntity
8
0
100
AcDbCircle
10
20
20
95
30
0
40
1.7499999999999962
210
0
220
0
230
1
0
CIRCLE
5
132
100
AcDbEntity
8
0
100
AcDbCircle
10
29.000000000000004
20
95
30
0
40
1.7500000000000036
210
0
220
0
230
1
0
CIRCLE
5
133
100
AcDbEntity
8
0
100
AcDbCircle
10
41.000000000000014
20
95
30
0
40
1.7500000000000067
210
0
220
0
230
1
0
CIRCLE
5
134
100
AcDbEntity
8
0
100
AcDbCircle
10
50
20
95
30
0
40
1.7500000000000027
210
0
220
0
230
1
0
CIRCLE
5
135
100
AcDbEntity
8
0
100
AcDbCircle
10
61.999999999999993
20
95
30
0
40
1.7500000000000053
210
0
220
0
230
1
0
CIRCLE
5
136
100
AcDbEntity
8
0
100
AcDbCircle
10
71.000001162290573
20
95
30
0
40
1.7500000000000004
210
0
220
0
230
1
0
CIRCLE
5
137
100
AcDbEntity
8
0
100
AcDbCircle
10
26.750000000000007
20
98.250000000000014
30
0
40
0.49999999999999833
210
0
220
0
230
1
0
LWPOLYLINE
5
138
100
AcDbEntity
8
0
100
AcDbPolyline
90
8
70
1
43
0.0
10
280
20
105
10
10
20
105
42
0.41421356237309503
10
0
20
95
10
0
20
10
42
0.41421356237309503
10
10
20
-1.1102230246251565e-15
10
280
20
0
42
0.41421356237309387
10
289.99999999999994
20
10
10
290
20
95
42
0.41421356237309503
0
CIRCLE
5
139
100
AcDbEntity
8
0
100
AcDbCircle
10
173.62362546498005
20
61.624200379858237
30
0
40
12.749999999920494
210
0
220
0
230
1
0
CIRCLE
5
140
100
AcDbEntity
8
0
100
AcDbCircle
10
201.52769704448411
20
73.447633586276254
30
0
40
12.749999999920494
210
0
220
0
230
1
0
CIRCLE
5
141
100
AcDbEntity
8
0
100
AcDbCircle
10
195.59286396868359
20
35.932539353540314
30
0
40
12.749999999920503
210
0
220
0
230
1
0
CIRCLE
5
142
100
AcDbEntity
8
0
100
AcDbCircle
10
167.692358180121
20
24.058356268658542
30
0
40
12.749936956980385
210
0
220
0
230
1
0
CIRCLE
5
143
100
AcDbEntity
8
0
100
AcDbCircle
10
254.80293713385367
20
24.058511841826757
30
0
40
12.749999999920497
210
0
220
0
230
1
0
CIRCLE
5
144
100
AcDbEntity
8
0
100
AcDbCircle
10
226.03331133707536
20
35.854408404645795
30
0
40
12.749999999920492
210
0
220
0
230
1
0
CIRCLE
5
145
100
AcDbEntity
8
0
100
AcDbCircle
10
260.28173559532001
20
61.60935166093337
30
0
40
12.749999999920504
210
0
220
0
230
1
0
CIRCLE
5
146
100
AcDbEntity
8
0
100
AcDbCircle
10
231.53127995772076
20
73.381886083224046
30
0
40
12.749999999920494
210
0
220
0
230
1
0
LWPOLYLINE
5
147
100
AcDbEntity
8
0
100
AcDbPolyline
90
8
70
1
43
0.0
10
95.479511420828644
20
60.772027470042332
10
98.844159007161409
20
73.329063211800218
42
-0.41421356237308499
10
99.456531442857198
20
73.682616602393495
10
112.01356718461508
20
70.317969016060729
42
-0.4142135623731078
10
112.36712057520835
20
69.705596580364926
10
109.00247298887561
20
57.148560838607033
42
-0.41421356237309609
10
108.39010055317979
20
56.79500744801377
10
95.833064811421906
20
60.159655034346535
42
-0.41421356237309004
0
LWPOLYLINE
5
148
100
AcDbEntity
8
0
100
AcDbPolyline
90
8
70
1
43
0.0
10
93.612680193808359
20
75.248471825263749
42
-0.41421356237309503
10
93.966233584401635
20
74.636099389567946
10
90.601585998068828
20
62.079063647810074
42
-0.41421356237309775
10
89.989213562373052
20
61.725510257216797
10
77.432177820615181
20
65.090157843549591
42
-0.41421356237310042
10
77.078624430021904
20
65.702530279245352
10
80.443272016354655
20
78.259566021003238
42
-0.41421356237309237
10
81.055644452050458
20
78.613119411596514
0
LWPOLYLINE
5
149
100
AcDbEntity
8
0
100
AcDbPolyline
90
8
70
1
43
0.0
10
58.67773743921515
20
70.633033088448371
10
62.042385025547915
20
83.190068830206229
42
-0.41421356237309875
10
62.654757461243719
20
83.543622220799534
10
75.211793203001591
20
80.178974634466755
42
-0.41421356237310641
10
75.565346593594867
20
79.566602198770966
10
72.200699007262102
20
67.009566457013094
42
-0.41421356237310508
10
71.588326571566313
20
66.656013066419817
10
59.031290829808427
20
70.020660652752568
42
-0.41421356237309875
0
LWPOLYLINE
5
150
100
AcDbEntity
8
0
100
AcDbPolyline
90
8
70
1
43
0.0
10
94.919716371576072
20
80.126397248023522
10
82.3626806298182
20
83.491044834356316
42
-0.41421356237310042
10
82.00912723922491
20
84.103417270052091
10
85.373774825557703
20
96.660453011809992
42
-0.41421356237309775
10
85.986147261253464
20
97.01400640240324
10
98.543183003011379
20
93.649358816070517
42
-0.41421356237310974
10
98.896736393604655
20
93.036986380374685
10
95.532088807271862
20
80.479950638616799
42
-0.41421356237309503
0
CIRCLE
5
151
100
AcDbEntity
8
0
100
AcDbCircle
10
103.9233159980185
20
65.238812025203629
30
0
40
1.9250000000000036
210
0
220
0
230
1
0
CIRCLE
5
152
100
AcDbEntity
8
0
100
AcDbCircle
10
67.121542016405016
20
75.099817643609668
30
0
40
1.9250000000000003
210
0
220
0
230
1
0
CIRCLE
5
153
100
AcDbEntity
8
0
100
AcDbCircle
10
90.452931816414761
20
88.570201825213402
30
0
40
1.9250000000000036
210
0
220
0
230
1
0
CIRCLE
5
154
100
AcDbEntity
8
0
100
AcDbCircle
10
85.522429007211755
20
70.169314834406649
30
0
40
1.924999999999994
210
0
220
0
230
1
0
CIRCLE
5
155
100
AcDbEntity
8
0
100
AcDbCircle
10
173.62362546498005
20
61.624200379858237
30
0
40
1.9249999999999918
210
0
220
0
230
1
0
CIRCLE
5
156
100
AcDbEntity
8
0
100
AcDbCircle
10
201.52769704448411
20
73.447633586276254
30
0
40
1.9249999999999987
210
0
220
0
230
1
0
CIRCLE
5
157
100
AcDbEntity
8
0
100
AcDbCircle
10
231.53127995772076
20
73.381886083224046
30
0
40
1.9250000000000043
210
0
220
0
230
1
0
CIRCLE
5
158
100
AcDbEntity
8
0
100
AcDbCircle
10
260.28173559532001
20
61.60935166093337
30
0
40
1.9249999999999954
210
0
220
0
230
1
0
CIRCLE
5
159
100
AcDbEntity
8
0
100
AcDbCircle
10
254.80293713385367
20
24.058511841826757
30
0
40
1.9249999999999901
210
0
220
0
230
1
0
CIRCLE
5
160
100
AcDbEntity
8
0
100
AcDbCircle
10
226.03331133707536
20
35.854408404645795
30
0
40
1.9250000000000089
210
0
220
0
230
1
0
CIRCLE
5
161
100
AcDbEntity
8
0
100
AcDbCircle
10
195.59286396868359
20
35.932539353540314
30
0
40
1.9250000000000067
210
0
220
0
230
1
0
CIRCLE
5
162
100
AcDbEntity
8
0
100
AcDbCircle
10
167.692358180121
20
24.058356268658542
30
0
40
1.9250000000000098
210
0
220
0
230
1
0
LWPOLYLINE
5
163
100
AcDbEntity
8
0
100
AcDbPolyline
90
4
70
1
43
0.0
10
22.017623000000022
20
38.01744699999999
10
22.017623000000022
20
36.314450999999991
10
23.720619000000021
20
36.314450999999991
10
23.720619000000021
20
38.01744699999999
0
LWPOLYLINE
5
164
100
AcDbEntity
8
0
100
AcDbPolyline
90
4
70
1
43
0.0
10
72.817717000000016
20
7.4943939999999856
10
72.817717000000016
20
9.1973899999999844
10
71.114721000000017
20
9.1973899999999844
10
71.114721000000017
20
7.4943939999999856
0
LWPOLYLINE
5
165
100
AcDbEntity
8
0
100
AcDbPolyline
90
8
70
1
43
0.0
10
112.11529900000002
20
9.9648949999999754
42
-0.41408900000000021
10
106.42528800000002
20
4.2498829999999757
10
21.920119000000025
20
4.2498829999999739
42
-0.41421399999999947
10
16.10310700000003
20
10.066894999999985
10
16.10310700000003
20
44.254962999999996
42
-0.41421399999999942
10
21.107117000000031
20
49.258972999999983
10
107.21328900000003
20
49.258972999999983
42
-0.41421399999999964
10
112.11529900000004
20
44.356963999999984
0
CIRCLE
5
166
100
AcDbEntity
8
0
100
AcDbCircle
10
22.869121000000021
20
35.165944999999979
30
0
40
0.85149799999999942
210
0
220
0
230
1
0
CIRCLE
5
167
100
AcDbEntity
8
0
100
AcDbCircle
10
73.966223000000028
20
8.345891999999985
30
0
40
0.85149799999999942
210
0
220
0
230
1
0
CIRCLE
5
168
100
AcDbEntity
8
0
100
AcDbCircle
10
75.966227000000032
20
8.345891999999985
30
0
40
0.85149799999999942
210
0
220
0
230
1
0
ARC
5
169
100
AcDbEntity
8
0
100
AcDbCircle
10
85.503246000000019
20
11.648957999999984
30
0
40
1.0014980000000402
210
-0
220
0
230
1
100
AcDbArc
50
-5.6765122688669454
51
185.67651226886716
0
ARC
5
170
100
AcDbEntity
8
0
100
AcDbCircle
10
85.503246000000019
20
11.450837999999967
30
0
40
1.0014979999999907
210
0
220
0
230
1
100
AcDbArc
50
-185.67651226885906
51
5.6765122688588612
0
CIRCLE
5
171
100
AcDbEntity
8
0
100
AcDbCircle
10
22.869121000000021
20
29.165932999999988
30
0
40
0.85149799999999942
210
0
220
0
230
1
0
CIRCLE
5
172
100
AcDbEntity
8
0
100
AcDbCircle
10
22.869121000000021
20
33.165940999999975
30
0
40
0.85149799999999942
210
0
220
0
230
1
0
ARC
5
173
100
AcDbEntity
8
0
100
AcDbCircle
10
90.583256000000034
20
11.450837999999967
30
0
40
1.0014980000000082
210
0
220
0
230
1
100
AcDbArc
50
-185.67651226885891
51
5.6765122688589251
0
LWPOLYLINE
5
174
100
AcDbEntity
8
0
100
AcDbPolyline
90
4
70
1
43
0.0
10
58.114695000000026
20
9.1973899999999844
10
58.114695000000026
20
7.4943939999999856
10
59.817691000000025
20
7.4943939999999856
10
59.817691000000025
20
9.1973899999999844
0
ARC
5
175
100
AcDbEntity
8
0
100
AcDbCircle
10
88.043251000000026
20
11.450837999999967
30
0
40
1.0014980000000082
210
0
220
0
230
1
100
AcDbArc
50
-185.67651226885906
51
5.6765122688589251
0
ARC
5
176
100
AcDbEntity
8
0
100
AcDbCircle
10
88.043251000000026
20
11.648957999999984
30
0
40
1.0014980000000224
210
-0
220
0
230
1
100
AcDbArc
50
-5.6765122688670475
51
185.67651226886716
0
CIRCLE
5
177
100
AcDbEntity
8
0
100
AcDbCircle
10
22.869121000000021
20
31.165936999999975
30
0
40
0.85149799999999942
210
0
220
0
230
1
0
ARC
5
178
100
AcDbEntity
8
0
100
AcDbCircle
10
90.583256000000034
20
11.648957999999984
30
0
40
1.0014980000000224
210
-0
220
0
230
1
100
AcDbArc
50
-5.6765122688670475
51
185.67651226886701
0
CIRCLE
5
179
100
AcDbEntity
8
0
100
AcDbCircle
10
108.02629100000004
20
45.372965999999984
30
0
40
1.7009969999999974
210
0
220
0
230
1
0
LWPOLYLINE
5
180
100
AcDbEntity
8
0
100
AcDbPolyline
90
4
70
1
43
0.0
10
92.12176300000003
20
10.448399999999973
10
94.12475900000004
20
10.448399999999973
10
94.12475900000004
20
12.651395999999961
10
92.12176300000003
20
12.651395999999961
0
CIRCLE
5
181
100
AcDbEntity
8
0
100
AcDbCircle
10
20.269116000000018
20
45.321965999999982
30
0
40
1.7009970000000019
210
0
220
0
230
1
0
CIRCLE
5
182
100
AcDbEntity
8
0
100
AcDbCircle
10
108.02629100000003
20
8.4658919999999718
30
0
40
1.7009969999999974
210
0
220
0
230
1
0
CIRCLE
5
183
100
AcDbEntity
8
0
100
AcDbCircle
10
64.966205000000002
20
8.345891999999985
30
0
40
0.85149799999999942
210
0
220
0
230
1
0
CIRCLE
5
184
100
AcDbEntity
8
0
100
AcDbCircle
10
66.966209000000021
20
8.345891999999985
30
0
40
0.85149799999999942
210
0
220
0
230
1
0
CIRCLE
5
185
100
AcDbEntity
8
0
100
AcDbCircle
10
62.966201000000019
20
8.345891999999985
30
0
40
0.85149799999999942
210
0
220
0
230
1
0
CIRCLE
5
186
100
AcDbEntity
8
0
100
AcDbCircle
10
60.966197000000037
20
8.345891999999985
30
0
40
0.85149799999999942
210
0
220
0
230
1
0
CIRCLE
5
187
100
AcDbEntity
8
0
100
AcDbCircle
10
77.966231000000036
20
8.345891999999985
30
0
40
0.85149799999999942
210
0
220
0
230
1
0
CIRCLE
5
188
100
AcDbEntity
8
0
100
AcDbCircle
10
39.553154000000035
20
8.9398929999999801
30
0
40
0.85149799999999942
210
0
220
0
230
1
0
CIRCLE
5
189
100
AcDbEntity
8
0
100
AcDbCircle
10
31.933139000000033
20
8.9398929999999801
30
0
40
0.85149799999999942
210
0
220
0
230
1
0
CIRCLE
5
190
100
AcDbEntity
8
0
100
AcDbCircle
10
42.093159000000036
20
8.9398929999999801
30
0
40
0.85149799999999942
210
0
220
0
230
1
0
CIRCLE
5
191
100
AcDbEntity
8
0
100
AcDbCircle
10
31.933139000000033
20
6.3998879999999794
30
0
40
0.85149799999999942
210
0
220
0
230
1
0
ARC
5
192
100
AcDbEntity
8
0
100
AcDbCircle
10
22.778061000000029
20
16.545907999999979
30
0
40
1.0014980000000011
210
0
220
-0
230
1
100
AcDbArc
50
84.323487731134819
51
275.67651226886414
0
CIRCLE
5
193
100
AcDbEntity
8
0
100
AcDbCircle
10
39.553154000000035
20
6.3998879999999794
30
0
40
0.85149799999999942
210
0
220
0
230
1
0
ARC
5
194
100
AcDbEntity
8
0
100
AcDbCircle
10
22.976181000000029
20
16.545907999999979
30
0
40
1.0014979999999942
210
0
220
0
230
1
100
AcDbArc
50
-95.676512268861146
51
95.676512268860122
0
CIRCLE
5
195
100
AcDbEntity
8
0
100
AcDbCircle
10
37.013149000000034
20
6.3998879999999794
30
0
40
0.85149799999999942
210
0
220
0
230
1
0
CIRCLE
5
196
100
AcDbEntity
8
0
100
AcDbCircle
10
34.473144000000033
20
6.3998879999999794
30
0
40
0.85149799999999942
210
0
220
0
230
1
0
CIRCLE
5
197
100
AcDbEntity
8
0
100
AcDbCircle
10
37.013149000000034
20
8.9398929999999801
30
0
40
0.85149799999999942
210
0
220
0
230
1
0
CIRCLE
5
198
100
AcDbEntity
8
0
100
AcDbCircle
10
44.633164000000036
20
8.9398929999999801
30
0
40
0.85149799999999942
210
0
220
0
230
1
0
LWPOLYLINE
5
199
100
AcDbEntity
8
0
100
AcDbPolyline
90
4
70
1
43
0.0
10
50.564672000000016
20
9.7913909999999778
10
48.861676000000017
20
9.7913909999999778
10
48.861676000000017
20
8.0883949999999807
10
50.564672000000016
20
8.0883949999999807
0
CIRCLE
5
200
100
AcDbEntity
8
0
100
AcDbCircle
10
26.853129000000031
20
6.3998879999999794
30
0
40
0.85149799999999942
210
0
220
0
230
1
0
CIRCLE
5
201
100
AcDbEntity
8
0
100
AcDbCircle
10
42.093159000000036
20
6.3998879999999794
30
0
40
0.85149799999999942
210
0
220
0
230
1
0
ARC
5
202
100
AcDbEntity
8
0
100
AcDbCircle
10
22.778061000000029
20
19.08591299999998
30
0
40
1.0014979999999989
210
0
220
-0
230
1
100
AcDbArc
50
84.323487731134804
51
275.67651226886517
0
CIRCLE
5
203
100
AcDbEntity
8
0
100
AcDbCircle
10
29.393134000000032
20
8.9398929999999801
30
0
40
0.85149799999999942
210
0
220
0
230
1
0
CIRCLE
5
204
100
AcDbEntity
8
0
100
AcDbCircle
10
49.713174000000024
20
6.3998879999999794
30
0
40
0.85149799999999942
210
0
220
0
230
1
0
CIRCLE
5
205
100
AcDbEntity
8
0
100
AcDbCircle
10
29.393134000000032
20
6.3998879999999794
30
0
40
0.85149799999999942
210
0
220
0
230
1
0
ARC
5
206
100
AcDbEntity
8
0
100
AcDbCircle
10
22.976181000000029
20
19.08591299999998
30
0
40
1.0014979999999924
210
0
220
0
230
1
100
AcDbArc
50
-95.676512268860122
51
95.676512268860137
0
CIRCLE
5
207
100
AcDbEntity
8
0
100
AcDbCircle
10
26.853129000000031
20
8.9398929999999801
30
0
40
0.85149799999999942
210
0
220
0
230
1
0
CIRCLE
5
208
100
AcDbEntity
8
0
100
AcDbCircle
10
47.173169000000037
20
8.9398929999999801
30
0
40
0.85149799999999942
210
0
220
0
230
1
0
ARC
5
209
100
AcDbEntity
8
0
100
AcDbCircle
10
22.778061000000029
20
21.625917999999977
30
0
40
1.0014980000000082
210
0
220
-0
230
1
100
AcDbArc
50
84.323487731140986
51
275.67651226885908
0
CIRCLE
5
210
100
AcDbEntity
8
0
100
AcDbCircle
10
44.633164000000036
20
6.3998879999999794
30
0
40
0.85149799999999942
210
0
220
0
230
1
0
CIRCLE
5
211
100
AcDbEntity
8
0
100
AcDbCircle
10
47.173169000000037
20
6.3998879999999794
30
0
40
0.85149799999999942
210
0
220
0
230
1
0
CIRCLE
5
212
100
AcDbEntity
8
0
100
AcDbCircle
10
34.473144000000033
20
8.9398929999999801
30
0
40
0.85149799999999942
210
0
220
0
230
1
0
LWPOLYLINE
5
213
100
AcDbEntity
8
0
100
AcDbPolyline
90
4
70
1
43
0.0
10
21.775623000000017
20
23.164424999999991
10
23.978619000000023
20
23.164424999999973
10
23.978619000000023
20
25.167420999999983
10
21.775623000000017
20
25.167420999999983
0
CIRCLE
5
214
100
AcDbEntity
8
0
100
AcDbCircle
10
20.319116000000008
20
8.415891999999964
30
0
40
1.7009970000000019
210
0
220
0
230
1
0
ARC
5
215
100
AcDbEntity
8
0
100
AcDbCircle
10
22.976181000000029
20
21.625917999999977
30
0
40
1.0014980000000031
210
0
220
0
230
1
100
AcDbArc
50
-95.676512268866176
51
95.676512268866091
0
CIRCLE
5
216
100
AcDbEntity
8
0
100
AcDbCircle
10
279.99999999999994
20
95
30
0
40
3.0000000000000071
210
0
220
0
230
1
0
CIRCLE
5
217
100
AcDbEntity
8
0
100
AcDbCircle
10
279.99999999999994
20
10.000000000000004
30
0
40
3.0000000000000004
210
0
220
0
230
1
0
CIRCLE
5
218
100
AcDbEntity
8
0
100
AcDbCircle
10
144.99999999999997
20
9.9999999999999982
30
0
40
2.9999999999999991
210
0
220
0
230
1
0
CIRCLE
5
219
100
AcDbEntity
8
0
100
AcDbCircle
10
10
20
10
30
0
40
3.0000000000000004
210
0
220
0
230
1
0
CIRCLE
5
220
100
AcDbEntity
8
0
100
AcDbCircle
10
10
20
95
30
0
40
3.0000000000000071
210
0
220
0
230
1
0
LWPOLYLINE
5
221
100
AcDbEntity
8
0
100
AcDbPolyline
90
6
70
1
43
0.0
10
50.982920150303826
20
5.1303185072103297
10
49.077916150303835
20
5.1303185072103297
10
25.582869150303836
20
5.1303185072103297
10
25.582869150303836
20
10.210328507210322
10
49.077916150303835
20
10.210328507210322
10
50.982920150303826
20
10.210328507210331
0
LWPOLYLINE
5
222
100
AcDbEntity
8
0
100
AcDbPolyline
90
4
70
1
43
0.0
10
24.146866150303836
20
25.436359507210327
10
21.606861150303828
20
25.436359507210327
10
21.606861150303828
20
15.179338507210325
10
24.146866150303836
20
15.179338507210325
0
LWPOLYLINE
5
223
100
AcDbEntity
8
0
100
AcDbPolyline
90
4
70
1
43
0.0
10
23.720362150303835
20
36.31488450721033
10
22.017366150303836
20
36.31488450721033
10
22.017366150303836
20
38.017880507210329
10
23.720362150303835
20
38.017880507210329
0
LWPOLYLINE
5
224
100
AcDbEntity
8
0
100
AcDbPolyline
90
4
70
1
43
0.0
10
24.26886715030383
20
38.566385507210327
10
21.46886115030382
20
38.566385507210327
10
21.46886115030382
20
27.766363507210325
10
24.26886715030383
20
27.766363507210325
0
LINE
5
225
100
AcDbEntity
8
0
100
AcDbLine
10
21.606861150303828
20
22.896354507210326
30
0
11
24.146866150303836
21
22.896354507210326
31
0
0
LWPOLYLINE
5
226
100
AcDbEntity
8
0
100
AcDbPolyline
90
4
70
1
43
0.0
10
68.365955150303833
20
6.9463225072103274
10
57.565933150303835
20
6.9463225072103274
10
57.565933150303835
20
9.7463275072103261
10
68.365955150303833
20
9.7463275072103261
0
LWPOLYLINE
5
227
100
AcDbEntity
8
0
100
AcDbPolyline
90
4
70
1
43
0.0
10
90.365999150303821
20
6.9463225072103274
10
81.565981150303841
20
6.9463225072103274
10
81.565981150303841
20
9.7463275072103261
10
90.365999150303821
20
9.7463275072103261
0
LWPOLYLINE
5
228
100
AcDbEntity
8
0
100
AcDbPolyline
90
4
70
1
43
0.0
10
84.135986150303836
20
12.820334507210323
10
84.135986150303836
20
10.280328507210328
10
94.393007150303845
20
10.280328507210328
10
94.393007150303845
20
12.820334507210323
0
LINE
5
229
100
AcDbEntity
8
0
100
AcDbLine
10
91.853002150303837
20
10.280328507210328
30
0
11
91.853002150303837
21
12.820334507210331
31
0
0
LWPOLYLINE
5
230
100
AcDbEntity
8
0
100
AcDbPolyline
90
4
70
1
43
0.0
10
79.365977150303848
20
9.7463275072103261
10
70.56595915030384
20
9.7463275072103261
10
70.56595915030384
20
6.9463225072103274
10
79.365977150303848
20
6.9463225072103274
0
CIRCLE
5
231
100
AcDbEntity
8
0
100
AcDbCircle
10
73.966223000000028
20
8.345891999999985
30
0
40
0.85149799999999942
210
0
220
0
230
1
0
LWPOLYLINE
5
232
100
AcDbEntity
8
0
100
AcDbPolyline
90
4
70
1
43
0.0
10
72.817717000000016
20
9.1973899999999844
10
71.114721000000017
20
9.1973899999999844
10
71.114721000000017
20
7.4943939999999856
10
72.817717000000016
20
7.4943939999999856
0
CIRCLE
5
233
100
AcDbEntity
8
0
100
AcDbCircle
10
77.966231000000036
20
8.345891999999985
30
0
40
0.85149799999999942
210
0
220
0
230
1
0
CIRCLE
5
234
100
AcDbEntity
8
0
100
AcDbCircle
10
75.966227000000032
20
8.345891999999985
30
0
40
0.85149799999999942
210
0
220
0
230
1
0
CIRCLE
5
235
100
AcDbEntity
8
0
100
AcDbCircle
10
84.966223000000014
20
8.345891999999985
30
0
40
0.85149799999999942
210
0
220
0
230
1
0
LWPOLYLINE
5
236
100
AcDbEntity
8
0
100
AcDbPolyline
90
4
70
1
43
0.0
10
83.817717000000016
20
9.1973899999999844
10
82.114721000000017
20
9.1973899999999844
10
82.114721000000017
20
7.4943939999999856
10
83.817717000000016
20
7.4943939999999856
0
CIRCLE
5
237
100
AcDbEntity
8
0
100
AcDbCircle
10
88.966231000000022
20
8.345891999999985
30
0
40
0.85149799999999942
210
0
220
0
230
1
0
CIRCLE
5
238
100
AcDbEntity
8
0
100
AcDbCircle
10
86.966227000000032
20
8.345891999999985
30
0
40
0.85149799999999942
210
0
220
0
230
1
0
CIRCLE
5
239
100
AcDbEntity
8
0
100
AcDbCircle
10
120.96141582003631
20
100.25036236276543
30
0
40
0.89999999999999858
210
0
220
0
230
1
0
CIRCLE
5
240
100
AcDbEntity
8
0
100
AcDbCircle
10
136.20141582003623
20
100.25036236276543
30
0
40
0.89999999999999858
210
0
220
0
230
1
0
CIRCLE
5
241
100
AcDbEntity
8
0
100
AcDbCircle
10
136.20141582003623
20
97.710362362765423
30
0
40
0.89999999999999858
210
0
220
0
230
1
0
CIRCLE
5
242
100
AcDbEntity
8
0
100
AcDbCircle
10
120.96141582003631
20
97.710362362765423
30
0
40
0.90000000000000202
210
0
220
0
230
1
0
CIRCLE
5
243
100
AcDbEntity
8
0
100
AcDbCircle
10
120.96141582003631
20
95.170362362765474
30
0
40
0.89999999999999059
210
0
220
0
230
1
0
CIRCLE
5
244
100
AcDbEntity
8
0
100
AcDbCircle
10
136.20141582003623
20
95.170362362765474
30
0
40
0.89999999999999858
210
0
220
0
230
1
0
CIRCLE
5
245
100
AcDbEntity
8
0
100
AcDbCircle
10
136.20141582003623
20
92.630362362765467
30
0
40
0.90000000000000369
210
0
220
0
230
1
0
CIRCLE
5
246
100
AcDbEntity
8
0
100
AcDbCircle
10
136.20141582003623
20
90.090362362765518
30
0
40
0.9000000000000018
210
0
220
0
230
1
0
CIRCLE
5
247
100
AcDbEntity
8
0
100
AcDbCircle
10
136.20141582003623
20
87.550362362765512
30
0
40
0.90000000000000258
210
0
220
0
230
1
0
CIRCLE
5
248
100
AcDbEntity
8
0
100
AcDbCircle
10
136.20141582003623
20
85.010362362765534
30
0
40
0.89999999999999858
210
0
220
0
230
1
0
CIRCLE
5
249
100
AcDbEntity
8
0
100
AcDbCircle
10
136.20141582003623
20
82.470362362765556
30
0
40
0.90000000000000802
210
0
220
0
230
1
0
CIRCLE
5
250
100
AcDbEntity
8
0
100
AcDbCircle
10
136.20141582003623
20
79.930362362765536
30
0
40
0.89999999999999947
210
0
220
0
230
1
0
CIRCLE
5
251
100
AcDbEntity
8
0
100
AcDbCircle
10
136.20141582003623
20
77.390362362765558
30
0
40
0.89999999999999414
210
0
220
0
230
1
0
CIRCLE
5
252
100
AcDbEntity
8
0
100
AcDbCircle
10
136.20141582003623
20
74.85036236276558
30
0
40
0.89999999999999536
210
0
220
0
230
1
0
CIRCLE
5
253
100
AcDbEntity
8
0
100
AcDbCircle
10
136.20141582003623
20
72.310362362765602
30
0
40
0.90000000000000535
210
0
220
0
230
1
0
CIRCLE
5
254
100
AcDbEntity
8
0
100
AcDbCircle
10
120.96141582003631
20
92.630362362765467
30
0
40
0.89999999999999836
210
0
220
0
230
1
0
CIRCLE
5
255
100
AcDbEntity
8
0
100
AcDbCircle
10
120.96141582003631
20
90.090362362765518
30
0
40
0.89999999999999647
210
0
220
0
230
1
0
CIRCLE
5
256
100
AcDbEntity
8
0
100
AcDbCircle
10
120.96141582003631
20
87.550362362765512
30
0
40
0.8999999999999948
210
0
220
0
230
1
0
CIRCLE
5
257
100
AcDbEntity
8
0
100
AcDbCircle
10
120.96141582003631
20
85.010362362765534
30
0
40
0.90000000000000679
210
0
220
0
230
1
0
CIRCLE
5
258
100
AcDbEntity
8
0
100
AcDbCircle
10
120.96141582003631
20
82.470362362765556
30
0
40
0.89999999999999791
210
0
220
0
230
1
0
CIRCLE
5
259
100
AcDbEntity
8
0
100
AcDbCircle
10
120.96141582003631
20
79.930362362765493
30
0
40
0.90000000000000746
210
0
220
0
230
1
0
CIRCLE
5
260
100
AcDbEntity
8
0
100
AcDbCircle
10
120.96141582003631
20
77.390362362765558
30
0
40
0.89999999999999392
210
0
220
0
230
1
0
CIRCLE
5
261
100
AcDbEntity
8
0
100
AcDbCircle
10
120.96141582003631
20
74.850362362765537
30
0
40
0.90000000000000147
210
0
220
0
230
1
0
CIRCLE
5
262
100
AcDbEntity
8
0
100
AcDbCircle
10
120.96141582003631
20
72.310362362765559
30
0
40
0.89999999999999958
210
0
220
0
230
1
0
CIRCLE
5
263
100
AcDbEntity
8
0
100
AcDbCircle
10
144.99999999999997
20
95
30
0
40
3.0000000000000004
210
0
220
0
230
1
0
CIRCLE
5
264
100
AcDbEntity
8
0
100
AcDbCircle
10
68.350932480641987
20
79.687965318482753
30
0
40
0.50000000000000355
210
0
220
0
230
1
0
CIRCLE
5
265
100
AcDbEntity
8
0
100
AcDbCircle
10
86.751819471448727
20
74.757462509279719
30
0
40
0.49999999999999883
210
0
220
0
230
1
0
CIRCLE
5
266
100
AcDbEntity
8
0
100
AcDbCircle
10
91.682322280651732
20
93.158349500086487
30
0
40
0.49999999999999262
210
0
220
0
230
1
0
CIRCLE
5
267
100
AcDbEntity
8
0
100
AcDbCircle
10
105.15270646225547
20
69.826959700076713
30
0
40
0.49999999999999772
210
0
220
0
230
1
0
CIRCLE
5
268
100
AcDbEntity
8
0
100
AcDbCircle
10
173.62362546498005
20
66.374200379858223
30
0
40
0.49999999999999822
210
0
220
0
230
1
0
CIRCLE
5
269
100
AcDbEntity
8
0
100
AcDbCircle
10
201.52769704448411
20
78.197633586276254
30
0
40
0.49999999999999573
210
0
220
0
230
1
0
CIRCLE
5
270
100
AcDbEntity
8
0
100
AcDbCircle
10
167.692358180121
20
28.808356268658542
30
0
40
0.50000000000000333
210
0
220
0
230
1
0
CIRCLE
5
271
100
AcDbEntity
8
0
100
AcDbCircle
10
195.59286396868359
20
40.682539353540307
30
0
40
0.49999999999999822
210
0
220
0
230
1
0
CIRCLE
5
272
100
AcDbEntity
8
0
100
AcDbCircle
10
226.03331133707536
20
40.604408404645795
30
0
40
0.50000000000000011
210
0
220
0
230
1
0
CIRCLE
5
273
100
AcDbEntity
8
0
100
AcDbCircle
10
254.80293713385367
20
28.808511841826757
30
0
40
0.50000000000000611
210
0
220
0
230
1
0
CIRCLE
5
274
100
AcDbEntity
8
0
100
AcDbCircle
10
260.28173559532001
20
66.359351660933356
30
0
40
0.49999999999999578
210
0
220
0
230
1
0
CIRCLE
5
275
100
AcDbEntity
8
0
100
AcDbCircle
10
231.53127995772076
20
78.131886083224046
30
0
40
0.50000000000000111
210
0
220
0
230
1
0
ENDSEC
0
SECTION
2
OBJECTS
0
DICTIONARY
5
C
100
AcDbDictionary
3
ACAD_GROUP
350
D
3
ACAD_MLINESTYLE
350
17
0
DICTIONARY
5
D
100
AcDbDictionary
0
DICTIONARY
5
1A
330
C
100
AcDbDictionary
0
DICTIONARY
5
17
100
AcDbDictionary
0
ENDSEC
0
EOF
