<?xml version="1.0" encoding="UTF-8" standalone="no"?>
<svg
   xmlns:dc="http://purl.org/dc/elements/1.1/"
   xmlns:cc="http://creativecommons.org/ns#"
   xmlns:rdf="http://www.w3.org/1999/02/22-rdf-syntax-ns#"
   xmlns:svg="http://www.w3.org/2000/svg"
   xmlns="http://www.w3.org/2000/svg"
   xmlns:sodipodi="http://sodipodi.sourceforge.net/DTD/sodipodi-0.dtd"
   xmlns:inkscape="http://www.inkscape.org/namespaces/inkscape"
   width="15.062mm"
   height="18.542mm"
   viewBox="4317.3 3167 59.3 73"
   version="1.1"
   id="svg9"
   sodipodi:docname="logo.svg"
   inkscape:export-filename="G:\Documents\keefighter\logo.png"
   inkscape:export-xdpi="1000"
   inkscape:export-ydpi="1000"
   inkscape:version="1.0.2-2 (e86c870879, 2021-01-15)">
  <metadata
     id="metadata15">
    <rdf:RDF>
      <cc:Work
         rdf:about="">
        <dc:format>image/svg+xml</dc:format>
        <dc:type
           rdf:resource="http://purl.org/dc/dcmitype/StillImage" />
        <dc:title></dc:title>
      </cc:Work>
    </rdf:RDF>
  </metadata>
  <defs
     id="defs13" />
  <sodipodi:namedview
     pagecolor="#ffffff"
     bordercolor="#666666"
     borderopacity="1"
     objecttolerance="10"
     gridtolerance="10"
     guidetolerance="10"
     inkscape:pageopacity="0"
     inkscape:pageshadow="2"
     inkscape:window-width="1920"
     inkscape:window-height="1017"
     id="namedview11"
     showgrid="false"
     inkscape:zoom="24.257991"
     inkscape:cx="14.655683"
     inkscape:cy="20.809935"
     inkscape:window-x="1272"
     inkscape:window-y="-8"
     inkscape:window-maximized="1"
     inkscape:current-layer="svg9"
     inkscape:document-rotation="0" />
  <style
     type="text/css"
     id="style4">
*[layerid=&quot;1&quot;] {stroke:#000000;fill:#000000;}
*[layerid=&quot;2&quot;] {stroke:#000000;fill:#000000;}
*[layerid=&quot;3&quot;] {stroke:#000000;fill:#000000;}
*[layerid=&quot;4&quot;] {stroke:#000000;fill:#000000;}
*[layerid=&quot;5&quot;] {stroke:#000000;fill:#000000;}
*[layerid=&quot;6&quot;] {stroke:#000000;fill:#000000;}
*[layerid=&quot;7&quot;] {stroke:#000000;fill:#000000;}
*[layerid=&quot;8&quot;] {stroke:#000000;fill:#000000;}
*[layerid=&quot;9&quot;] {stroke:#000000;fill:#000000;}
*[layerid=&quot;10&quot;] {stroke:#000000;fill:#000000;}
*[layerid=&quot;11&quot;] {stroke:#000000;fill:#000000;}
*[layerid=&quot;12&quot;] {stroke:#000000;fill:#000000;}
*[layerid=&quot;13&quot;] {stroke:#000000;fill:#000000;}
*[layerid=&quot;14&quot;] {stroke:#000000;fill:#000000;}
*[layerid=&quot;15&quot;] {stroke:#000000;fill:#000000;}
*[layerid=&quot;19&quot;] {stroke:#000000;fill:#000000;}
*[layerid=&quot;21&quot;] {stroke:#000000;fill:#000000;}
*[layerid=&quot;22&quot;] {stroke:#000000;fill:#000000;}
*[layerid=&quot;23&quot;] {stroke:#000000;fill:#000000;}
*[layerid=&quot;24&quot;] {stroke:#000000;fill:#000000;}
*[layerid=&quot;25&quot;] {stroke:#000000;fill:#000000;}
*[layerid=&quot;26&quot;] {stroke:#000000;fill:#000000;}
*[layerid=&quot;27&quot;] {stroke:#000000;fill:#000000;}
*[layerid=&quot;28&quot;] {stroke:#000000;fill:#000000;}
*[layerid=&quot;29&quot;] {stroke:#000000;fill:#000000;}
*[layerid=&quot;30&quot;] {stroke:#000000;fill:#000000;}
*[layerid=&quot;31&quot;] {stroke:#000000;fill:#000000;}
*[layerid=&quot;32&quot;] {stroke:#000000;fill:#000000;}
*[layerid=&quot;33&quot;] {stroke:#000000;fill:#000000;}
*[layerid=&quot;34&quot;] {stroke:#000000;fill:#000000;}
*[layerid=&quot;35&quot;] {stroke:#000000;fill:#000000;}
*[layerid=&quot;36&quot;] {stroke:#000000;fill:#000000;}
*[layerid=&quot;37&quot;] {stroke:#000000;fill:#000000;}
*[layerid=&quot;38&quot;] {stroke:#000000;fill:#000000;}
*[layerid=&quot;39&quot;] {stroke:#000000;fill:#000000;}
*[layerid=&quot;40&quot;] {stroke:#000000;fill:#000000;}
*[layerid=&quot;41&quot;] {stroke:#000000;fill:#000000;}
*[layerid=&quot;42&quot;] {stroke:#000000;fill:#000000;}
*[layerid=&quot;43&quot;] {stroke:#000000;fill:#000000;}
*[layerid=&quot;44&quot;] {stroke:#000000;fill:#000000;}
*[layerid=&quot;45&quot;] {stroke:#000000;fill:#000000;}
*[layerid=&quot;46&quot;] {stroke:#000000;fill:#000000;}
*[layerid=&quot;47&quot;] {stroke:#000000;fill:#000000;}
*[layerid=&quot;48&quot;] {stroke:#000000;fill:#000000;}
*[layerid=&quot;49&quot;] {stroke:#000000;fill:#000000;}
*[layerid=&quot;50&quot;] {stroke:#000000;fill:#000000;}
*[layerid=&quot;51&quot;] {stroke:#000000;fill:#000000;}
*[layerid=&quot;52&quot;] {stroke:#000000;fill:#000000;}
*[layerid=&quot;99&quot;] {stroke:#000000;fill:#000000;}
*[layerid=&quot;100&quot;] {stroke:#000000;fill:#000000;}
*[layerid=&quot;101&quot;] {stroke:#000000;fill:#000000;}
*[layerid=&quot;Hole&quot;] {stroke:#000000;fill:#000000;}
*[layerid=&quot;DRCError&quot;] {stroke:#000000;fill:#000000;}
*[fill=&quot;none&quot;] {fill: none;}
*[stroke=&quot;none&quot;] {stroke: none;}
path, polyline, polygon, line {stroke-linecap:round;}
g[c_partid=&quot;part_pad&quot;][layerid=&quot;1&quot;] ellipse:not([c_etype=&quot;pad_outer&quot;]) {fill:#000000;}
g[c_partid=&quot;part_pad&quot;][layerid=&quot;1&quot;] polygon:not([c_etype=&quot;pad_outer&quot;]) {fill:#000000;}
g[c_partid=&quot;part_pad&quot;][layerid=&quot;1&quot;] polyline:not([c_etype=&quot;pad_outer&quot;]) {stroke:#000000;}
g[c_partid=&quot;part_pad&quot;][layerid=&quot;2&quot;] ellipse:not([c_etype=&quot;pad_outer&quot;]) {fill:#000000;}
g[c_partid=&quot;part_pad&quot;][layerid=&quot;2&quot;] polygon:not([c_etype=&quot;pad_outer&quot;]) {fill:#000000;}
g[c_partid=&quot;part_pad&quot;][layerid=&quot;2&quot;] polyline:not([c_etype=&quot;pad_outer&quot;]) {stroke:#000000;}
g[c_partid=&quot;part_pad&quot;][layerid=&quot;11&quot;] ellipse:not([c_etype=&quot;pad_outer&quot;]) {fill:#000000;}
g[c_partid=&quot;part_pad&quot;][layerid=&quot;11&quot;] polygon:not([c_etype=&quot;pad_outer&quot;]) {fill:#000000;}
g[c_partid=&quot;part_pad&quot;][layerid=&quot;11&quot;] polyline:not([c_etype=&quot;pad_outer&quot;]) {stroke:#000000;}
g[c_partid=&quot;part_pad&quot;][layerid=&quot;11&quot;] circle {fill:#FFFFFF;}
g[c_partid=&quot;part_pad&quot;][layerid=&quot;11&quot;] &gt; polyline:nth-of-type(2) {stroke:#FFFFFF;}
g[c_partid=&quot;part_pad&quot;][layerid=&quot;11&quot;][c_shape=&quot;ELLIPSE&quot;]  polyline:nth-last-of-type(1) {stroke:#FFFFFF;}
g[c_partid=&quot;part_pad&quot;][layerid=&quot;11&quot;][c_shape=&quot;RECT&quot;]  polyline:nth-last-of-type(1) {stroke:#FFFFFF;}
g[c_partid=&quot;part_pad&quot;][layerid=&quot;11&quot;][c_shape=&quot;POLYGON&quot;]  polyline:nth-last-of-type(1) {stroke:#FFFFFF;}
g[c_partid=&quot;part_via&quot;] &gt; * + circle, #gCurParts g[c_partid=&quot;part_via&quot;] &gt; * + circle {fill:#FFFFFF;}
g[c_partid=&quot;part_pad&quot;] &gt; polygon[c_etype=&quot;pad_outer&quot;], #gCurParts g[c_partid=&quot;part_pad&quot;] &gt; polygon[c_etype=&quot;pad_outer&quot;] {stroke-linejoin: miter;stroke-miterlimit: 100;}
g[c_partid=&quot;part_hole&quot;] &gt; circle {fill: #FFFFFF;}path, polyline, polygon {stroke-linejoin:round;}
rect, circle, ellipse, polyline, line, polygon, path {shape-rendering:crispEdges;}
</style>
  <path
     d="m 4366.7903,3212.2107 c -1.077,-0.7339 -1.7232,-0.7427 -2.1639,-0.03 -0.057,0.092 -0.2752,-0.036 -0.4928,-0.2883 l -0.3907,-0.4536 -0.4099,0.3845 c -0.359,0.3369 -0.453,0.3576 -0.7582,0.167 -0.4999,-0.3122 -0.3947,-0.5779 1.4257,-3.602 0.9772,-1.6234 0.7497,-1.7571 -2.7725,-1.6299 l -2.1247,0.077 0.2522,-0.4877 c 1.1859,-2.2931 0.7182,-2.7928 -1.3323,-1.4236 -1.1315,0.7556 -1.118,0.7626 -1.4803,-0.7633 -0.295,-1.243 -1.0604,-2.9289 -1.3713,-3.0206 -0.1045,-0.031 -0.6806,0.6734 -1.2801,1.565 -1.9037,2.831 -1.8351,2.8053 -2.9872,1.1185 -0.9046,-1.3245 -2.8575,-3.3358 -3.0412,-3.1322 -0.08,0.088 -0.4613,1.017 -0.8476,2.0632 -0.3864,1.0463 -0.7577,2.0025 -0.8252,2.1249 -0.088,0.1599 -0.6077,-0.2379 -1.8442,-1.4119 -1.8128,-1.7211 -2.7085,-2.2806 -2.9716,-1.8559 -0.079,0.1282 -0.3795,0.8845 -0.6667,1.6805 -0.5786,1.6039 -0.5956,1.6147 -1.6145,1.0322 -0.8361,-0.478 -1.0899,-0.4014 -0.9521,0.2873 0.072,0.3587 0.042,0.469 -0.1074,0.4033 -1.6621,-0.7287 -2.3031,-0.9297 -2.9751,-0.9331 h -0.7839 l 0.7713,2.4871 -0.5599,0.4903 h -0.7692 c -0.8562,0 -0.9629,0.186 -0.4314,0.7517 l 0.3376,0.3594 -0.7512,0.2104 c -0.8133,0.2277 -0.94,0.466 -0.4204,0.7906 0.5108,0.3189 0.3966,0.4605 -0.3721,0.4617 -0.3867,6e-4 -0.8185,0.057 -0.9595,0.1247 -0.7333,0.3535 -0.8188,-0.5407 -0.8188,-8.5714 v -7.5158 l 0.6203,0.036 c 0.5016,0.029 0.616,-0.019 0.5974,-0.2531 -0.03,-0.3818 -0.1253,-0.4151 1.7167,0.6023 2.338,1.2914 2.5459,1.3414 5.5845,1.3414 h 2.6467 l 1.0752,-0.5439 c 2.7422,-1.387 3.2004,-1.8336 4.5335,-4.4186 1.3117,-2.5436 1.3207,-2.7916 0.2316,-6.3433 -0.334,-1.0893 -2.9219,-3.5057 -4.6924,-4.3815 -4.2811,-2.1178 -11.065,-0.5258 -12.9671,3.043 -1.2082,2.2668 -1.5837,6.0778 -0.7733,7.848 0.4631,1.0115 0.5432,1.5068 0.259,1.6016 -0.2947,0.098 -0.2113,25.1069 0.085,25.4353 0.1974,0.2189 0.1967,0.3022 0,0.577 -0.2804,0.3822 -0.3273,2.7546 -0.064,3.2462 0.2968,0.5545 1.6484,0.2068 1.6484,-0.4241 0,-0.1259 0.075,-0.2751 0.1661,-0.3316 0.2121,-0.1311 1.495,0.5824 1.4687,0.8167 -0.048,0.4282 0.04,0.5898 0.3215,0.5898 0.2417,0 0.2876,0.099 0.2294,0.4962 -0.04,0.2729 -0.01,0.4974 0.07,0.4988 0.4922,0.01 0.5728,0.2932 0.2383,0.8418 -0.7284,1.1949 -0.4415,1.3614 1.2495,0.7249 1.3349,-0.5024 1.3146,-0.5176 0.9097,0.6818 -0.1794,0.5313 -0.2903,1.0239 -0.2466,1.0947 0.098,0.1588 1.0381,0.029 2.8489,-0.3941 1.6061,-0.3751 1.6133,-0.3726 1.2693,0.4508 -0.3999,0.9569 -0.1275,1.0292 1.2846,0.3407 0.6773,-0.3301 1.2825,-0.6003 1.3451,-0.6003 0.062,0 0.099,0.6851 0.08,1.5223 -0.019,0.8486 0.036,1.5455 0.124,1.5747 0.087,0.029 0.9267,-0.2839 1.867,-0.6951 0.9402,-0.4113 1.7591,-0.7477 1.8197,-0.7477 0.1541,0 0.4812,1.3799 0.6079,2.5639 0.1785,1.6674 0.4246,1.6964 1.9856,0.2342 0.9069,-0.8496 2.7906,-2.1364 3.1273,-2.1364 0.1119,0 0.3365,0.2047 0.499,0.4548 0.377,0.5805 1.5851,1.6956 1.837,1.6956 0.1058,0 0.4847,-0.4281 0.8421,-0.9512 1.3311,-1.9481 1.7623,-2.5226 1.8937,-2.5226 0.074,0 1.0198,0.3722 2.1012,0.8271 2.9358,1.2348 2.8329,1.3014 2.3824,-1.5408 -0.3241,-2.0447 -0.2874,-2.1311 0.8555,-2.0128 2.3178,0.2399 3.0747,0.2441 3.1617,0.017 0.049,-0.1271 -0.4177,-1.2257 -1.0366,-2.4414 -0.6189,-1.2158 -1.1518,-2.2691 -1.1843,-2.3407 -0.032,-0.072 0.4133,-0.092 0.9907,-0.046 3.3689,0.2715 3.8066,0.275 3.7508,0.03 -0.088,-0.3886 -2.9396,-3.443 -3.8006,-4.0716 -0.8379,-0.6116 -0.9763,-0.827 -0.5316,-0.827 0.1492,0 0.367,-0.1303 0.484,-0.2895 0.2024,-0.2754 0.2374,-0.275 0.719,0.01 l 0.5063,0.2975 0.5381,-0.7634 c 0.4982,-0.7068 0.5785,-0.7557 1.0846,-0.6608 1.4576,0.2735 1.5174,-0.2683 0.1336,-1.2112 m -1.4501,1.3101 c -0.4158,0.4913 -0.4758,0.5115 -0.9885,0.3328 -0.4791,-0.167 -0.5766,-0.1504 -0.7979,0.1363 -0.169,0.2188 -0.4934,0.343 -0.9837,0.3766 -1.075,0.073 -1,0.3448 0.3495,1.2625 0.665,0.4522 1.8022,1.4747 2.5272,2.2722 l 1.3181,1.4498 -1.9798,-0.1104 c -1.0888,-0.061 -2.1463,-0.156 -2.3499,-0.2116 -0.5333,-0.1456 -0.6557,0.3235 -0.2077,0.7963 0.1983,0.2094 0.8019,1.2573 1.3411,2.3287 l 0.9805,1.9479 -2.0572,-0.046 c -1.1315,-0.025 -2.0909,-0.01 -2.1321,0.037 -0.041,0.046 0.05,0.9946 0.2028,2.1091 0.3279,2.3938 0.5028,2.2911 -2.0418,1.1992 -1.0602,-0.4548 -1.9833,-0.827 -2.0514,-0.827 -0.068,0 -0.5685,0.6405 -1.112,1.4235 -0.5435,0.7829 -1.1126,1.5831 -1.2647,1.7782 l -0.2766,0.3547 -0.506,-0.4828 c -0.3912,-0.3733 -1.1307,-1.3413 -1.4382,-1.8827 -0.096,-0.1691 -3.0939,1.82 -3.735,2.4782 -0.974,0.9999 -1.0608,0.9948 -1.1973,-0.071 -0.158,-1.2328 -0.6109,-2.788 -0.8373,-2.8749 -0.1056,-0.041 -0.8457,0.2269 -1.6446,0.5942 -1.9921,0.916 -1.9157,0.9488 -1.9157,-0.8209 0,-1.7453 -0.017,-1.7558 -1.5678,-0.9988 -1.153,0.5626 -1.2355,0.537 -0.8533,-0.2644 0.3794,-0.7956 0.3171,-0.8211 -1.175,-0.4804 -1.9778,0.4517 -2.882,0.614 -2.9641,0.5319 -0.041,-0.041 0.041,-0.522 0.1824,-1.0683 0.4087,-1.5772 0.296,-1.671 -1.1353,-0.9449 -1.1682,0.5927 -1.3686,0.5518 -0.9309,-0.19 0.399,-0.6763 0.3461,-1.0513 -0.1483,-1.0513 -0.2805,0 -0.3165,-0.077 -0.2326,-0.4962 0.09,-0.4506 0.059,-0.4963 -0.335,-0.4963 -0.3239,0 -0.4342,-0.084 -0.4342,-0.3308 0,-0.4697 0.4261,-0.4142 1.136,0.1481 1.6574,1.3126 5.8678,2.075 10.8019,1.9559 l 3.419,-0.083 0.093,0.3685 c 0.248,0.9882 1.4948,1.8566 2.9053,2.0237 0.7882,0.093 0.8016,0.087 1.084,-0.5081 0.3772,-0.7949 0.4595,-0.8259 0.9122,-0.344 0.6002,0.639 1.2258,0.5447 2.0846,-0.3142 0.4966,-0.4965 0.7226,-0.8624 0.7226,-1.1694 0,-0.5067 -0.7829,-1.733 -1.3443,-2.1058 l -0.3738,-0.2481 0.3589,-0.3853 c 0.8703,-0.9341 0.8775,-2.4168 0.019,-3.9174 -0.4871,-0.8514 -0.4993,-0.9146 -0.2327,-1.2091 0.6789,-0.7501 0.9694,-2.803 0.5132,-3.6263 -0.2053,-0.3705 -0.1765,-0.4415 0.4022,-0.9925 2.0015,-1.906 0.7705,-4.0221 -2.628,-4.5174 -1.553,-0.2264 -2.3326,0.056 -2.9965,1.0859 -0.4596,0.7129 -0.1751,0.6969 -2.9811,0.1667 -1.2151,-0.2295 -2.228,-0.2868 -4.4662,-0.2526 -4.2878,0.065 -6.1913,0.55 -7.9519,2.024 l -0.806,0.6748 -0.3376,-0.5491 -0.3376,-0.5492 0.5811,-0.2292 c 0.5957,-0.2349 0.7769,-0.6998 0.3744,-0.9603 -0.1308,-0.085 0.036,-0.1642 0.4549,-0.2165 l 0.8871,-0.3192 0.1939,-0.3209 c 0,0 -0.084,-1.1787 -0.2997,-1.5096 l -0.3185,-0.8656 0.6355,0.099 c 0.3968,0.06 1.2614,0.3729 1.9214,0.6951 1.3356,0.652 1.5073,0.6415 1.4006,-0.086 l -0.074,-0.5021 0.8495,0.3531 c 1.0178,0.4229 0.8642,0.5561 1.5497,-1.3434 0.3094,-0.8574 0.6405,-1.5849 0.7356,-1.6166 0.095,-0.032 1.0862,0.7645 2.2021,1.7694 1.9664,1.7707 2.4131,2.0545 2.5506,1.6204 0.494,-1.5598 1.5297,-4.0829 1.6587,-4.0407 0.092,0.03 0.8187,0.8679 1.6144,1.8616 2.324,2.9027 2.141,2.8872 3.9421,0.3318 0.6753,-0.9581 1.2783,-1.744 1.34,-1.7463 0.149,-0.01 0.7696,1.6685 0.9769,2.6351 0.091,0.4229 0.3098,1.0071 0.487,1.2984 l 0.322,0.5295 0.7685,-0.5866 c 1.8144,-1.385 2.0302,-1.2995 1.1151,0.442 -0.3311,0.6299 -0.573,1.1704 -0.5376,1.2009 0.035,0.03 1.2811,0.01 2.7683,-0.046 2.9502,-0.1108 3.0172,-0.093 2.5302,0.6887 -0.1827,0.2932 -0.6745,1.1442 -1.0928,1.8911 -0.4183,0.7469 -0.8327,1.4027 -0.9209,1.4572 -0.2988,0.1847 -0.1624,0.3931 0.6011,0.9184 l 0.7614,0.5239 0.3484,-0.3484 0.3483,-0.3483 0.4659,0.4464 0.466,0.4464 0.4159,-0.4486 c 0.484,-0.5219 0.7485,-0.5547 1.3415,-0.1662 l 0.431,0.2824 -0.4782,0.1248 c -0.263,0.069 -0.6773,0.3601 -0.9208,0.6478 m -9.654,-3.8607 c -0.3544,0.8481 -0.6935,1.1766 -1.3397,1.2979 -0.601,0.1127 -0.7456,0.4814 -0.2505,0.6385 0.9277,0.2945 0.8796,2.764 -0.071,3.645 -0.4864,0.4508 -0.4991,0.6541 -0.07,1.115 1.2826,1.3768 1.1972,3.6204 -0.1675,4.3968 -0.6797,0.3868 -0.6181,0.5915 0.2476,0.8231 0.5831,0.1559 0.8303,0.3391 1.1579,0.8581 0.527,0.8348 0.5221,1.0429 -0.038,1.6503 -0.7549,0.8181 -1.259,0.8265 -1.8101,0.03 -0.45,-0.6503 -0.8779,-0.8879 -0.8779,-0.4876 0,0.6722 -0.7014,1.6204 -1.1311,1.529 -1.6823,-0.3579 -2.3829,-0.8935 -2.4199,-1.8501 l -0.024,-0.6192 -1.1486,0.083 c -7.1602,0.5156 -13.4328,-0.6626 -13.9098,-2.6127 -0.1718,-0.7021 -0.4151,-0.721 -0.973,-0.075 l -0.5171,0.5981 -0.7876,-0.4402 -0.7876,-0.4403 -0.2549,0.6487 c -0.5523,1.4062 -1.0713,1.0178 -1.0052,-0.7522 0.059,-1.5851 0.2399,-1.6902 1.2643,-0.7351 0.8128,0.758 0.8701,0.7721 1.5365,0.3785 0.5427,-0.3206 0.7263,-0.8056 0.5806,-1.534 l -0.097,-0.4862 2.8485,-0.045 2.8485,-0.045 0.052,-0.4549 c 0.052,-0.4504 0.064,-0.4549 1.2738,-0.4549 h 1.2213 l 0.05,0.9512 0.05,0.9511 0.6006,-0.034 c 0.5743,-0.033 0.6132,-1e-4 0.8883,0.7443 0.4243,1.1483 1.0553,2.1846 1.3302,2.1846 0.3322,0 0.3019,-0.2621 -0.092,-0.7946 -0.4065,-0.5498 -1.3212,-2.7601 -1.3212,-3.1926 0,-0.4859 0.4785,-0.3698 0.582,0.1413 0.1333,0.6585 0.614,1.5575 0.9401,1.7584 0.4837,0.298 0.5237,-0.026 0.07,-0.5649 -0.2388,-0.2838 -0.4346,-0.6777 -0.4351,-0.8754 -6e-4,-0.1977 -0.1122,-0.5727 -0.2482,-0.8333 -0.3261,-0.6254 -0.3255,-1.6938 0,-1.8191 0.2901,-0.1114 0.3209,-0.5919 0.073,-1.1364 -0.1216,-0.267 -0.1229,-0.5223 0,-0.8348 0.2185,-0.5747 0.4717,-0.5731 0.6912,0 0.2475,0.651 0.6218,1.0157 1.4987,1.4604 l 0.7699,0.3904 0.1087,1.5353 c 0.06,0.8445 0.086,2.0858 0.057,2.7586 -0.033,0.7864 0.014,1.2462 0.131,1.2877 0.2672,0.094 0.4237,-2.2412 0.2936,-4.3825 -0.078,-1.2778 -0.055,-1.8358 0.079,-1.9185 0.5466,-0.3379 -0.083,-1.8723 -0.9536,-2.3223 -1.5628,-0.8082 -3.7523,0.6204 -3.1987,2.0871 0.2453,0.6497 0.057,0.9087 -0.4596,0.6323 -0.8114,-0.4343 0.048,-3.4108 1.1009,-3.811 0.4304,-0.1636 0.3948,-0.4879 -0.054,-0.4879 -0.4041,0 -1.2799,1.0318 -1.5369,1.8107 -0.15,0.4544 -0.367,0.7543 -0.6137,0.8481 -0.3351,0.1274 -0.3818,0.2567 -0.3818,1.059 v 0.9139 h -1.1579 -1.1579 v -0.579 -0.5789 h -3.1429 c -1.7286,0 -3.1429,-0.028 -3.1429,-0.062 0,-0.034 0.1117,-0.3298 0.2482,-0.6564 0.6565,-1.5714 -0.7709,-2.8938 -1.9023,-1.7624 -0.4558,0.4558 -0.4963,0.4272 -0.4963,-0.3511 0,-0.5924 0.033,-0.6544 0.2524,-0.4724 0.2064,0.1713 0.3561,0.1535 0.8225,-0.098 0.563,-0.3031 0.5798,-0.3024 1.3299,0.062 0.8342,0.4053 0.8285,0.4067 1.896,-0.4701 1.6977,-1.3942 3.0392,-1.7895 6.7476,-1.9885 3.0472,-0.1635 5.252,0.021 7.2681,0.6066 l 0.9402,0.2733 0.2552,-0.39 c 1.0185,-1.556 1.6006,-1.7934 3.4512,-1.4076 2.2932,0.4782 3.0152,1.2845 2.4219,2.7046 m -3.2203,2.3436 c -0.508,-1.7919 -3.4145,-2.2805 -4.0807,-0.6861 -0.7881,1.8863 1.1332,3.4652 3.1772,2.6111 0.3155,-0.1318 0.5737,-0.2716 0.5737,-0.3106 0,-0.039 0.1015,-0.322 0.2255,-0.6288 0.1356,-0.3353 0.1772,-0.7284 0.1043,-0.9856 m -0.388,6.2587 c -1.1056,-1.1909 -4.24,-0.1992 -3.964,1.2543 0.3006,1.5835 1.4438,2.332 2.8997,1.8986 1.3578,-0.4041 1.96,-2.1881 1.0643,-3.1529 m -0.2253,-5.2209 c -0.1666,0.5774 -1.5544,0.8007 -2.3665,0.3808 -1.1466,-0.5929 -1.0676,-2.1288 0.1274,-2.4763 0.3124,-0.091 0.3722,-0.045 0.3722,0.2877 0,0.6772 0.6973,1.1761 1.4944,1.0692 0.5891,-0.079 0.6653,-0.054 0.5668,0.1841 -0.063,0.1515 -0.15,0.401 -0.1943,0.5545 m -0.277,7.492 c -0.396,0.396 -1.5046,0.7228 -1.7203,0.5071 -0.063,-0.063 0.015,-0.1875 0.1731,-0.2762 0.7362,-0.412 0.01,-1.7268 -0.8862,-1.5958 -0.5278,0.077 -0.6453,-0.1907 -0.2333,-0.5326 0.4429,-0.3676 2.3548,-0.4245 2.734,-0.081 0.4785,0.433 0.4433,1.4682 -0.067,1.9788 m -2.2516,-5.3726 c -0.7755,-0.7755 -1.4887,-0.2712 -1.4887,1.0525 0,0.8381 0.307,1.2633 0.9122,1.2633 0.8448,0 1.253,-1.6394 0.5765,-2.3158 m -2.7792,-24.8329 c -1.1003,2.1965 -1.6248,2.7325 -3.7321,3.8145 -3.1536,1.6192 -8.3036,0.8761 -11.0359,-1.5924 -0.7993,-0.7221 -1.0496,-0.7136 -0.9287,0.032 0.1048,0.6453 0,0.697 -0.7052,0.3345 -0.425,-0.2198 -0.4642,-0.309 -0.3874,-0.8812 0.062,-0.4651 -0.017,-0.834 -0.294,-1.3684 -0.7995,-1.5415 -0.5906,-5.1206 0.4221,-7.2338 1.2136,-2.5323 4.2706,-4.0677 8.1095,-4.0731 3.4087,0 4.9587,0.6332 7.3455,3.0239 1.2288,1.2307 1.4997,1.7105 1.9759,3.4988 0.4422,1.6609 0.3455,2.2193 -0.7697,4.4456 m -0.1249,22.5539 c -0.1417,-0.2022 -0.3278,-0.3676 -0.4136,-0.3676 -0.2729,0 -0.1692,0.4 0.2722,1.0496 0.5509,0.8107 0.4245,0.9133 -0.4753,0.386 -1.1881,-0.6963 -1.7051,-1.7812 -0.9436,-1.9803 0.6638,-0.1736 1.8178,0.4743 1.8178,1.0206 0,0.1891 -0.07,0.1597 -0.2575,-0.1083 m -4.0433,3.6023 c -0.182,0.182 -0.3309,0.517 -0.3309,0.7444 0,0.2573 -0.094,0.4135 -0.2481,0.4135 -0.2048,0 -0.2481,-0.3037 -0.2481,-1.7415 v -1.7415 l 0.5676,0.5422 c 0.6607,0.6313 0.7561,1.2863 0.2595,1.7829 m -2.6467,-0.6616 c -0.7719,0 -0.9925,-0.055 -0.9925,-0.2482 0,-0.1929 0.2206,-0.2481 0.9925,-0.2481 0.772,0 0.9925,0.055 0.9925,0.2481 0,0.193 -0.2205,0.2482 -0.9925,0.2482 m -1.593,0.6203 -0.1,0.3722 h -3.7853 -3.7852 v -1.4061 -1.406 h 3.7769 c 2.0774,0 3.8266,0.05 3.8873,0.1103 0.1369,0.1369 0.1413,1.8248 0.01,2.3296 m -6.0672,-3.2466 c -0.1501,0.2403 -0.3922,0.3104 -1.0714,0.3104 h -0.8775 l 0.1072,-0.6203 c 0.1824,-1.0558 1.4645,-1.8895 2.035,-1.3233 0.2319,0.2302 0.1265,1.1212 -0.1933,1.6332 m 0.022,5.6715 c -0.3387,0.2372 -0.4013,0.2136 -1.0715,-0.4041 -0.3915,-0.3609 -0.797,-0.6561 -0.9011,-0.6561 -0.1349,0 -0.1301,-0.072 0.016,-0.2482 0.3081,-0.3712 1.915,-0.3401 2.1372,0.041 0.2767,0.4751 0.2018,0.9988 -0.1811,1.267 m -2.411,-1.7629 c -0.1574,0.052 -0.2067,-0.3884 -0.2067,-1.8475 0,-1.0538 0.04,-1.9161 0.088,-1.9161 0.4132,0 0.5276,3.6281 0.1187,3.7636 m -0.041,-4.2598 c -0.1085,0 -0.1654,-3.391 -0.1654,-9.8422 0,-6.4512 0.057,-9.8423 0.1654,-9.8423 0.1084,0 0.1654,3.3911 0.1654,9.8423 0,6.4512 -0.057,9.8422 -0.1654,9.8422"
     id="gge5"
     stroke="none"
     layerid="4"
     sodipodi:nodetypes="cccccscccccccccccccccsccccccsccccscsccccscccccccccccsccscccccccccscccsccscscscssccccccssccscccsccccccccccccccscccccccccscccscccscsscccccsccscccscscccccscccccccccccccccccccccscccccccccscccccccccccccccsccccccsccccccccccccccccccscccccscscscccccccccccccccccssccscccccsscsscccccccccccccscccccccccsscccsccccccssccccccccccccccscccsccsssccccssscccccccscccsccccccsccccssccsssc" />
  <path
     style="fill:none;stroke:#000000;stroke-width:0.52084;stroke-linecap:butt;stroke-linejoin:miter;stroke-miterlimit:4;stroke-dasharray:none;stroke-opacity:1"
     d="m 4345.5567,3186.6934 c -0.6954,-0.04 -1.3858,0.069 -2.0648,0.1822 -0.1181,0.02 -0.2404,0.1008 -0.3643,0.1215 -0.099,0.016 -0.3035,-0.061 -0.3644,0.061 0,0.01 0.061,1.1729 0.061,1.3968"
     id="path938" />
  <path
     style="fill:none;stroke:#000000;stroke-width:0.52084;stroke-linecap:butt;stroke-linejoin:miter;stroke-miterlimit:4;stroke-dasharray:none;stroke-opacity:1"
     d="m 4341.2449,3186.5113 c -0.401,0.024 -0.8209,-0.057 -1.2146,0.061 -0.4671,0.1401 -0.8914,0.7874 -0.7287,1.2753 0.1387,0.416 1.0599,0.276 1.336,0.3036 0.2044,0.02 0.3459,0.061 0.5466,0.061"
     id="path940" />
  <path
     style="fill:none;stroke:#000000;stroke-width:0.547748;stroke-linecap:butt;stroke-linejoin:miter;stroke-miterlimit:4;stroke-dasharray:none;stroke-opacity:1"
     d="m 4338.0159,3186.5794 c -1.1988,0 0.4795,-0.018 -0.9717,0.068 -0.3768,0.022 -0.937,-0.1199 -1.2753,0.067 -0.05,0.028 -0.2044,-0.042 -0.2429,0 -0.022,0.024 0.086,0.219 0.1215,0.3358 0.1329,0.441 0.1822,0.9455 0.1822,1.4104"
     id="path942" />
  <path
     style="fill:none;stroke:#000000;stroke-width:0.52084;stroke-linecap:butt;stroke-linejoin:miter;stroke-miterlimit:4;stroke-dasharray:none;stroke-opacity:1"
     d="m 4333.6179,3186.538 c 0.087,0.3054 0.028,0.5986 0,0.9017 -0.01,0.07 -0.062,1.0069 -0.1288,1.0736 -0.092,0.092 -0.313,-0.3937 -0.3436,-0.4294 -0.047,-0.054 -0.1252,-0.075 -0.1717,-0.1289 -0.042,-0.049 -0.049,-0.1196 -0.086,-0.1717 -0.1681,-0.2353 -0.4279,-0.413 -0.6012,-0.6441 -0.091,-0.1215 -0.255,-0.19 -0.3436,-0.3006 -0.044,-0.055 -0.2314,-0.4295 -0.2576,-0.4295 -0.023,0 0.028,0.2161 0,0.3436 -0.017,0.075 -0.066,0.1403 -0.086,0.2147 -0.1067,0.3913 -0.086,0.8017 -0.086,1.2024 0,0.043 0,0.5381 0,0.3005"
     id="path873" />
</svg>
