999
"DXF R12 Output" (www.mydxf.blogspot.com)
 0 
SECTION
 2 
HEADER
 9 
$ACADVER
 1 
AC1009
 9 
$EXTMIN
 10 
 0 
 20 
 0 
 9 
$EXTMAX
 10 
 8.5 
 20 
 11 
 0 
ENDSEC
 0 
SECTION
 2 
ENTITIES
0
LINE
8
Layer 1
10
1232.400000
20
-886.778000
11
1232.027308
21
-886.620668
0
LINE
8
Layer 1
10
1232.027308
20
-886.620668
11
1231.789300
21
-886.769533
0
LINE
8
Layer 1
10
1231.789300
20
-886.769533
11
1231.650221
21
-886.688169
0
LINE
8
Layer 1
10
1231.650221
20
-886.688169
11
1231.539957
21
-886.560153
0
LINE
8
Layer 1
10
1231.539957
20
-886.560153
11
1231.424274
21
-886.668667
0
LINE
8
Layer 1
10
1231.424274
20
-886.668667
11
1231.210293
21
-886.715798
0
LINE
8
Layer 1
10
1231.210293
20
-886.715798
11
1231.165910
21
-886.494526
0
LINE
8
Layer 1
10
1231.165910
20
-886.494526
11
1231.612657
21
-885.699238
0
LINE
8
Layer 1
10
1231.612657
20
-885.699238
11
1231.746532
21
-885.429030
0
LINE
8
Layer 1
10
1231.746532
20
-885.429030
11
1231.697613
21
-885.283969
0
LINE
8
Layer 1
10
1231.697613
20
-885.283969
11
1230.830197
21
-885.239244
0
LINE
8
Layer 1
10
1230.830197
20
-885.239244
11
1230.230560
21
-885.260975
0
LINE
8
Layer 1
10
1230.230560
20
-885.260975
11
1230.301736
21
-885.123335
0
LINE
8
Layer 1
10
1230.301736
20
-885.123335
11
1230.456253
21
-884.534856
0
LINE
8
Layer 1
10
1230.456253
20
-884.534856
11
1229.925732
21
-884.721564
0
LINE
8
Layer 1
10
1229.925732
20
-884.721564
11
1229.635439
21
-884.855312
0
LINE
8
Layer 1
10
1229.635439
20
-884.855312
11
1229.507959
21
-884.506144
0
LINE
8
Layer 1
10
1229.507959
20
-884.506144
11
1229.120948
21
-883.653664
0
LINE
8
Layer 1
10
1229.120948
20
-883.653664
11
1228.759676
21
-884.095341
0
LINE
8
Layer 1
10
1228.759676
20
-884.095341
11
1228.258605
21
-884.731307
0
LINE
8
Layer 1
10
1228.258605
20
-884.731307
11
1227.916622
21
-884.411006
0
LINE
8
Layer 1
10
1227.916622
20
-884.411006
11
1227.058328
21
-883.527030
0
LINE
8
Layer 1
10
1227.058328
20
-883.527030
11
1226.819117
21
-884.109310
0
LINE
8
Layer 1
10
1226.819117
20
-884.109310
11
1226.586227
21
-884.709004
0
LINE
8
Layer 1
10
1226.586227
20
-884.709004
11
1226.065753
21
-884.310535
0
LINE
8
Layer 1
10
1226.065753
20
-884.310535
11
1225.482418
21
-883.821550
0
LINE
8
Layer 1
10
1225.482418
20
-883.821550
11
1225.227102
21
-883.786759
0
LINE
8
Layer 1
10
1225.227102
20
-883.786759
11
1225.038945
21
-884.261033
0
LINE
8
Layer 1
10
1225.038945
20
-884.261033
11
1224.857720
21
-884.638082
0
LINE
8
Layer 1
10
1224.857720
20
-884.638082
11
1224.583298
21
-884.552343
0
LINE
8
Layer 1
10
1224.583298
20
-884.552343
11
1224.345875
21
-884.469408
0
LINE
8
Layer 1
10
1224.345875
20
-884.469408
11
1224.314594
21
-884.633425
0
LINE
8
Layer 1
10
1224.314594
20
-884.633425
11
1224.284284
21
-884.747245
0
LINE
8
Layer 1
10
1224.284284
20
-884.747245
11
1223.444645
21
-884.483904
0
LINE
8
Layer 1
10
1223.444645
20
-884.483904
11
1223.230000
21
-884.484000
0
LINE
8
Layer 1
10
1223.230000
20
-884.484000
11
1223.447678
21
-885.185914
0
LINE
8
Layer 1
10
1223.447678
20
-885.185914
11
1223.289662
21
-885.324287
0
LINE
8
Layer 1
10
1223.289662
20
-885.324287
11
1223.070000
21
-885.325000
0
LINE
8
Layer 1
10
1223.070000
20
-885.325000
11
1222.862260
21
-885.371203
0
LINE
8
Layer 1
10
1222.862260
20
-885.371203
11
1222.948249
21
-885.537146
0
LINE
8
Layer 1
10
1222.948249
20
-885.537146
11
1223.043527
21
-885.638577
0
LINE
8
Layer 1
10
1223.043527
20
-885.638577
11
1222.831522
21
-885.697957
0
LINE
8
Layer 1
10
1222.831522
20
-885.697957
11
1222.631134
21
-885.799263
0
LINE
8
Layer 1
10
1222.631134
20
-885.799263
11
1222.712876
21
-885.921082
0
LINE
8
Layer 1
10
1222.712876
20
-885.921082
11
1222.795782
21
-886.019856
0
LINE
8
Layer 1
10
1222.795782
20
-886.019856
11
1222.607861
21
-886.051384
0
LINE
8
Layer 1
10
1222.607861
20
-886.051384
11
1222.337069
21
-886.086577
0
LINE
8
Layer 1
10
1222.337069
20
-886.086577
11
1222.213654
21
-886.069409
0
LINE
8
Layer 1
10
1222.213654
20
-886.069409
11
1222.143920
21
-885.764385
0
LINE
8
Layer 1
10
1222.143920
20
-885.764385
11
1222.105986
21
-883.667537
0
LINE
8
Layer 1
10
1222.105986
20
-883.667537
11
1222.110000
21
-881.546000
0
LINE
8
Layer 1
10
1222.110000
20
-881.546000
11
1222.285062
21
-881.556160
0
LINE
8
Layer 1
10
1222.285062
20
-881.556160
11
1222.453661
21
-881.484730
0
LINE
8
Layer 1
10
1222.453661
20
-881.484730
11
1222.497786
21
-881.421639
0
LINE
8
Layer 1
10
1222.497786
20
-881.421639
11
1222.938152
21
-881.654712
0
LINE
8
Layer 1
10
1222.938152
20
-881.654712
11
1223.652040
21
-881.980671
0
LINE
8
Layer 1
10
1223.652040
20
-881.980671
11
1224.514222
21
-882.033285
0
LINE
8
Layer 1
10
1224.514222
20
-882.033285
11
1225.260000
21
-882.033000
0
LINE
8
Layer 1
10
1225.260000
20
-882.033000
11
1225.563445
21
-881.879499
0
LINE
8
Layer 1
10
1225.563445
20
-881.879499
11
1226.352301
21
-881.382774
0
LINE
8
Layer 1
10
1226.352301
20
-881.382774
11
1226.842895
21
-880.632469
0
LINE
8
Layer 1
10
1226.842895
20
-880.632469
11
1227.129661
21
-879.844050
0
LINE
8
Layer 1
10
1227.129661
20
-879.844050
11
1226.908258
21
-878.842249
0
LINE
8
Layer 1
10
1226.908258
20
-878.842249
11
1226.398138
21
-878.201375
0
LINE
8
Layer 1
10
1226.398138
20
-878.201375
11
1225.583958
21
-877.605689
0
LINE
8
Layer 1
10
1225.583958
20
-877.605689
11
1224.577916
21
-877.346090
0
LINE
8
Layer 1
10
1224.577916
20
-877.346090
11
1223.502379
21
-877.433258
0
LINE
8
Layer 1
10
1223.502379
20
-877.433258
11
1222.552731
21
-877.821343
0
LINE
8
Layer 1
10
1222.552731
20
-877.821343
11
1221.924358
21
-878.464491
0
LINE
8
Layer 1
10
1221.924358
20
-878.464491
11
1221.601601
21
-879.624488
0
LINE
8
Layer 1
10
1221.601601
20
-879.624488
11
1221.706116
21
-880.679371
0
LINE
8
Layer 1
10
1221.706116
20
-880.679371
11
1221.779211
21
-881.131378
0
LINE
8
Layer 1
10
1221.779211
20
-881.131378
11
1221.803200
21
-888.309778
0
LINE
8
Layer 1
10
1221.803200
20
-888.309778
11
1221.803200
21
-888.472620
0
LINE
8
Layer 1
10
1221.803200
20
-888.472620
11
1221.785138
21
-889.388769
0
LINE
8
Layer 1
10
1221.785138
20
-889.388769
11
1222.049157
21
-889.454379
0
LINE
8
Layer 1
10
1222.049157
20
-889.454379
11
1222.250353
21
-889.269079
0
LINE
8
Layer 1
10
1222.250353
20
-889.269079
11
1222.297230
21
-889.175494
0
LINE
8
Layer 1
10
1222.297230
20
-889.175494
11
1222.711729
21
-889.405985
0
LINE
8
Layer 1
10
1222.711729
20
-889.405985
11
1222.802463
21
-889.572440
0
LINE
8
Layer 1
10
1222.802463
20
-889.572440
11
1222.867205
21
-889.712479
0
LINE
8
Layer 1
10
1222.867205
20
-889.712479
11
1222.886960
21
-889.853251
0
LINE
8
Layer 1
10
1222.886960
20
-889.853251
11
1223.008080
21
-889.915037
0
LINE
8
Layer 1
10
1223.008080
20
-889.915037
11
1222.954214
21
-890.090825
0
LINE
8
Layer 1
10
1222.954214
20
-890.090825
11
1222.874479
21
-890.386940
0
LINE
8
Layer 1
10
1222.874479
20
-890.386940
11
1223.306850
21
-890.295408
0
LINE
8
Layer 1
10
1223.306850
20
-890.295408
11
1223.619347
21
-890.211511
0
LINE
8
Layer 1
10
1223.619347
20
-890.211511
11
1223.563587
21
-890.487827
0
LINE
8
Layer 1
10
1223.563587
20
-890.487827
11
1223.493991
21
-890.796775
0
LINE
8
Layer 1
10
1223.493991
20
-890.796775
11
1224.298013
21
-890.685551
0
LINE
8
Layer 1
10
1224.298013
20
-890.685551
11
1224.683511
21
-890.622323
0
LINE
8
Layer 1
10
1224.683511
20
-890.622323
11
1224.656237
21
-890.812777
0
LINE
8
Layer 1
10
1224.656237
20
-890.812777
11
1224.645738
21
-891.034992
0
LINE
8
Layer 1
10
1224.645738
20
-891.034992
11
1225.018779
21
-890.908930
0
LINE
8
Layer 1
10
1225.018779
20
-890.908930
11
1225.398396
21
-890.739512
0
LINE
8
Layer 1
10
1225.398396
20
-890.739512
11
1225.420974
21
-891.169139
0
LINE
8
Layer 1
10
1225.420974
20
-891.169139
11
1225.455969
21
-891.613554
0
LINE
8
Layer 1
10
1225.455969
20
-891.613554
11
1225.982877
21
-891.417381
0
LINE
8
Layer 1
10
1225.982877
20
-891.417381
11
1226.496436
21
-891.206364
0
LINE
8
Layer 1
10
1226.496436
20
-891.206364
11
1226.667999
21
-891.929953
0
LINE
8
Layer 1
10
1226.667999
20
-891.929953
11
1226.801875
21
-892.294217
0
LINE
8
Layer 1
10
1226.801875
20
-892.294217
11
1227.228379
21
-891.996050
0
LINE
8
Layer 1
10
1227.228379
20
-891.996050
11
1228.110972
21
-891.393111
0
LINE
8
Layer 1
10
1228.110972
20
-891.393111
11
1228.251801
21
-891.521466
0
LINE
8
Layer 1
10
1228.251801
20
-891.521466
11
1228.770243
21
-892.000002
0
LINE
8
Layer 1
10
1228.770243
20
-892.000002
11
1229.007902
21
-891.731552
0
LINE
8
Layer 1
10
1229.007902
20
-891.731552
11
1229.542346
21
-891.019619
0
LINE
8
Layer 1
10
1229.542346
20
-891.019619
11
1230.135351
21
-891.253045
0
LINE
8
Layer 1
10
1230.135351
20
-891.253045
11
1230.829917
21
-891.467103
0
LINE
8
Layer 1
10
1230.829917
20
-891.467103
11
1230.807717
21
-890.818197
0
LINE
8
Layer 1
10
1230.807717
20
-890.818197
11
1230.773180
21
-890.305251
0
LINE
8
Layer 1
10
1230.773180
20
-890.305251
11
1231.049158
21
-890.250141
0
LINE
8
Layer 1
10
1231.049158
20
-890.250141
11
1231.941459
21
-890.254938
0
LINE
8
Layer 1
10
1231.941459
20
-890.254938
11
1231.648908
21
-889.565921
0
LINE
8
Layer 1
10
1231.648908
20
-889.565921
11
1231.314672
21
-888.905324
0
LINE
8
Layer 1
10
1231.314672
20
-888.905324
11
1231.594269
21
-888.892342
0
LINE
8
Layer 1
10
1231.594269
20
-888.892342
11
1232.652829
21
-888.900809
0
LINE
8
Layer 1
10
1232.652829
20
-888.900809
11
1231.580219
21
-887.751709
0
LINE
8
Layer 1
10
1231.580219
20
-887.751709
11
1231.369463
21
-887.570282
0
LINE
8
Layer 1
10
1231.369463
20
-887.570282
11
1231.430190
21
-887.518311
0
LINE
8
Layer 1
10
1231.430190
20
-887.518311
11
1231.566785
21
-887.436608
0
LINE
8
Layer 1
10
1231.566785
20
-887.436608
11
1231.769703
21
-887.439430
0
LINE
8
Layer 1
10
1231.769703
20
-887.439430
11
1231.912592
21
-887.523391
0
LINE
8
Layer 1
10
1231.912592
20
-887.523391
11
1232.064456
21
-887.307943
0
LINE
8
Layer 1
10
1232.064456
20
-887.307943
11
1232.370554
21
-887.121451
0
LINE
8
Layer 1
10
1232.370554
20
-887.121451
11
1232.690122
21
-887.079273
0
LINE
8
Layer 1
10
1232.690122
20
-887.079273
11
1232.408259
21
-886.779624
0
LINE
8
Layer 1
10
1231.999009
20
-887.149363
11
1231.720033
21
-887.243286
0
LINE
8
Layer 1
10
1231.720033
20
-887.243286
11
1231.494848
21
-887.281753
0
LINE
8
Layer 1
10
1231.494848
20
-887.281753
11
1231.217226
21
-887.388038
0
LINE
8
Layer 1
10
1231.217226
20
-887.388038
11
1231.009952
21
-887.476793
0
LINE
8
Layer 1
10
1231.009952
20
-887.476793
11
1231.315863
21
-887.744343
0
LINE
8
Layer 1
10
1231.315863
20
-887.744343
11
1232.029094
21
-888.385608
0
LINE
8
Layer 1
10
1232.029094
20
-888.385608
11
1232.401091
21
-888.794773
0
LINE
8
Layer 1
10
1232.401091
20
-888.794773
11
1231.842348
21
-888.763616
0
LINE
8
Layer 1
10
1231.842348
20
-888.763616
11
1231.179155
21
-888.703898
0
LINE
8
Layer 1
10
1231.179155
20
-888.703898
11
1231.045992
21
-888.750817
0
LINE
8
Layer 1
10
1231.045992
20
-888.750817
11
1231.120537
21
-888.928631
0
LINE
8
Layer 1
10
1231.120537
20
-888.928631
11
1231.499025
21
-889.585841
0
LINE
8
Layer 1
10
1231.499025
20
-889.585841
11
1231.775744
21
-890.135581
0
LINE
8
Layer 1
10
1231.775744
20
-890.135581
11
1231.195157
21
-890.122598
0
LINE
8
Layer 1
10
1231.195157
20
-890.122598
11
1230.593431
21
-890.133041
0
LINE
8
Layer 1
10
1230.593431
20
-890.133041
11
1230.650666
21
-890.728275
0
LINE
8
Layer 1
10
1230.650666
20
-890.728275
11
1230.666551
21
-891.266398
0
LINE
8
Layer 1
10
1230.666551
20
-891.266398
11
1230.074425
21
-891.066716
0
LINE
8
Layer 1
10
1230.074425
20
-891.066716
11
1229.495475
21
-890.833318
0
LINE
8
Layer 1
10
1229.495475
20
-890.833318
11
1229.181644
21
-891.235061
0
LINE
8
Layer 1
10
1229.181644
20
-891.235061
11
1228.824718
21
-891.736908
0
LINE
8
Layer 1
10
1228.824718
20
-891.736908
11
1228.746655
21
-891.837012
0
LINE
8
Layer 1
10
1228.746655
20
-891.837012
11
1228.603851
21
-891.700755
0
LINE
8
Layer 1
10
1228.603851
20
-891.700755
11
1228.197959
21
-891.169416
0
LINE
8
Layer 1
10
1228.197959
20
-891.169416
11
1227.143859
21
-891.868819
0
LINE
8
Layer 1
10
1227.143859
20
-891.868819
11
1226.886272
21
-892.077419
0
LINE
8
Layer 1
10
1226.886272
20
-892.077419
11
1226.805955
21
-891.848781
0
LINE
8
Layer 1
10
1226.805955
20
-891.848781
11
1226.569651
21
-891.037421
0
LINE
8
Layer 1
10
1226.569651
20
-891.037421
11
1226.105509
21
-891.205117
0
LINE
8
Layer 1
10
1226.105509
20
-891.205117
11
1225.624353
21
-891.373515
0
LINE
8
Layer 1
10
1225.624353
20
-891.373515
11
1225.564856
21
-890.973441
0
LINE
8
Layer 1
10
1225.564856
20
-890.973441
11
1225.507749
21
-890.567673
0
LINE
8
Layer 1
10
1225.507749
20
-890.567673
11
1225.122388
21
-890.691558
0
LINE
8
Layer 1
10
1225.122388
20
-890.691558
11
1224.839503
21
-890.798605
0
LINE
8
Layer 1
10
1224.839503
20
-890.798605
11
1224.881568
21
-890.616938
0
LINE
8
Layer 1
10
1224.881568
20
-890.616938
11
1224.913830
21
-890.428890
0
LINE
8
Layer 1
10
1224.913830
20
-890.428890
11
1224.549957
21
-890.481359
0
LINE
8
Layer 1
10
1224.549957
20
-890.481359
11
1223.713423
21
-890.631473
0
LINE
8
Layer 1
10
1223.713423
20
-890.631473
11
1223.764901
21
-890.329975
0
LINE
8
Layer 1
10
1223.764901
20
-890.329975
11
1223.799430
21
-889.952874
0
LINE
8
Layer 1
10
1223.799430
20
-889.952874
11
1223.444494
21
-890.063303
0
LINE
8
Layer 1
10
1223.444494
20
-890.063303
11
1223.143176
21
-890.177727
0
LINE
8
Layer 1
10
1223.143176
20
-890.177727
11
1223.181774
21
-890.009681
0
LINE
8
Layer 1
10
1223.181774
20
-890.009681
11
1223.255399
21
-889.789756
0
LINE
8
Layer 1
10
1223.255399
20
-889.789756
11
1223.139920
21
-889.712981
0
LINE
8
Layer 1
10
1223.139920
20
-889.712981
11
1223.074275
21
-889.572942
0
LINE
8
Layer 1
10
1223.074275
20
-889.572942
11
1222.979731
21
-889.432875
0
LINE
8
Layer 1
10
1222.979731
20
-889.432875
11
1222.857190
21
-889.339516
0
LINE
8
Layer 1
10
1222.857190
20
-889.339516
11
1222.942361
21
-889.251195
0
LINE
8
Layer 1
10
1222.942361
20
-889.251195
11
1223.177794
21
-889.381313
0
LINE
8
Layer 1
10
1223.177794
20
-889.381313
11
1224.355276
21
-889.808834
0
LINE
8
Layer 1
10
1224.355276
20
-889.808834
11
1226.226324
21
-889.933311
0
LINE
8
Layer 1
10
1226.226324
20
-889.933311
11
1227.191241
21
-889.909887
0
LINE
8
Layer 1
10
1227.191241
20
-889.909887
11
1227.217488
21
-890.013886
0
LINE
8
Layer 1
10
1227.217488
20
-890.013886
11
1227.504426
21
-890.386352
0
LINE
8
Layer 1
10
1227.504426
20
-890.386352
11
1228.037428
21
-890.585019
0
LINE
8
Layer 1
10
1228.037428
20
-890.585019
11
1228.243922
21
-890.586144
0
LINE
8
Layer 1
10
1228.243922
20
-890.586144
11
1228.343357
21
-890.441622
0
LINE
8
Layer 1
10
1228.343357
20
-890.441622
11
1228.464088
21
-890.257952
0
LINE
8
Layer 1
10
1228.464088
20
-890.257952
11
1228.600800
21
-890.344537
0
LINE
8
Layer 1
10
1228.600800
20
-890.344537
11
1228.867591
21
-890.458728
0
LINE
8
Layer 1
10
1228.867591
20
-890.458728
11
1229.189120
21
-890.255863
0
LINE
8
Layer 1
10
1229.189120
20
-890.255863
11
1229.393054
21
-889.925833
0
LINE
8
Layer 1
10
1229.393054
20
-889.925833
11
1229.013663
21
-889.331530
0
LINE
8
Layer 1
10
1229.013663
20
-889.331530
11
1228.908168
21
-889.261511
0
LINE
8
Layer 1
10
1228.908168
20
-889.261511
11
1229.009457
21
-889.152771
0
LINE
8
Layer 1
10
1229.009457
20
-889.152771
11
1229.195102
21
-888.659937
0
LINE
8
Layer 1
10
1229.195102
20
-888.659937
11
1229.014819
21
-888.047191
0
LINE
8
Layer 1
10
1229.014819
20
-888.047191
11
1228.949146
21
-887.705956
0
LINE
8
Layer 1
10
1228.949146
20
-887.705956
11
1229.141695
21
-887.201992
0
LINE
8
Layer 1
10
1229.141695
20
-887.201992
11
1229.093982
21
-886.682536
0
LINE
8
Layer 1
10
1229.093982
20
-886.682536
11
1229.207492
21
-886.402431
0
LINE
8
Layer 1
10
1229.207492
20
-886.402431
11
1229.464785
21
-885.995950
0
LINE
8
Layer 1
10
1229.464785
20
-885.995950
11
1229.408151
21
-885.615675
0
LINE
8
Layer 1
10
1229.408151
20
-885.615675
11
1229.065768
21
-885.310051
0
LINE
8
Layer 1
10
1229.065768
20
-885.310051
11
1228.465813
21
-885.127521
0
LINE
8
Layer 1
10
1228.465813
20
-885.127521
11
1227.948877
21
-885.147795
0
LINE
8
Layer 1
10
1227.948877
20
-885.147795
11
1227.620135
21
-885.433986
0
LINE
8
Layer 1
10
1227.620135
20
-885.433986
11
1227.447796
21
-885.589071
0
LINE
8
Layer 1
10
1227.447796
20
-885.589071
11
1226.778803
21
-885.481032
0
LINE
8
Layer 1
10
1226.778803
20
-885.481032
11
1225.518343
21
-885.409743
0
LINE
8
Layer 1
10
1225.518343
20
-885.409743
11
1224.128781
21
-885.546233
0
LINE
8
Layer 1
10
1224.128781
20
-885.546233
11
1223.274143
21
-885.980960
0
LINE
8
Layer 1
10
1223.274143
20
-885.980960
11
1223.046672
21
-886.171403
0
LINE
8
Layer 1
10
1223.046672
20
-886.171403
11
1222.951394
21
-886.016435
0
LINE
8
Layer 1
10
1222.951394
20
-886.016435
11
1222.856116
21
-885.861439
0
LINE
8
Layer 1
10
1222.856116
20
-885.861439
11
1223.020115
21
-885.796754
0
LINE
8
Layer 1
10
1223.020115
20
-885.796754
11
1223.178589
21
-885.663954
0
LINE
8
Layer 1
10
1223.178589
20
-885.663954
11
1223.125779
21
-885.525736
0
LINE
8
Layer 1
10
1223.125779
20
-885.525736
11
1223.254162
21
-885.464635
0
LINE
8
Layer 1
10
1223.254162
20
-885.464635
11
1223.504521
21
-885.374549
0
LINE
8
Layer 1
10
1223.504521
20
-885.374549
11
1223.559243
21
-885.283984
0
LINE
8
Layer 1
10
1223.559243
20
-885.283984
11
1223.474661
21
-884.857942
0
LINE
8
Layer 1
10
1223.474661
20
-884.857942
11
1223.384774
21
-884.613651
0
LINE
8
Layer 1
10
1223.384774
20
-884.613651
11
1223.564126
21
-884.641591
0
LINE
8
Layer 1
10
1223.564126
20
-884.641591
11
1224.106387
21
-884.837764
0
LINE
8
Layer 1
10
1224.106387
20
-884.837764
11
1224.456670
21
-884.971626
0
LINE
8
Layer 1
10
1224.456670
20
-884.971626
11
1224.501667
21
-884.813493
0
LINE
8
Layer 1
10
1224.501667
20
-884.813493
11
1224.480782
21
-884.671789
0
LINE
8
Layer 1
10
1224.480782
20
-884.671789
11
1224.720530
21
-884.771442
0
LINE
8
Layer 1
10
1224.720530
20
-884.771442
11
1224.974378
21
-884.827661
0
LINE
8
Layer 1
10
1224.974378
20
-884.827661
11
1225.157889
21
-884.392305
0
LINE
8
Layer 1
10
1225.157889
20
-884.392305
11
1225.365492
21
-883.936065
0
LINE
8
Layer 1
10
1225.365492
20
-883.936065
11
1225.986973
21
-884.435429
0
LINE
8
Layer 1
10
1225.986973
20
-884.435429
11
1226.540449
21
-884.897426
0
LINE
8
Layer 1
10
1226.540449
20
-884.897426
11
1226.706808
21
-884.892742
0
LINE
8
Layer 1
10
1226.706808
20
-884.892742
11
1227.174930
21
-883.752372
0
LINE
8
Layer 1
10
1227.174930
20
-883.752372
11
1227.630549
21
-884.277756
0
LINE
8
Layer 1
10
1227.630549
20
-884.277756
11
1228.242163
21
-884.902225
0
LINE
8
Layer 1
10
1228.242163
20
-884.902225
11
1228.447053
21
-884.776218
0
LINE
8
Layer 1
10
1228.447053
20
-884.776218
11
1228.743099
21
-884.371397
0
LINE
8
Layer 1
10
1228.743099
20
-884.371397
11
1229.121276
21
-883.878553
0
LINE
8
Layer 1
10
1229.121276
20
-883.878553
11
1229.396979
21
-884.622236
0
LINE
8
Layer 1
10
1229.396979
20
-884.622236
11
1229.534421
21
-884.988673
0
LINE
8
Layer 1
10
1229.534421
20
-884.988673
11
1229.625297
21
-885.138110
0
LINE
8
Layer 1
10
1229.625297
20
-885.138110
11
1229.842185
21
-884.972559
0
LINE
8
Layer 1
10
1229.842185
20
-884.972559
11
1230.288410
21
-884.704043
0
LINE
8
Layer 1
10
1230.288410
20
-884.704043
11
1230.156891
21
-885.097301
0
LINE
8
Layer 1
10
1230.156891
20
-885.097301
11
1230.005168
21
-885.436221
0
LINE
8
Layer 1
10
1230.005168
20
-885.436221
11
1230.786443
21
-885.423239
0
LINE
8
Layer 1
10
1230.786443
20
-885.423239
11
1231.507252
21
-885.425966
0
LINE
8
Layer 1
10
1231.507252
20
-885.425966
11
1231.500521
21
-885.617605
0
LINE
8
Layer 1
10
1231.500521
20
-885.617605
11
1231.192109
21
-886.151315
0
LINE
8
Layer 1
10
1231.192109
20
-886.151315
11
1230.932211
21
-886.562569
0
LINE
8
Layer 1
10
1230.932211
20
-886.562569
11
1231.101855
21
-886.821762
0
LINE
8
Layer 1
10
1231.101855
20
-886.821762
11
1231.316739
21
-886.969618
0
LINE
8
Layer 1
10
1231.316739
20
-886.969618
11
1231.415065
21
-886.871292
0
LINE
8
Layer 1
10
1231.415065
20
-886.871292
11
1231.513363
21
-886.772994
0
LINE
8
Layer 1
10
1231.513363
20
-886.772994
11
1231.644850
21
-886.898978
0
LINE
8
Layer 1
10
1231.644850
20
-886.898978
11
1231.776365
21
-887.024962
0
LINE
8
Layer 1
10
1231.776365
20
-887.024962
11
1231.893741
21
-886.898357
0
LINE
8
Layer 1
10
1231.893741
20
-886.898357
11
1232.071505
21
-886.778553
0
LINE
8
Layer 1
10
1232.071505
20
-886.778553
11
1232.272342
21
-886.851452
0
LINE
8
Layer 1
10
1232.272342
20
-886.851452
11
1232.393980
21
-886.931151
0
LINE
8
Layer 1
10
1232.393980
20
-886.931151
11
1232.259021
21
-886.966372
0
LINE
8
Layer 1
10
1232.259021
20
-886.966372
11
1231.999151
21
-887.149195
0
LINE
8
Layer 1
10
1229.274581
20
-886.059625
11
1229.116417
21
-886.319693
0
LINE
8
Layer 1
10
1229.116417
20
-886.319693
11
1228.896488
21
-886.425921
0
LINE
8
Layer 1
10
1228.896488
20
-886.425921
11
1228.745136
21
-886.511322
0
LINE
8
Layer 1
10
1228.745136
20
-886.511322
11
1228.825791
21
-886.606120
0
LINE
8
Layer 1
10
1228.825791
20
-886.606120
11
1228.970841
21
-886.766954
0
LINE
8
Layer 1
10
1228.970841
20
-886.766954
11
1229.014559
21
-887.058399
0
LINE
8
Layer 1
10
1229.014559
20
-887.058399
11
1228.805753
21
-887.634820
0
LINE
8
Layer 1
10
1228.805753
20
-887.634820
11
1228.698985
21
-887.791090
0
LINE
8
Layer 1
10
1228.698985
20
-887.791090
11
1228.785998
21
-887.949498
0
LINE
8
Layer 1
10
1228.785998
20
-887.949498
11
1228.985483
21
-888.276497
0
LINE
8
Layer 1
10
1228.985483
20
-888.276497
11
1229.042534
21
-888.633478
0
LINE
8
Layer 1
10
1229.042534
20
-888.633478
11
1228.959500
21
-888.958687
0
LINE
8
Layer 1
10
1228.959500
20
-888.958687
11
1228.738726
21
-889.190368
0
LINE
8
Layer 1
10
1228.738726
20
-889.190368
11
1228.610110
21
-889.322942
0
LINE
8
Layer 1
10
1228.610110
20
-889.322942
11
1228.808604
21
-889.422665
0
LINE
8
Layer 1
10
1228.808604
20
-889.422665
11
1229.135389
21
-889.664840
0
LINE
8
Layer 1
10
1229.135389
20
-889.664840
11
1229.245078
21
-889.921782
0
LINE
8
Layer 1
10
1229.245078
20
-889.921782
11
1229.124665
21
-890.130591
0
LINE
8
Layer 1
10
1229.124665
20
-890.130591
11
1228.847671
21
-890.305703
0
LINE
8
Layer 1
10
1228.847671
20
-890.305703
11
1228.613815
21
-890.139058
0
LINE
8
Layer 1
10
1228.613815
20
-890.139058
11
1228.442308
21
-889.959064
0
LINE
8
Layer 1
10
1228.442308
20
-889.959064
11
1228.366052
21
-890.001447
0
LINE
8
Layer 1
10
1228.366052
20
-890.001447
11
1228.251917
21
-890.298020
0
LINE
8
Layer 1
10
1228.251917
20
-890.298020
11
1228.046831
21
-890.432964
0
LINE
8
Layer 1
10
1228.046831
20
-890.432964
11
1227.531229
21
-890.235257
0
LINE
8
Layer 1
10
1227.531229
20
-890.235257
11
1227.363882
21
-889.910825
0
LINE
8
Layer 1
10
1227.363882
20
-889.910825
11
1227.357108
21
-889.736073
0
LINE
8
Layer 1
10
1227.357108
20
-889.736073
11
1227.032948
21
-889.759498
0
LINE
8
Layer 1
10
1227.032948
20
-889.759498
11
1225.585984
21
-889.783068
0
LINE
8
Layer 1
10
1225.585984
20
-889.783068
11
1224.362817
21
-889.651770
0
LINE
8
Layer 1
10
1224.362817
20
-889.651770
11
1223.493303
21
-889.389996
0
LINE
8
Layer 1
10
1223.493303
20
-889.389996
11
1223.107298
21
-889.022137
0
LINE
8
Layer 1
10
1223.107298
20
-889.022137
11
1223.010860
21
-888.868879
0
LINE
8
Layer 1
10
1223.010860
20
-888.868879
11
1222.832696
21
-889.000970
0
LINE
8
Layer 1
10
1222.832696
20
-889.000970
11
1222.686759
21
-889.169767
0
LINE
8
Layer 1
10
1222.686759
20
-889.169767
11
1222.464481
21
-889.045533
0
LINE
8
Layer 1
10
1222.464481
20
-889.045533
11
1222.242203
21
-888.921271
0
LINE
8
Layer 1
10
1222.242203
20
-888.921271
11
1222.170265
21
-889.104348
0
LINE
8
Layer 1
10
1222.170265
20
-889.104348
11
1221.962973
21
-889.334352
0
LINE
8
Layer 1
10
1221.962973
20
-889.334352
11
1221.886575
21
-888.892061
0
LINE
8
Layer 1
10
1221.886575
20
-888.892061
11
1221.962810
21
-888.519493
0
LINE
8
Layer 1
10
1221.962810
20
-888.519493
11
1222.243388
21
-888.684600
0
LINE
8
Layer 1
10
1222.243388
20
-888.684600
11
1222.475699
21
-888.859888
0
LINE
8
Layer 1
10
1222.475699
20
-888.859888
11
1222.677022
21
-888.791421
0
LINE
8
Layer 1
10
1222.677022
20
-888.791421
11
1222.831807
21
-888.618115
0
LINE
8
Layer 1
10
1222.831807
20
-888.618115
11
1222.840880
21
-888.358492
0
LINE
8
Layer 1
10
1222.840880
20
-888.358492
11
1222.813504
21
-888.221276
0
LINE
8
Layer 1
10
1222.813504
20
-888.221276
11
1223.617413
21
-888.208576
0
LINE
8
Layer 1
10
1223.617413
20
-888.208576
11
1224.421322
21
-888.195876
0
LINE
8
Layer 1
10
1224.421322
20
-888.195876
11
1224.435998
21
-888.067493
0
LINE
8
Layer 1
10
1224.435998
20
-888.067493
11
1224.493211
21
-887.955634
0
LINE
8
Layer 1
10
1224.493211
20
-887.955634
11
1224.795492
21
-887.939110
0
LINE
8
Layer 1
10
1224.795492
20
-887.939110
11
1225.140000
21
-887.939000
0
LINE
8
Layer 1
10
1225.140000
20
-887.939000
11
1225.154111
21
-888.207450
0
LINE
8
Layer 1
10
1225.154111
20
-888.207450
11
1225.168222
21
-888.475871
0
LINE
8
Layer 1
10
1225.168222
20
-888.475871
11
1225.337725
21
-888.466275
0
LINE
8
Layer 1
10
1225.337725
20
-888.466275
11
1225.494740
21
-888.489030
0
LINE
8
Layer 1
10
1225.494740
20
-888.489030
11
1225.588423
21
-888.676333
0
LINE
8
Layer 1
10
1225.588423
20
-888.676333
11
1225.963835
21
-889.292875
0
LINE
8
Layer 1
10
1225.963835
20
-889.292875
11
1225.937871
21
-889.068621
0
LINE
8
Layer 1
10
1225.937871
20
-889.068621
11
1225.564999
21
-888.167599
0
LINE
8
Layer 1
10
1225.564999
20
-888.167599
11
1225.636172
21
-888.082022
0
LINE
8
Layer 1
10
1225.636172
20
-888.082022
11
1225.729252
21
-888.207477
0
LINE
8
Layer 1
10
1225.729252
20
-888.207477
11
1225.994569
21
-888.703736
0
LINE
8
Layer 1
10
1225.994569
20
-888.703736
11
1226.103655
21
-888.712595
0
LINE
8
Layer 1
10
1226.103655
20
-888.712595
11
1226.014324
21
-888.544309
0
LINE
8
Layer 1
10
1226.014324
20
-888.544309
11
1225.891529
21
-888.297252
0
LINE
8
Layer 1
10
1225.891529
20
-888.297252
11
1225.821482
21
-888.062076
0
LINE
8
Layer 1
10
1225.821482
20
-888.062076
11
1225.821482
21
-887.548686
0
LINE
8
Layer 1
10
1225.821482
20
-887.548686
11
1225.842084
21
-887.227969
0
LINE
8
Layer 1
10
1225.842084
20
-887.227969
11
1225.842084
21
-886.992370
0
LINE
8
Layer 1
10
1225.842084
20
-886.992370
11
1225.939514
21
-886.870895
0
LINE
8
Layer 1
10
1225.939514
20
-886.870895
11
1226.037156
21
-886.992370
0
LINE
8
Layer 1
10
1226.037156
20
-886.992370
11
1226.460122
21
-887.404527
0
LINE
8
Layer 1
10
1226.460122
20
-887.404527
11
1226.677405
21
-887.514706
0
LINE
8
Layer 1
10
1226.677405
20
-887.514706
11
1226.708083
21
-887.948001
0
LINE
8
Layer 1
10
1226.708083
20
-887.948001
11
1226.724169
21
-888.726539
0
LINE
8
Layer 1
10
1226.724169
20
-888.726539
11
1226.761140
21
-889.089956
0
LINE
8
Layer 1
10
1226.761140
20
-889.089956
11
1226.844001
21
-887.853116
0
LINE
8
Layer 1
10
1226.844001
20
-887.853116
11
1226.866296
21
-887.311673
0
LINE
8
Layer 1
10
1226.866296
20
-887.311673
11
1226.881720
21
-886.995835
0
LINE
8
Layer 1
10
1226.881720
20
-886.995835
11
1226.597169
21
-886.656269
0
LINE
8
Layer 1
10
1226.597169
20
-886.656269
11
1226.248074
21
-886.593869
0
LINE
8
Layer 1
10
1226.248074
20
-886.593869
11
1225.921812
21
-886.710022
0
LINE
8
Layer 1
10
1225.921812
20
-886.710022
11
1225.707543
21
-886.946556
0
LINE
8
Layer 1
10
1225.707543
20
-886.946556
11
1225.694425
21
-887.245295
0
LINE
8
Layer 1
10
1225.694425
20
-887.245295
11
1225.710205
21
-887.432532
0
LINE
8
Layer 1
10
1225.710205
20
-887.432532
11
1225.564716
21
-887.423744
0
LINE
8
Layer 1
10
1225.564716
20
-887.423744
11
1225.474869
21
-887.219864
0
LINE
8
Layer 1
10
1225.474869
20
-887.219864
11
1225.522760
21
-886.882361
0
LINE
8
Layer 1
10
1225.522760
20
-886.882361
11
1225.875414
21
-886.348194
0
LINE
8
Layer 1
10
1225.875414
20
-886.348194
11
1225.960843
21
-886.262032
0
LINE
8
Layer 1
10
1225.960843
20
-886.262032
11
1225.860174
21
-886.210498
0
LINE
8
Layer 1
10
1225.860174
20
-886.210498
11
1225.426427
21
-886.721517
0
LINE
8
Layer 1
10
1225.426427
20
-886.721517
11
1225.253227
21
-886.960869
0
LINE
8
Layer 1
10
1225.253227
20
-886.960869
11
1225.145475
21
-887.259742
0
LINE
8
Layer 1
10
1225.145475
20
-887.259742
11
1225.140000
21
-887.518000
0
LINE
8
Layer 1
10
1225.140000
20
-887.518000
11
1224.820000
21
-887.518000
0
LINE
8
Layer 1
10
1224.820000
20
-887.518000
11
1224.490000
21
-887.518000
0
LINE
8
Layer 1
10
1224.490000
20
-887.518000
11
1224.490000
21
-887.355000
0
LINE
8
Layer 1
10
1224.490000
20
-887.355000
11
1224.490000
21
-887.191000
0
LINE
8
Layer 1
10
1224.490000
20
-887.191000
11
1223.600000
21
-887.191000
0
LINE
8
Layer 1
10
1223.600000
20
-887.191000
11
1222.713004
21
-887.173502
0
LINE
8
Layer 1
10
1222.713004
20
-887.173502
11
1222.783052
21
-886.988251
0
LINE
8
Layer 1
10
1222.783052
20
-886.988251
11
1222.822232
21
-886.678537
0
LINE
8
Layer 1
10
1222.822232
20
-886.678537
11
1222.703835
21
-886.453511
0
LINE
8
Layer 1
10
1222.703835
20
-886.453511
11
1222.490829
21
-886.371508
0
LINE
8
Layer 1
10
1222.490829
20
-886.371508
11
1222.246181
21
-886.490863
0
LINE
8
Layer 1
10
1222.246181
20
-886.490863
11
1222.127908
21
-886.571928
0
LINE
8
Layer 1
10
1222.127908
20
-886.571928
11
1222.106113
21
-886.391775
0
LINE
8
Layer 1
10
1222.106113
20
-886.391775
11
1222.177346
21
-886.258453
0
LINE
8
Layer 1
10
1222.177346
20
-886.258453
11
1222.409474
21
-886.230795
0
LINE
8
Layer 1
10
1222.409474
20
-886.230795
11
1222.784801
21
-886.248293
0
LINE
8
Layer 1
10
1222.784801
20
-886.248293
11
1223.027657
21
-886.317646
0
LINE
8
Layer 1
10
1223.027657
20
-886.317646
11
1223.319894
21
-886.115620
0
LINE
8
Layer 1
10
1223.319894
20
-886.115620
11
1224.059256
21
-885.708529
0
LINE
8
Layer 1
10
1224.059256
20
-885.708529
11
1225.224214
21
-885.554422
0
LINE
8
Layer 1
10
1225.224214
20
-885.554422
11
1226.358948
21
-885.560740
0
LINE
8
Layer 1
10
1226.358948
20
-885.560740
11
1227.275434
21
-885.725618
0
LINE
8
Layer 1
10
1227.275434
20
-885.725618
11
1227.540779
21
-885.802749
0
LINE
8
Layer 1
10
1227.540779
20
-885.802749
11
1227.612802
21
-885.692682
0
LINE
8
Layer 1
10
1227.612802
20
-885.692682
11
1228.011741
21
-885.288548
0
LINE
8
Layer 1
10
1228.011741
20
-885.288548
11
1228.586807
21
-885.295426
0
LINE
8
Layer 1
10
1228.586807
20
-885.295426
11
1229.234052
21
-885.577391
0
LINE
8
Layer 1
10
1229.234052
20
-885.577391
11
1229.325173
21
-885.789357
0
LINE
8
Layer 1
10
1229.325173
20
-885.789357
11
1229.270320
21
-886.058724
0
LINE
8
Layer 1
10
1228.361480
20
-886.720139
11
1228.147489
21
-886.413259
0
LINE
8
Layer 1
10
1228.147489
20
-886.413259
11
1227.802392
21
-886.264940
0
LINE
8
Layer 1
10
1227.802392
20
-886.264940
11
1227.448924
21
-886.295813
0
LINE
8
Layer 1
10
1227.448924
20
-886.295813
11
1227.209820
21
-886.526506
0
LINE
8
Layer 1
10
1227.209820
20
-886.526506
11
1227.174972
21
-886.900133
0
LINE
8
Layer 1
10
1227.174972
20
-886.900133
11
1227.358428
21
-887.184987
0
LINE
8
Layer 1
10
1227.358428
20
-887.184987
11
1227.691749
21
-887.324828
0
LINE
8
Layer 1
10
1227.691749
20
-887.324828
11
1228.106496
21
-887.263416
0
LINE
8
Layer 1
10
1228.106496
20
-887.263416
11
1228.268407
21
-887.175758
0
LINE
8
Layer 1
10
1228.268407
20
-887.175758
11
1228.332049
21
-886.998297
0
LINE
8
Layer 1
10
1228.332049
20
-886.998297
11
1228.361484
21
-886.720139
0
LINE
8
Layer 1
10
1228.251982
20
-888.486479
11
1227.934592
21
-888.342313
0
LINE
8
Layer 1
10
1227.934592
20
-888.342313
11
1227.546399
21
-888.383609
0
LINE
8
Layer 1
10
1227.546399
20
-888.383609
11
1227.231316
21
-888.564838
0
LINE
8
Layer 1
10
1227.231316
20
-888.564838
11
1227.133252
21
-888.840470
0
LINE
8
Layer 1
10
1227.133252
20
-888.840470
11
1227.420163
21
-889.321839
0
LINE
8
Layer 1
10
1227.420163
20
-889.321839
11
1227.951611
21
-889.376297
0
LINE
8
Layer 1
10
1227.951611
20
-889.376297
11
1228.340291
21
-888.990729
0
LINE
8
Layer 1
10
1228.340291
20
-888.990729
11
1228.365579
21
-888.724347
0
LINE
8
Layer 1
10
1228.365579
20
-888.724347
11
1228.251980
21
-888.486479
0
LINE
8
Layer 1
10
1228.188396
20
-887.013029
11
1227.922772
21
-887.172312
0
LINE
8
Layer 1
10
1227.922772
20
-887.172312
11
1227.520518
21
-887.120499
0
LINE
8
Layer 1
10
1227.520518
20
-887.120499
11
1227.290676
21
-886.745095
0
LINE
8
Layer 1
10
1227.290676
20
-886.745095
11
1227.556473
21
-886.421633
0
LINE
8
Layer 1
10
1227.556473
20
-886.421633
11
1227.661516
21
-886.502829
0
LINE
8
Layer 1
10
1227.661516
20
-886.502829
11
1227.788032
21
-886.736688
0
LINE
8
Layer 1
10
1227.788032
20
-886.736688
11
1228.083269
21
-886.804581
0
LINE
8
Layer 1
10
1228.083269
20
-886.804581
11
1228.243232
21
-886.856538
0
LINE
8
Layer 1
10
1228.243232
20
-886.856538
11
1228.188396
21
-887.013030
0
LINE
8
Layer 1
10
1228.110221
20
-889.127440
11
1227.624714
21
-889.270555
0
LINE
8
Layer 1
10
1227.624714
20
-889.270555
11
1227.673566
21
-889.192605
0
LINE
8
Layer 1
10
1227.673566
20
-889.192605
11
1227.721276
21
-888.909953
0
LINE
8
Layer 1
10
1227.721276
20
-888.909953
11
1227.423461
21
-888.742235
0
LINE
8
Layer 1
10
1227.423461
20
-888.742235
11
1227.291078
21
-888.711413
0
LINE
8
Layer 1
10
1227.291078
20
-888.711413
11
1227.357619
21
-888.591924
0
LINE
8
Layer 1
10
1227.357619
20
-888.591924
11
1227.750158
21
-888.505236
0
LINE
8
Layer 1
10
1227.750158
20
-888.505236
11
1228.129214
21
-888.569064
0
LINE
8
Layer 1
10
1228.129214
20
-888.569064
11
1228.224407
21
-888.840082
0
LINE
8
Layer 1
10
1228.224407
20
-888.840082
11
1228.110305
21
-889.127525
0
LINE
8
Layer 1
10
1227.474854
20
-887.611255
11
1227.182708
21
-887.537609
0
LINE
8
Layer 1
10
1227.182708
20
-887.537609
11
1227.054710
21
-887.908294
0
LINE
8
Layer 1
10
1227.054710
20
-887.908294
11
1227.119381
21
-888.175258
0
LINE
8
Layer 1
10
1227.119381
20
-888.175258
11
1227.312153
21
-888.264825
0
LINE
8
Layer 1
10
1227.312153
20
-888.264825
11
1227.554507
21
-888.009626
0
LINE
8
Layer 1
10
1227.554507
20
-888.009626
11
1227.474854
21
-887.611255
0
LINE
8
Layer 1
10
1226.690503
20
-880.602865
11
1226.270437
21
-881.259085
0
LINE
8
Layer 1
10
1226.270437
20
-881.259085
11
1225.637223
21
-881.679405
0
LINE
8
Layer 1
10
1225.637223
20
-881.679405
11
1224.883534
21
-881.899939
0
LINE
8
Layer 1
10
1224.883534
20
-881.899939
11
1224.035349
21
-881.887315
0
LINE
8
Layer 1
10
1224.035349
20
-881.887315
11
1223.209458
21
-881.658383
0
LINE
8
Layer 1
10
1223.209458
20
-881.658383
11
1222.522653
21
-881.229995
0
LINE
8
Layer 1
10
1222.522653
20
-881.229995
11
1222.294215
21
-881.079179
0
LINE
8
Layer 1
10
1222.294215
20
-881.079179
11
1222.260553
21
-881.239026
0
LINE
8
Layer 1
10
1222.260553
20
-881.239026
11
1222.246766
21
-881.392887
0
LINE
8
Layer 1
10
1222.246766
20
-881.392887
11
1222.061530
21
-881.333429
0
LINE
8
Layer 1
10
1222.061530
20
-881.333429
11
1221.952197
21
-881.084735
0
LINE
8
Layer 1
10
1221.952197
20
-881.084735
11
1221.869224
21
-880.698542
0
LINE
8
Layer 1
10
1221.869224
20
-880.698542
11
1221.736996
21
-879.738277
0
LINE
8
Layer 1
10
1221.736996
20
-879.738277
11
1221.988350
21
-878.657002
0
LINE
8
Layer 1
10
1221.988350
20
-878.657002
11
1222.338094
21
-878.176103
0
LINE
8
Layer 1
10
1222.338094
20
-878.176103
11
1222.854846
21
-877.814814
0
LINE
8
Layer 1
10
1222.854846
20
-877.814814
11
1223.510520
21
-877.587240
0
LINE
8
Layer 1
10
1223.510520
20
-877.587240
11
1224.277030
21
-877.507482
0
LINE
8
Layer 1
10
1224.277030
20
-877.507482
11
1225.421710
21
-877.681172
0
LINE
8
Layer 1
10
1225.421710
20
-877.681172
11
1226.350090
21
-878.360893
0
LINE
8
Layer 1
10
1226.350090
20
-878.360893
11
1226.708561
21
-878.795600
0
LINE
8
Layer 1
10
1226.708561
20
-878.795600
11
1226.907732
21
-879.348331
0
LINE
8
Layer 1
10
1226.907732
20
-879.348331
11
1226.963943
21
-879.915817
0
LINE
8
Layer 1
10
1226.963943
20
-879.915817
11
1226.690506
21
-880.602981
0
LINE
8
Layer 1
10
1226.655256
20
-886.968191
11
1226.538529
21
-886.864446
0
LINE
8
Layer 1
10
1226.538529
20
-886.864446
11
1226.615350
21
-887.160666
0
LINE
8
Layer 1
10
1226.615350
20
-887.160666
11
1226.701812
21
-887.356740
0
LINE
8
Layer 1
10
1226.701812
20
-887.356740
11
1226.481210
21
-887.269604
0
LINE
8
Layer 1
10
1226.481210
20
-887.269604
11
1226.141725
21
-886.937542
0
LINE
8
Layer 1
10
1226.141725
20
-886.937542
11
1226.214905
21
-886.710720
0
LINE
8
Layer 1
10
1226.214905
20
-886.710720
11
1226.541669
21
-886.778549
0
LINE
8
Layer 1
10
1226.541669
20
-886.778549
11
1226.727928
21
-886.998756
0
LINE
8
Layer 1
10
1226.727928
20
-886.998756
11
1226.655256
21
-886.968192
0
LINE
8
Layer 1
10
1225.514146
20
-887.984842
11
1225.420758
21
-888.194928
0
LINE
8
Layer 1
10
1225.420758
20
-888.194928
11
1225.350739
21
-888.311627
0
LINE
8
Layer 1
10
1225.350739
20
-888.311627
11
1225.280720
21
-887.820137
0
LINE
8
Layer 1
10
1225.280720
20
-887.820137
11
1225.280000
21
-887.329000
0
LINE
8
Layer 1
10
1225.280000
20
-887.329000
11
1225.440189
21
-887.482021
0
LINE
8
Layer 1
10
1225.440189
20
-887.482021
11
1225.599288
21
-887.747864
0
LINE
8
Layer 1
10
1225.599288
20
-887.747864
11
1225.513426
21
-887.985195
0
LINE
8
Layer 1
10
1224.766469
20
-887.798477
11
1224.486364
21
-887.728429
0
LINE
8
Layer 1
10
1224.486364
20
-887.728429
11
1224.766469
21
-887.658410
0
LINE
8
Layer 1
10
1224.766469
20
-887.658410
11
1225.046574
21
-887.728429
0
LINE
8
Layer 1
10
1225.046574
20
-887.728429
11
1224.766469
21
-887.798477
0
LINE
8
Layer 1
10
1224.316889
20
-887.973539
11
1224.288666
21
-888.078582
0
LINE
8
Layer 1
10
1224.288666
20
-888.078582
11
1223.220000
21
-888.079000
0
LINE
8
Layer 1
10
1223.220000
20
-888.079000
11
1222.160000
21
-888.079000
0
LINE
8
Layer 1
10
1222.160000
20
-888.079000
11
1222.160000
21
-887.682000
0
LINE
8
Layer 1
10
1222.160000
20
-887.682000
11
1222.160000
21
-887.285000
0
LINE
8
Layer 1
10
1222.160000
20
-887.285000
11
1223.220000
21
-887.285000
0
LINE
8
Layer 1
10
1223.220000
20
-887.285000
11
1224.317080
21
-887.316129
0
LINE
8
Layer 1
10
1224.317080
20
-887.316129
11
1224.319902
21
-887.973593
0
LINE
8
Layer 1
10
1222.607602
20
-887.057331
11
1222.305229
21
-887.144933
0
LINE
8
Layer 1
10
1222.305229
20
-887.144933
11
1222.060000
21
-887.145000
0
LINE
8
Layer 1
10
1222.060000
20
-887.145000
11
1222.090254
21
-886.969938
0
LINE
8
Layer 1
10
1222.090254
20
-886.969938
11
1222.336341
21
-886.611544
0
LINE
8
Layer 1
10
1222.336341
20
-886.611544
11
1222.664576
21
-886.596474
0
LINE
8
Layer 1
10
1222.664576
20
-886.596474
11
1222.610023
21
-887.057399
0
LINE
8
Layer 1
10
1222.616232
20
-888.658019
11
1222.313831
21
-888.543973
0
LINE
8
Layer 1
10
1222.313831
20
-888.543973
11
1222.059521
21
-888.358807
0
LINE
8
Layer 1
10
1222.059521
20
-888.358807
11
1222.064036
21
-888.288759
0
LINE
8
Layer 1
10
1222.064036
20
-888.288759
11
1222.374710
21
-888.214927
0
LINE
8
Layer 1
10
1222.374710
20
-888.214927
11
1222.667201
21
-888.300331
0
LINE
8
Layer 1
10
1222.667201
20
-888.300331
11
1222.616091
21
-888.657906
0
LINE
8
Layer 1
10
1221.935654
20
-888.160377
11
1221.877318
21
-887.638972
0
LINE
8
Layer 1
10
1221.877318
20
-887.638972
11
1221.902154
21
-887.098206
0
LINE
8
Layer 1
10
1221.902154
20
-887.098206
11
1222.005909
21
-887.614951
0
LINE
8
Layer 1
10
1222.005909
20
-887.614951
11
1221.935654
21
-888.160376
0
LINE
8
Layer 1
10
1221.924083
20
-886.958166
11
1221.877403
21
-884.180476
0
LINE
8
Layer 1
10
1221.877403
20
-884.180476
11
1221.924083
21
-881.402766
0
LINE
8
Layer 1
10
1221.924083
20
-881.402766
11
1221.970762
21
-884.180476
0
LINE
8
Layer 1
10
1221.970762
20
-884.180476
11
1221.924083
21
-886.958166
0
LINE
8
Layer 1
10
1226.410000
20
-879.577000
11
1225.827268
21
-879.628421
0
LINE
8
Layer 1
10
1225.827268
20
-879.628421
11
1225.724455
21
-879.662711
0
LINE
8
Layer 1
10
1225.724455
20
-879.662711
11
1225.621613
21
-879.679926
0
LINE
8
Layer 1
10
1225.621613
20
-879.679926
11
1225.638829
21
-880.074134
0
LINE
8
Layer 1
10
1225.190000
20
-879.525000
11
1224.847213
21
-879.542215
0
LINE
8
Layer 1
10
1224.847213
20
-879.542215
11
1224.677731
21
-879.685366
0
LINE
8
Layer 1
10
1224.677731
20
-879.685366
11
1224.641558
21
-879.902133
0
LINE
8
Layer 1
10
1224.641558
20
-879.902133
11
1224.815541
21
-879.986080
0
LINE
8
Layer 1
10
1224.815541
20
-879.986080
11
1225.018607
21
-879.987816
0
LINE
8
Layer 1
10
1225.018607
20
-879.987816
11
1225.172870
21
-880.005032
0
LINE
8
Layer 1
10
1224.280000
20
-879.545000
11
1224.169594
21
-879.545494
0
LINE
8
Layer 1
10
1224.169594
20
-879.545494
11
1224.005765
21
-879.564191
0
LINE
8
Layer 1
10
1224.005765
20
-879.564191
11
1223.645847
21
-879.583100
0
LINE
8
Layer 1
10
1223.645847
20
-879.583100
11
1223.577295
21
-879.583100
0
LINE
8
Layer 1
10
1223.577295
20
-879.583100
11
1223.611585
21
-879.677870
0
LINE
8
Layer 1
10
1223.611585
20
-879.677870
11
1223.663006
21
-880.075916
0
LINE
8
Layer 1
10
1223.040000
20
-879.533000
11
1223.040000
21
-879.787480
0
LINE
8
Layer 1
10
1223.040000
20
-879.787480
11
1223.003650
21
-880.090474
0
LINE
8
Layer 1
10
1223.003650
20
-880.090474
11
1222.906678
21
-879.969288
0
LINE
8
Layer 1
10
1222.906678
20
-879.969288
11
1222.858221
21
-879.932910
0
LINE
8
Layer 1
10
1222.858221
20
-879.932910
11
1222.833950
21
-879.884452
0
LINE
8
Layer 1
10
1222.833950
20
-879.884452
11
1222.664278
21
-879.702673
0
LINE
8
Layer 1
10
1222.664278
20
-879.702673
11
1222.567306
21
-879.617837
0
LINE
8
Layer 1
10
1222.567306
20
-879.617837
11
1222.494606
21
-879.496623
0
LINE
8
Layer 1
10
1222.494606
20
-879.496623
11
1222.494606
21
-879.593595
0
LINE
8
Layer 1
10
1222.494606
20
-879.593595
11
1222.470335
21
-879.654188
0
LINE
8
Layer 1
10
1222.470335
20
-879.654188
11
1222.446064
21
-879.993532
0
LINE
8
Layer 1
10
1222.446064
20
-879.993532
11
1222.446064
21
-880.078339
 0 
ENDSEC
 0 
EOF