G04 #@! TF.GenerationSoftware,KiCad,Pcbnew,(5.1.9)-1*
G04 #@! TF.CreationDate,2021-03-21T07:55:49-07:00*
G04 #@! TF.ProjectId,keefighter,6b656566-6967-4687-9465-722e6b696361,rev?*
G04 #@! TF.SameCoordinates,Original*
G04 #@! TF.FileFunction,Profile,NP*
%FSLAX46Y46*%
G04 Gerber Fmt 4.6, Leading zero omitted, Abs format (unit mm)*
G04 Created by KiCad (PCBNEW (5.1.9)-1) date 2021-03-21 07:55:49*
%MOMM*%
%LPD*%
G01*
G04 APERTURE LIST*
G04 #@! TA.AperFunction,Profile*
%ADD10C,0.200000*%
G04 #@! TD*
G04 #@! TA.AperFunction,Profile*
%ADD11C,0.120000*%
G04 #@! TD*
G04 APERTURE END LIST*
D10*
X357792882Y-173878972D02*
X357792883Y-88878972D01*
X77792883Y-183878972D02*
X347792883Y-183878972D01*
X347792883Y-78878972D02*
G75*
G02*
X357792883Y-88878972I0J-10000000D01*
G01*
X67792883Y-88878972D02*
X67792883Y-173878972D01*
X77792883Y-183878972D02*
G75*
G02*
X67792883Y-173878972I0J10000000D01*
G01*
X357792882Y-173878973D02*
G75*
G02*
X347792883Y-183878972I-9999999J0D01*
G01*
X67792883Y-88878972D02*
G75*
G02*
X77792883Y-78878972I10000000J0D01*
G01*
X347792883Y-78878972D02*
X77792883Y-78878972D01*
D11*
X239616508Y-119054772D02*
X239616508Y-115954772D01*
X239616508Y-115954772D02*
X243216508Y-115954772D01*
X243216508Y-115954772D02*
X243216508Y-119054772D01*
X243216508Y-119054772D02*
X239616508Y-119054772D01*
X157335369Y-91751934D02*
X158137708Y-88757564D01*
X158137708Y-88757564D02*
X161615041Y-89689312D01*
X161615041Y-89689312D02*
X160812702Y-92683682D01*
X160812702Y-92683682D02*
X157335369Y-91751934D01*
X137481312Y-106154066D02*
X134003979Y-105222318D01*
X138283651Y-103159696D02*
X137481312Y-106154066D01*
X134806318Y-102227948D02*
X138283651Y-103159696D01*
X134003979Y-105222318D02*
X134806318Y-102227948D01*
X174283086Y-116015072D02*
X170805753Y-115083324D01*
X175085425Y-113020702D02*
X174283086Y-116015072D01*
X171608092Y-112088954D02*
X175085425Y-113020702D01*
X170805753Y-115083324D02*
X171608092Y-112088954D01*
X233685241Y-156620616D02*
X233685241Y-153520616D01*
X233685241Y-153520616D02*
X237285241Y-153520616D01*
X237285241Y-153520616D02*
X237285241Y-156620616D01*
X237285241Y-156620616D02*
X233685241Y-156620616D01*
X265185746Y-144746433D02*
X261585746Y-144746433D01*
X265185746Y-141646433D02*
X265185746Y-144746433D01*
X261585746Y-141646433D02*
X265185746Y-141646433D01*
X261585746Y-144746433D02*
X261585746Y-141646433D01*
X295626194Y-144824564D02*
X292026194Y-144824564D01*
X295626194Y-141724564D02*
X295626194Y-144824564D01*
X292026194Y-141724564D02*
X295626194Y-141724564D01*
X292026194Y-144824564D02*
X292026194Y-141724564D01*
X324395820Y-156620461D02*
X320795820Y-156620461D01*
X324395820Y-153520461D02*
X324395820Y-156620461D01*
X320795820Y-153520461D02*
X324395820Y-153520461D01*
X320795820Y-156620461D02*
X320795820Y-153520461D01*
X326274618Y-119069621D02*
X326274618Y-115969621D01*
X326274618Y-115969621D02*
X329874618Y-115969621D01*
X329874618Y-115969621D02*
X329874618Y-119069621D01*
X329874618Y-119069621D02*
X326274618Y-119069621D01*
X301124162Y-107297086D02*
X297524162Y-107297086D01*
X301124162Y-104197086D02*
X301124162Y-107297086D01*
X297524162Y-104197086D02*
X301124162Y-104197086D01*
X297524162Y-107297086D02*
X297524162Y-104197086D01*
X267520580Y-107231339D02*
X267520580Y-104131339D01*
X267520580Y-104131339D02*
X271120580Y-104131339D01*
X271120580Y-104131339D02*
X271120580Y-107231339D01*
X271120580Y-107231339D02*
X267520580Y-107231339D01*
X152404866Y-110152821D02*
X153207205Y-107158451D01*
X153207205Y-107158451D02*
X156684538Y-108090199D01*
X156684538Y-108090199D02*
X155882199Y-111084569D01*
X155882199Y-111084569D02*
X152404866Y-110152821D01*
M02*
