M48
; DRILL file {KiCad (5.1.9)-1} date 03/21/21 07:55:51
; FORMAT={-:-/ absolute / inch / decimal}
; #@! TF.CreationDate,2021-03-21T07:55:51-07:00
; #@! TF.GenerationSoftware,Kicad,Pcbnew,(5.1.9)-1
FMAT,2
INCH
T1C0.0157
T2C0.0217
T3C0.0315
T4C0.0320
T5C0.0335
T6C0.0394
T7C0.0400
T8C0.0433
T9C0.0315
T10C0.0748
T11C0.1181
T12C0.1614
T13C0.2362
%
G90
G05
T1
X3.9Y-6.6
X4.1Y-6.7
X4.25Y-6.6
X4.4803Y-5.9
X4.75Y-7.0
X4.8197Y-6.45
X4.9Y-6.9
X4.9697Y-4.05
X4.9697Y-5.75
X5.0Y-6.95
X5.05Y-5.2
X5.05Y-5.25
X5.1803Y-6.0
X5.25Y-6.85
X5.5Y-5.15
X5.5Y-5.55
X5.7Y-4.05
X5.7Y-4.25
X5.7Y-4.45
X5.7Y-7.0
X5.75Y-3.85
X5.8Y-7.0
X5.95Y-7.0
X6.05Y-3.45
X6.2Y-4.2
X6.3Y-4.4
X6.4Y-3.4
X6.5612Y-4.4888
X6.6132Y-5.0132
X6.8Y-3.7
X6.95Y-4.35
X7.0Y-4.5
X7.15Y-3.3
X7.6Y-3.5
X7.6559Y-3.55
X7.7309Y-3.55
X7.8059Y-3.55
X7.8657Y-3.5
X8.0537Y-4.6537
X8.1132Y-5.0132
X8.3888Y-3.95
X8.8Y-6.3
X9.0173Y-6.1327
X9.3Y-5.5
X9.45Y-6.65
X9.55Y-7.0
X9.6Y-6.05
X9.65Y-7.05
X9.65Y-7.1
X9.7Y-5.15
X9.85Y-5.5
X9.9618Y-4.1882
X10.0Y-5.65
X10.05Y-4.45
X10.05Y-5.5
X10.1348Y-5.6652
X10.2118Y-4.1882
X10.3Y-5.15
X10.5Y-6.95
X10.55Y-6.4
X10.75Y-7.1
X10.7575Y-4.0575
X10.8Y-5.55
X10.9Y-4.1
X10.95Y-5.45
X11.0Y-6.4
X11.05Y-5.7
X11.3592Y-4.1908
X11.5Y-6.5
X11.7138Y-5.0138
X11.75Y-6.65
X11.95Y-5.55
X11.95Y-7.05
X12.0Y-4.05
X12.15Y-5.15
X12.1638Y-5.0138
X12.2Y-6.5
X12.4Y-4.3
X12.5543Y-4.6543
X12.6Y-5.45
X12.6Y-5.95
X12.85Y-6.8
X13.0Y-7.15
X13.05Y-6.05
X13.0992Y-4.5992
T3
X4.2174Y-5.4503
X4.2961Y-5.4503
X4.3749Y-5.4503
X4.4536Y-5.4503
X4.6505Y-5.4503
X4.7292Y-5.4503
X4.808Y-5.4503
X4.8867Y-5.4503
X5.0835Y-5.4503
X5.1623Y-5.4503
X5.241Y-5.4503
X5.3198Y-5.4503
X5.3985Y-5.4503
X6.8197Y-6.27
X6.8197Y-6.3487
X6.8197Y-6.4274
X6.8197Y-6.5062
X6.8197Y-6.5849
T4
X4.2Y-6.2423
X4.2Y-6.4785
X4.3Y-6.162
X4.3Y-6.3982
X4.4Y-6.0817
X4.4Y-6.3179
X4.55Y-6.2423
X4.55Y-6.4785
X4.65Y-6.162
X4.65Y-6.3982
X4.75Y-6.0817
X4.75Y-6.3179
X4.9Y-6.2423
X4.9Y-6.4785
X5.0Y-6.162
X5.0Y-6.3982
X5.1Y-6.0817
X5.1Y-6.3179
X5.25Y-6.2423
X5.25Y-6.4785
X5.35Y-6.162
X5.35Y-6.3982
X5.45Y-6.0817
X5.45Y-6.3179
X5.6Y-6.2423
X5.6Y-6.4785
X5.7Y-6.162
X5.7Y-6.3982
X5.8Y-6.0817
X5.8Y-6.3179
X5.95Y-6.2423
X5.95Y-6.4785
X6.05Y-6.162
X6.05Y-6.3982
X6.15Y-6.062
X6.15Y-6.2982
T6
X4.0537Y-5.5764
X4.1537Y-5.5764
X4.2537Y-5.5764
X4.3537Y-5.5764
X5.7628Y-5.3737
X5.7628Y-5.4737
X5.8628Y-5.3737
X5.8628Y-5.4737
X5.9628Y-5.3737
X5.9628Y-5.4737
X6.0628Y-5.3737
X6.0628Y-5.4737
X6.1628Y-5.3737
X6.1628Y-5.4737
X6.2628Y-5.3737
X6.2628Y-5.4737
X6.3628Y-5.3737
X6.3628Y-5.4737
X6.4628Y-5.3737
X6.4628Y-5.4737
X6.5628Y-5.3737
X6.5628Y-5.4737
X6.6628Y-5.3737
X6.6628Y-5.4737
X6.8193Y-5.7731
X6.8193Y-5.8731
X6.8193Y-5.9731
X6.8193Y-6.0731
T7
X7.4313Y-3.2925
X7.4313Y-3.3925
X7.4313Y-3.4925
X7.4313Y-3.5925
X7.4313Y-3.6925
X7.4313Y-3.7925
X7.4313Y-3.8925
X7.4313Y-3.9925
X7.4313Y-4.0925
X7.4313Y-4.1925
X7.4313Y-4.2925
X7.4313Y-4.3925
X8.0313Y-3.2925
X8.0313Y-3.3925
X8.0313Y-3.4925
X8.0313Y-3.5925
X8.0313Y-3.6925
X8.0313Y-3.7925
X8.0313Y-3.8925
X8.0313Y-3.9925
X8.0313Y-4.0925
X8.0313Y-4.1925
X8.0313Y-4.2925
X8.0313Y-4.3925
T8
X3.3678Y-3.3712
X3.3678Y-3.6271
X3.545Y-3.3712
X3.545Y-3.6271
X3.7222Y-3.3712
X3.7222Y-3.6271
X3.8993Y-3.3712
X3.8993Y-3.6271
X4.1946Y-3.3712
X4.1946Y-3.6271
X4.3718Y-3.3712
X4.3718Y-3.6271
X4.5489Y-3.3712
X4.5489Y-3.6271
X4.7261Y-3.3712
X4.7261Y-3.6271
X5.0214Y-3.3712
X5.0214Y-3.6271
X5.1985Y-3.3712
X5.1985Y-3.6271
X5.3757Y-3.3712
X5.3757Y-3.6271
X5.5529Y-3.3712
X5.5529Y-3.6271
T9
X7.6331Y-3.2839
X7.8299Y-3.2839
T10
X5.1184Y-4.2309
X5.5048Y-4.3344
X5.8429Y-4.425
X6.037Y-3.7005
X6.2292Y-4.5285
X6.4233Y-3.8041
X6.5673Y-4.6191
X6.9537Y-4.7226
X9.0711Y-6.2922
X9.3046Y-4.8132
X9.4711Y-6.2922
X9.7046Y-4.8132
X10.1695Y-5.8247
X10.4032Y-4.3477
X10.5695Y-5.8247
X10.8032Y-4.3477
X11.368Y-5.8277
X11.5844Y-4.3503
X11.768Y-5.8277
X11.9844Y-4.3503
X12.5006Y-6.2921
X12.7163Y-4.8138
X12.9006Y-6.2921
X13.1163Y-4.8138
T11
X5.1632Y-4.4499
X5.4306Y-4.4181
X5.8877Y-4.6441
X6.0818Y-3.9196
X6.155Y-4.6122
X6.3492Y-3.8877
X6.6121Y-4.8382
X6.8795Y-4.8063
X9.1711Y-6.4922
X9.4046Y-5.0132
X9.4211Y-6.3922
X9.6546Y-4.9132
X10.2695Y-6.0247
X10.5032Y-4.5477
X10.5195Y-5.9247
X10.7532Y-4.4477
X11.468Y-6.0277
X11.6844Y-4.5503
X11.718Y-5.9277
X11.9344Y-4.4503
X12.6006Y-6.4921
X12.8163Y-5.0138
X12.8506Y-6.3921
X13.0663Y-4.9138
T12
X5.3116Y-4.2826
X6.036Y-4.4768
X6.2302Y-3.7523
X6.7605Y-4.6709
X9.2711Y-6.2922
X9.5046Y-4.8132
X10.3695Y-5.8247
X10.6032Y-4.3477
X11.568Y-5.8277
X11.7844Y-4.3503
X12.7006Y-6.2921
X12.9163Y-4.8138
T13
X3.0627Y-3.4992
X3.0627Y-6.8456
X8.3777Y-3.4992
X8.3777Y-6.8456
X13.6926Y-3.4992
X13.6926Y-6.8456
T2
G00X7.5789Y-3.1884
M15
G01X7.5789Y-3.1628
M16
G05
G00X7.8841Y-3.1884
M15
G01X7.8841Y-3.1628
M16
G05
T5
G00X7.5848Y-3.336
M15
G01X7.5848Y-3.3144
M16
G05
G00X7.8781Y-3.336
M15
G01X7.8781Y-3.3144
M16
G05
T0
M30
