G04 #@! TF.GenerationSoftware,KiCad,Pcbnew,(5.1.9)-1*
G04 #@! TF.CreationDate,2021-03-21T07:55:49-07:00*
G04 #@! TF.ProjectId,keefighter,6b656566-6967-4687-9465-722e6b696361,rev?*
G04 #@! TF.SameCoordinates,Original*
G04 #@! TF.FileFunction,Legend,Bot*
G04 #@! TF.FilePolarity,Positive*
%FSLAX46Y46*%
G04 Gerber Fmt 4.6, Leading zero omitted, Abs format (unit mm)*
G04 Created by KiCad (PCBNEW (5.1.9)-1) date 2021-03-21 07:55:49*
%MOMM*%
%LPD*%
G01*
G04 APERTURE LIST*
%ADD10C,0.150000*%
G04 #@! TA.AperFunction,Profile*
%ADD11C,0.200000*%
G04 #@! TD*
%ADD12C,0.120000*%
G04 #@! TA.AperFunction,Profile*
%ADD13C,0.120000*%
G04 #@! TD*
%ADD14C,0.300000*%
%ADD15C,0.800000*%
%ADD16C,3.000000*%
%ADD17C,0.500000*%
%ADD18C,1.000000*%
%ADD19C,3.500000*%
%ADD20C,0.400000*%
G04 APERTURE END LIST*
D10*
X168449047Y-175982380D02*
X168449047Y-176696666D01*
X168496666Y-176839523D01*
X168591904Y-176934761D01*
X168734761Y-176982380D01*
X168830000Y-176982380D01*
X167496666Y-176982380D02*
X167972857Y-176982380D01*
X167972857Y-175982380D01*
X166591904Y-176887142D02*
X166639523Y-176934761D01*
X166782380Y-176982380D01*
X166877619Y-176982380D01*
X167020476Y-176934761D01*
X167115714Y-176839523D01*
X167163333Y-176744285D01*
X167210952Y-176553809D01*
X167210952Y-176410952D01*
X167163333Y-176220476D01*
X167115714Y-176125238D01*
X167020476Y-176030000D01*
X166877619Y-175982380D01*
X166782380Y-175982380D01*
X166639523Y-176030000D01*
X166591904Y-176077619D01*
X165877619Y-175982380D02*
X165877619Y-176696666D01*
X165925238Y-176839523D01*
X166020476Y-176934761D01*
X166163333Y-176982380D01*
X166258571Y-176982380D01*
X164925238Y-176982380D02*
X165401428Y-176982380D01*
X165401428Y-175982380D01*
X164020476Y-176887142D02*
X164068095Y-176934761D01*
X164210952Y-176982380D01*
X164306190Y-176982380D01*
X164449047Y-176934761D01*
X164544285Y-176839523D01*
X164591904Y-176744285D01*
X164639523Y-176553809D01*
X164639523Y-176410952D01*
X164591904Y-176220476D01*
X164544285Y-176125238D01*
X164449047Y-176030000D01*
X164306190Y-175982380D01*
X164210952Y-175982380D01*
X164068095Y-176030000D01*
X164020476Y-176077619D01*
X163306190Y-175982380D02*
X163306190Y-176696666D01*
X163353809Y-176839523D01*
X163449047Y-176934761D01*
X163591904Y-176982380D01*
X163687142Y-176982380D01*
X162353809Y-176982380D02*
X162830000Y-176982380D01*
X162830000Y-175982380D01*
X161449047Y-176887142D02*
X161496666Y-176934761D01*
X161639523Y-176982380D01*
X161734761Y-176982380D01*
X161877619Y-176934761D01*
X161972857Y-176839523D01*
X162020476Y-176744285D01*
X162068095Y-176553809D01*
X162068095Y-176410952D01*
X162020476Y-176220476D01*
X161972857Y-176125238D01*
X161877619Y-176030000D01*
X161734761Y-175982380D01*
X161639523Y-175982380D01*
X161496666Y-176030000D01*
X161449047Y-176077619D01*
X160734761Y-175982380D02*
X160734761Y-176696666D01*
X160782380Y-176839523D01*
X160877619Y-176934761D01*
X161020476Y-176982380D01*
X161115714Y-176982380D01*
X159782380Y-176982380D02*
X160258571Y-176982380D01*
X160258571Y-175982380D01*
X158877619Y-176887142D02*
X158925238Y-176934761D01*
X159068095Y-176982380D01*
X159163333Y-176982380D01*
X159306190Y-176934761D01*
X159401428Y-176839523D01*
X159449047Y-176744285D01*
X159496666Y-176553809D01*
X159496666Y-176410952D01*
X159449047Y-176220476D01*
X159401428Y-176125238D01*
X159306190Y-176030000D01*
X159163333Y-175982380D01*
X159068095Y-175982380D01*
X158925238Y-176030000D01*
X158877619Y-176077619D01*
D11*
X357792882Y-173878972D02*
X357792883Y-88878972D01*
X77792883Y-183878972D02*
X347792883Y-183878972D01*
X347792883Y-78878972D02*
G75*
G02*
X357792883Y-88878972I0J-10000000D01*
G01*
X67792883Y-88878972D02*
X67792883Y-173878972D01*
X77792883Y-183878972D02*
G75*
G02*
X67792883Y-173878972I0J10000000D01*
G01*
X357792882Y-173878973D02*
G75*
G02*
X347792883Y-183878972I-9999999J0D01*
G01*
X67792883Y-88878972D02*
G75*
G02*
X77792883Y-78878972I10000000J0D01*
G01*
X347792883Y-78878972D02*
X77792883Y-78878972D01*
D12*
X237516508Y-115654772D02*
X245316508Y-115654772D01*
X245316508Y-119354772D02*
X237516508Y-119354772D01*
X237516508Y-117254772D02*
X237516508Y-115654772D01*
D13*
X239616508Y-119054772D02*
X239616508Y-115954772D01*
X239616508Y-115954772D02*
X243216508Y-115954772D01*
X243216508Y-115954772D02*
X243216508Y-119054772D01*
X243216508Y-119054772D02*
X239616508Y-119054772D01*
D12*
X156186910Y-87924266D02*
X163721131Y-89943054D01*
X162763500Y-93516980D02*
X155229279Y-91498192D01*
X155772799Y-89469747D02*
X156186910Y-87924266D01*
D13*
X157335369Y-91751934D02*
X158137708Y-88757564D01*
X158137708Y-88757564D02*
X161615041Y-89689312D01*
X161615041Y-89689312D02*
X160812702Y-92683682D01*
X160812702Y-92683682D02*
X157335369Y-91751934D01*
X137481312Y-106154066D02*
X134003979Y-105222318D01*
X138283651Y-103159696D02*
X137481312Y-106154066D01*
X134806318Y-102227948D02*
X138283651Y-103159696D01*
X134003979Y-105222318D02*
X134806318Y-102227948D01*
D12*
X132441409Y-102940131D02*
X132855520Y-101394650D01*
X139432110Y-106987364D02*
X131897889Y-104968576D01*
X132855520Y-101394650D02*
X140389741Y-103413438D01*
D13*
X174283086Y-116015072D02*
X170805753Y-115083324D01*
X175085425Y-113020702D02*
X174283086Y-116015072D01*
X171608092Y-112088954D02*
X175085425Y-113020702D01*
X170805753Y-115083324D02*
X171608092Y-112088954D01*
D12*
X169243183Y-112801137D02*
X169657294Y-111255656D01*
X176233884Y-116848370D02*
X168699663Y-114829582D01*
X169657294Y-111255656D02*
X177191515Y-113274444D01*
X231585241Y-153220616D02*
X239385241Y-153220616D01*
X239385241Y-156920616D02*
X231585241Y-156920616D01*
X231585241Y-154820616D02*
X231585241Y-153220616D01*
D13*
X233685241Y-156620616D02*
X233685241Y-153520616D01*
X233685241Y-153520616D02*
X237285241Y-153520616D01*
X237285241Y-153520616D02*
X237285241Y-156620616D01*
X237285241Y-156620616D02*
X233685241Y-156620616D01*
X265185746Y-144746433D02*
X261585746Y-144746433D01*
X265185746Y-141646433D02*
X265185746Y-144746433D01*
X261585746Y-141646433D02*
X265185746Y-141646433D01*
X261585746Y-144746433D02*
X261585746Y-141646433D01*
D12*
X259485746Y-142946433D02*
X259485746Y-141346433D01*
X267285746Y-145046433D02*
X259485746Y-145046433D01*
X259485746Y-141346433D02*
X267285746Y-141346433D01*
D13*
X295626194Y-144824564D02*
X292026194Y-144824564D01*
X295626194Y-141724564D02*
X295626194Y-144824564D01*
X292026194Y-141724564D02*
X295626194Y-141724564D01*
X292026194Y-144824564D02*
X292026194Y-141724564D01*
D12*
X289926194Y-143024564D02*
X289926194Y-141424564D01*
X297726194Y-145124564D02*
X289926194Y-145124564D01*
X289926194Y-141424564D02*
X297726194Y-141424564D01*
D13*
X324395820Y-156620461D02*
X320795820Y-156620461D01*
X324395820Y-153520461D02*
X324395820Y-156620461D01*
X320795820Y-153520461D02*
X324395820Y-153520461D01*
X320795820Y-156620461D02*
X320795820Y-153520461D01*
D12*
X318695820Y-154820461D02*
X318695820Y-153220461D01*
X326495820Y-156920461D02*
X318695820Y-156920461D01*
X318695820Y-153220461D02*
X326495820Y-153220461D01*
X324174618Y-115669621D02*
X331974618Y-115669621D01*
X331974618Y-119369621D02*
X324174618Y-119369621D01*
X324174618Y-117269621D02*
X324174618Y-115669621D01*
D13*
X326274618Y-119069621D02*
X326274618Y-115969621D01*
X326274618Y-115969621D02*
X329874618Y-115969621D01*
X329874618Y-115969621D02*
X329874618Y-119069621D01*
X329874618Y-119069621D02*
X326274618Y-119069621D01*
X301124162Y-107297086D02*
X297524162Y-107297086D01*
X301124162Y-104197086D02*
X301124162Y-107297086D01*
X297524162Y-104197086D02*
X301124162Y-104197086D01*
X297524162Y-107297086D02*
X297524162Y-104197086D01*
D12*
X295424162Y-105497086D02*
X295424162Y-103897086D01*
X303224162Y-107597086D02*
X295424162Y-107597086D01*
X295424162Y-103897086D02*
X303224162Y-103897086D01*
X265420580Y-103831339D02*
X273220580Y-103831339D01*
X273220580Y-107531339D02*
X265420580Y-107531339D01*
X265420580Y-105431339D02*
X265420580Y-103831339D01*
D13*
X267520580Y-107231339D02*
X267520580Y-104131339D01*
X267520580Y-104131339D02*
X271120580Y-104131339D01*
X271120580Y-104131339D02*
X271120580Y-107231339D01*
X271120580Y-107231339D02*
X267520580Y-107231339D01*
D12*
X151256407Y-106325153D02*
X158790628Y-108343941D01*
X157832997Y-111917867D02*
X150298776Y-109899079D01*
X150842296Y-107870634D02*
X151256407Y-106325153D01*
D13*
X152404866Y-110152821D02*
X153207205Y-107158451D01*
X153207205Y-107158451D02*
X156684538Y-108090199D01*
X156684538Y-108090199D02*
X155882199Y-111084569D01*
X155882199Y-111084569D02*
X152404866Y-110152821D01*
D14*
X139468578Y-114192305D02*
X139300345Y-114820157D01*
D15*
X139619721Y-111696377D02*
X139153847Y-113435043D01*
D16*
X137622359Y-114784652D02*
X138202113Y-112620978D01*
D17*
X130016375Y-110831374D02*
X131259137Y-111216135D01*
D18*
X129594400Y-113565316D02*
X130241448Y-111150501D01*
D19*
X131160686Y-112742669D02*
X137632389Y-114476757D01*
D10*
X129887894Y-110538129D02*
X128956146Y-114015462D01*
X129648394Y-111509231D02*
X129066051Y-113682564D01*
X139591052Y-114121594D02*
X139397867Y-114069831D01*
X138935460Y-115602371D02*
X140087205Y-111304001D01*
X139396938Y-114846039D02*
X139591052Y-114121594D01*
X140087205Y-111304001D02*
X137160450Y-110519779D01*
X134524338Y-111780460D02*
X129887894Y-110538129D01*
X128956146Y-114015462D02*
X136876738Y-116137778D01*
D17*
X139842256Y-111445422D02*
X137475738Y-110811316D01*
D20*
X129152798Y-113861099D02*
X130360206Y-114184623D01*
D18*
X137434179Y-111029463D02*
G75*
G02*
X134807181Y-112270358I-2002576J838341D01*
G01*
D10*
X139396938Y-114846038D02*
G75*
G02*
X136876738Y-116137778I-1905970J614230D01*
G01*
X137151337Y-110539566D02*
G75*
G02*
X134524338Y-111780460I-2002576J838342D01*
G01*
D20*
X147553685Y-118791602D02*
X148761093Y-119115126D01*
D17*
X158243143Y-116375925D02*
X155876625Y-115741819D01*
D10*
X147357033Y-118945965D02*
X155277625Y-121068281D01*
X152925225Y-116710963D02*
X148288781Y-115468632D01*
X158488092Y-116234504D02*
X155561337Y-115450282D01*
X157797825Y-119776542D02*
X157991939Y-119052097D01*
X157336347Y-120532874D02*
X158488092Y-116234504D01*
X157991939Y-119052097D02*
X157798754Y-119000334D01*
X148049281Y-116439734D02*
X147466938Y-118613067D01*
X148288781Y-115468632D02*
X147357033Y-118945965D01*
D19*
X149561573Y-117673172D02*
X156033276Y-119407260D01*
D18*
X147995287Y-118495819D02*
X148642335Y-116081004D01*
D17*
X148417262Y-115761877D02*
X149660024Y-116146638D01*
D16*
X156023246Y-119715155D02*
X156603000Y-117551481D01*
D15*
X158020608Y-116626880D02*
X157554734Y-118365546D01*
D14*
X157869465Y-119122808D02*
X157701232Y-119750660D01*
D10*
X155552224Y-115470069D02*
G75*
G02*
X152925225Y-116710963I-2002576J838342D01*
G01*
X157797825Y-119776541D02*
G75*
G02*
X155277625Y-121068281I-1905970J614230D01*
G01*
D18*
X155835066Y-115959966D02*
G75*
G02*
X153208068Y-117200861I-2002576J838341D01*
G01*
D20*
X152484187Y-100390715D02*
X153691595Y-100714239D01*
D17*
X163173645Y-97975038D02*
X160807127Y-97340932D01*
D10*
X152287535Y-100545078D02*
X160208127Y-102667394D01*
X157855727Y-98310076D02*
X153219283Y-97067745D01*
X163418594Y-97833617D02*
X160491839Y-97049395D01*
X162728327Y-101375655D02*
X162922441Y-100651210D01*
X162266849Y-102131987D02*
X163418594Y-97833617D01*
X162922441Y-100651210D02*
X162729256Y-100599447D01*
X152979783Y-98038847D02*
X152397440Y-100212180D01*
X153219283Y-97067745D02*
X152287535Y-100545078D01*
D19*
X154492075Y-99272285D02*
X160963778Y-101006373D01*
D18*
X152925789Y-100094932D02*
X153572837Y-97680117D01*
D17*
X153347764Y-97360990D02*
X154590526Y-97745751D01*
D16*
X160953748Y-101314268D02*
X161533502Y-99150594D01*
D15*
X162951110Y-98225993D02*
X162485236Y-99964659D01*
D14*
X162799967Y-100721921D02*
X162631734Y-101349773D01*
D10*
X160482726Y-97069182D02*
G75*
G02*
X157855727Y-98310076I-2002576J838342D01*
G01*
X162728327Y-101375654D02*
G75*
G02*
X160208127Y-102667394I-1905970J614230D01*
G01*
D18*
X160765568Y-97559079D02*
G75*
G02*
X158138570Y-98799974I-2002576J838341D01*
G01*
D20*
X165954571Y-123722104D02*
X167161979Y-124045628D01*
D17*
X176644029Y-121306427D02*
X174277511Y-120672321D01*
D10*
X165757919Y-123876467D02*
X173678511Y-125998783D01*
X171326111Y-121641465D02*
X166689667Y-120399134D01*
X176888978Y-121165006D02*
X173962223Y-120380784D01*
X176198711Y-124707044D02*
X176392825Y-123982599D01*
X175737233Y-125463376D02*
X176888978Y-121165006D01*
X176392825Y-123982599D02*
X176199640Y-123930836D01*
X166450167Y-121370236D02*
X165867824Y-123543569D01*
X166689667Y-120399134D02*
X165757919Y-123876467D01*
D19*
X167962459Y-122603674D02*
X174434162Y-124337762D01*
D18*
X166396173Y-123426321D02*
X167043221Y-121011506D01*
D17*
X166818148Y-120692379D02*
X168060910Y-121077140D01*
D16*
X174424132Y-124645657D02*
X175003886Y-122481983D01*
D15*
X176421494Y-121557382D02*
X175955620Y-123296048D01*
D14*
X176270351Y-124053310D02*
X176102118Y-124681162D01*
D10*
X173953110Y-120400571D02*
G75*
G02*
X171326111Y-121641465I-2002576J838342D01*
G01*
X176198711Y-124707043D02*
G75*
G02*
X173678511Y-125998783I-1905970J614230D01*
G01*
D18*
X174235952Y-120890468D02*
G75*
G02*
X171608954Y-122131363I-2002576J838341D01*
G01*
D20*
X237166508Y-128654772D02*
X238416508Y-128654772D01*
D17*
X246866508Y-123554772D02*
X244416508Y-123554772D01*
D10*
X237016508Y-128854772D02*
X245216509Y-128854772D01*
X241816508Y-125254772D02*
X237016508Y-125254772D01*
X247066508Y-123354772D02*
X244036508Y-123354772D01*
X247316508Y-126954772D02*
X247316508Y-126204772D01*
X247066508Y-127804772D02*
X247066508Y-123354772D01*
X247316508Y-126204772D02*
X247116508Y-126204772D01*
X237036508Y-126254772D02*
X237036508Y-128504772D01*
X237016508Y-125254772D02*
X237016508Y-128854772D01*
D19*
X238816508Y-127054772D02*
X245516508Y-127054772D01*
D18*
X237516508Y-128254772D02*
X237516508Y-125754772D01*
D17*
X237216508Y-125504772D02*
X238516508Y-125554772D01*
D16*
X245586508Y-127354772D02*
X245586508Y-125114772D01*
D15*
X246716508Y-123854772D02*
X246716508Y-125654771D01*
D14*
X247216508Y-126304772D02*
X247216508Y-126954772D01*
D10*
X244032826Y-123376243D02*
G75*
G02*
X241816508Y-125254772I-2151318J291471D01*
G01*
X247316508Y-126954771D02*
G75*
G02*
X245216509Y-128854772I-2000000J99999D01*
G01*
D18*
X244432826Y-123776243D02*
G75*
G02*
X242216508Y-125654772I-2151318J291471D01*
G01*
D20*
X265070580Y-116831339D02*
X266320580Y-116831339D01*
D17*
X274770580Y-111731339D02*
X272320580Y-111731339D01*
D10*
X264920580Y-117031339D02*
X273120581Y-117031339D01*
X269720580Y-113431339D02*
X264920580Y-113431339D01*
X274970580Y-111531339D02*
X271940580Y-111531339D01*
X275220580Y-115131339D02*
X275220580Y-114381339D01*
X274970580Y-115981339D02*
X274970580Y-111531339D01*
X275220580Y-114381339D02*
X275020580Y-114381339D01*
X264940580Y-114431339D02*
X264940580Y-116681339D01*
X264920580Y-113431339D02*
X264920580Y-117031339D01*
D19*
X266720580Y-115231339D02*
X273420580Y-115231339D01*
D18*
X265420580Y-116431339D02*
X265420580Y-113931339D01*
D17*
X265120580Y-113681339D02*
X266420580Y-113731339D01*
D16*
X273490580Y-115531339D02*
X273490580Y-113291339D01*
D15*
X274620580Y-112031339D02*
X274620580Y-113831338D01*
D14*
X275120580Y-114481339D02*
X275120580Y-115131339D01*
D10*
X271936898Y-111552810D02*
G75*
G02*
X269720580Y-113431339I-2151318J291471D01*
G01*
X275220580Y-115131338D02*
G75*
G02*
X273120581Y-117031339I-2000000J99999D01*
G01*
D18*
X272336898Y-111952810D02*
G75*
G02*
X270120580Y-113831339I-2151318J291471D01*
G01*
D14*
X305124162Y-114547086D02*
X305124162Y-115197086D01*
D15*
X304624162Y-112097086D02*
X304624162Y-113897085D01*
D16*
X303494162Y-115597086D02*
X303494162Y-113357086D01*
D17*
X295124162Y-113747086D02*
X296424162Y-113797086D01*
D18*
X295424162Y-116497086D02*
X295424162Y-113997086D01*
D19*
X296724162Y-115297086D02*
X303424162Y-115297086D01*
D10*
X294924162Y-113497086D02*
X294924162Y-117097086D01*
X294944162Y-114497086D02*
X294944162Y-116747086D01*
X305224162Y-114447086D02*
X305024162Y-114447086D01*
X304974162Y-116047086D02*
X304974162Y-111597086D01*
X305224162Y-115197086D02*
X305224162Y-114447086D01*
X304974162Y-111597086D02*
X301944162Y-111597086D01*
X299724162Y-113497086D02*
X294924162Y-113497086D01*
X294924162Y-117097086D02*
X303124163Y-117097086D01*
D17*
X304774162Y-111797086D02*
X302324162Y-111797086D01*
D20*
X295074162Y-116897086D02*
X296324162Y-116897086D01*
D18*
X302340480Y-112018557D02*
G75*
G02*
X300124162Y-113897086I-2151318J291471D01*
G01*
D10*
X305224162Y-115197085D02*
G75*
G02*
X303124163Y-117097086I-2000000J99999D01*
G01*
X301940480Y-111618557D02*
G75*
G02*
X299724162Y-113497086I-2151318J291471D01*
G01*
D14*
X333874618Y-126319621D02*
X333874618Y-126969621D01*
D15*
X333374618Y-123869621D02*
X333374618Y-125669620D01*
D16*
X332244618Y-127369621D02*
X332244618Y-125129621D01*
D17*
X323874618Y-125519621D02*
X325174618Y-125569621D01*
D18*
X324174618Y-128269621D02*
X324174618Y-125769621D01*
D19*
X325474618Y-127069621D02*
X332174618Y-127069621D01*
D10*
X323674618Y-125269621D02*
X323674618Y-128869621D01*
X323694618Y-126269621D02*
X323694618Y-128519621D01*
X333974618Y-126219621D02*
X333774618Y-126219621D01*
X333724618Y-127819621D02*
X333724618Y-123369621D01*
X333974618Y-126969621D02*
X333974618Y-126219621D01*
X333724618Y-123369621D02*
X330694618Y-123369621D01*
X328474618Y-125269621D02*
X323674618Y-125269621D01*
X323674618Y-128869621D02*
X331874619Y-128869621D01*
D17*
X333524618Y-123569621D02*
X331074618Y-123569621D01*
D20*
X323824618Y-128669621D02*
X325074618Y-128669621D01*
D18*
X331090936Y-123791092D02*
G75*
G02*
X328874618Y-125669621I-2151318J291471D01*
G01*
D10*
X333974618Y-126969620D02*
G75*
G02*
X331874619Y-128869621I-2000000J99999D01*
G01*
X330690936Y-123391092D02*
G75*
G02*
X328474618Y-125269621I-2151318J291471D01*
G01*
D14*
X328395820Y-163870461D02*
X328395820Y-164520461D01*
D15*
X327895820Y-161420461D02*
X327895820Y-163220460D01*
D16*
X326765820Y-164920461D02*
X326765820Y-162680461D01*
D17*
X318395820Y-163070461D02*
X319695820Y-163120461D01*
D18*
X318695820Y-165820461D02*
X318695820Y-163320461D01*
D19*
X319995820Y-164620461D02*
X326695820Y-164620461D01*
D10*
X318195820Y-162820461D02*
X318195820Y-166420461D01*
X318215820Y-163820461D02*
X318215820Y-166070461D01*
X328495820Y-163770461D02*
X328295820Y-163770461D01*
X328245820Y-165370461D02*
X328245820Y-160920461D01*
X328495820Y-164520461D02*
X328495820Y-163770461D01*
X328245820Y-160920461D02*
X325215820Y-160920461D01*
X322995820Y-162820461D02*
X318195820Y-162820461D01*
X318195820Y-166420461D02*
X326395821Y-166420461D01*
D17*
X328045820Y-161120461D02*
X325595820Y-161120461D01*
D20*
X318345820Y-166220461D02*
X319595820Y-166220461D01*
D18*
X325612138Y-161341932D02*
G75*
G02*
X323395820Y-163220461I-2151318J291471D01*
G01*
D10*
X328495820Y-164520460D02*
G75*
G02*
X326395821Y-166420461I-2000000J99999D01*
G01*
X325212138Y-160941932D02*
G75*
G02*
X322995820Y-162820461I-2151318J291471D01*
G01*
D14*
X299626194Y-152074564D02*
X299626194Y-152724564D01*
D15*
X299126194Y-149624564D02*
X299126194Y-151424563D01*
D16*
X297996194Y-153124564D02*
X297996194Y-150884564D01*
D17*
X289626194Y-151274564D02*
X290926194Y-151324564D01*
D18*
X289926194Y-154024564D02*
X289926194Y-151524564D01*
D19*
X291226194Y-152824564D02*
X297926194Y-152824564D01*
D10*
X289426194Y-151024564D02*
X289426194Y-154624564D01*
X289446194Y-152024564D02*
X289446194Y-154274564D01*
X299726194Y-151974564D02*
X299526194Y-151974564D01*
X299476194Y-153574564D02*
X299476194Y-149124564D01*
X299726194Y-152724564D02*
X299726194Y-151974564D01*
X299476194Y-149124564D02*
X296446194Y-149124564D01*
X294226194Y-151024564D02*
X289426194Y-151024564D01*
X289426194Y-154624564D02*
X297626195Y-154624564D01*
D17*
X299276194Y-149324564D02*
X296826194Y-149324564D01*
D20*
X289576194Y-154424564D02*
X290826194Y-154424564D01*
D18*
X296842512Y-149546035D02*
G75*
G02*
X294626194Y-151424564I-2151318J291471D01*
G01*
D10*
X299726194Y-152724563D02*
G75*
G02*
X297626195Y-154624564I-2000000J99999D01*
G01*
X296442512Y-149146035D02*
G75*
G02*
X294226194Y-151024564I-2151318J291471D01*
G01*
D14*
X241285241Y-163870616D02*
X241285241Y-164520616D01*
D15*
X240785241Y-161420616D02*
X240785241Y-163220615D01*
D16*
X239655241Y-164920616D02*
X239655241Y-162680616D01*
D17*
X231285241Y-163070616D02*
X232585241Y-163120616D01*
D18*
X231585241Y-165820616D02*
X231585241Y-163320616D01*
D19*
X232885241Y-164620616D02*
X239585241Y-164620616D01*
D10*
X231085241Y-162820616D02*
X231085241Y-166420616D01*
X231105241Y-163820616D02*
X231105241Y-166070616D01*
X241385241Y-163770616D02*
X241185241Y-163770616D01*
X241135241Y-165370616D02*
X241135241Y-160920616D01*
X241385241Y-164520616D02*
X241385241Y-163770616D01*
X241135241Y-160920616D02*
X238105241Y-160920616D01*
X235885241Y-162820616D02*
X231085241Y-162820616D01*
X231085241Y-166420616D02*
X239285242Y-166420616D01*
D17*
X240935241Y-161120616D02*
X238485241Y-161120616D01*
D20*
X231235241Y-166220616D02*
X232485241Y-166220616D01*
D18*
X238501559Y-161342087D02*
G75*
G02*
X236285241Y-163220616I-2151318J291471D01*
G01*
D10*
X241385241Y-164520615D02*
G75*
G02*
X239285242Y-166420616I-2000000J99999D01*
G01*
X238101559Y-160942087D02*
G75*
G02*
X235885241Y-162820616I-2151318J291471D01*
G01*
D14*
X269185746Y-151996433D02*
X269185746Y-152646433D01*
D15*
X268685746Y-149546433D02*
X268685746Y-151346432D01*
D16*
X267555746Y-153046433D02*
X267555746Y-150806433D01*
D17*
X259185746Y-151196433D02*
X260485746Y-151246433D01*
D18*
X259485746Y-153946433D02*
X259485746Y-151446433D01*
D19*
X260785746Y-152746433D02*
X267485746Y-152746433D01*
D10*
X258985746Y-150946433D02*
X258985746Y-154546433D01*
X259005746Y-151946433D02*
X259005746Y-154196433D01*
X269285746Y-151896433D02*
X269085746Y-151896433D01*
X269035746Y-153496433D02*
X269035746Y-149046433D01*
X269285746Y-152646433D02*
X269285746Y-151896433D01*
X269035746Y-149046433D02*
X266005746Y-149046433D01*
X263785746Y-150946433D02*
X258985746Y-150946433D01*
X258985746Y-154546433D02*
X267185747Y-154546433D01*
D17*
X268835746Y-149246433D02*
X266385746Y-149246433D01*
D20*
X259135746Y-154346433D02*
X260385746Y-154346433D01*
D18*
X266402064Y-149467904D02*
G75*
G02*
X264185746Y-151346433I-2151318J291471D01*
G01*
D10*
X269285746Y-152646432D02*
G75*
G02*
X267185747Y-154546433I-2000000J99999D01*
G01*
X266002064Y-149067904D02*
G75*
G02*
X263785746Y-150946433I-2151318J291471D01*
G01*
M02*
