0
SECTION
2
HEADER
9
$INSUNITS
70
4
9
$ACADVER
1
AC1014
9
$HANDSEED
5
FFFF
0
ENDSEC
0
SECTION
2
TABLES
0
TABLE
2
VPORT
5
8
100
AcDbSymbolTable
0
ENDTAB
0
TABLE
2
LTYPE
5
5
100
AcDbSymbolTable
0
LTYPE
5
14
100
AcDbSymbolTableRecord
100
AcDbLinetypeTableRecord
2
BYBLOCK
70
0
0
LTYPE
5
15
100
AcDbSymbolTableRecord
100
AcDbLinetypeTableRecord
2
BYLAYER
70
0
0
ENDTAB
0
TABLE
2
LAYER
5
2
100
AcDbSymbolTable
70
2
0
LAYER
5
50
100
AcDbSymbolTableRecord
100
AcDbLayerTableRecord
2
0
70
0
6
CONTINUOUS
0
ENDTAB
0
TABLE
2
STYLE
5
3
100
AcDbSymbolTable
70
1
0
STYLE
5
11
100
AcDbSymbolTableRecord
100
AcDbTextStyleTableRecord
2
STANDARD
70
0
0
ENDTAB
0
TABLE
2
VIEW
5
6
100
AcDbSymbolTable
70
0
0
ENDTAB
0
TABLE
2
UCS
5
7
100
AcDbSymbolTable
70
0
0
ENDTAB
0
TABLE
2
APPID
5
9
100
AcDbSymbolTable
70
2
0
APPID
5
12
100
AcDbSymbolTableRecord
100
AcDbRegAppTableRecord
2
ACAD
70
0
0
ENDTAB
0
TABLE
2
DIMSTYLE
5
A
100
AcDbSymbolTable
70
1
0
ENDTAB
0
TABLE
2
BLOCK_RECORD
5
1
100
AcDbSymbolTable
70
1
0
BLOCK_RECORD
5
1F
100
AcDbSymbolTableRecord
100
AcDbBlockTableRecord
2
*MODEL_SPACE
0
BLOCK_RECORD
5
1B
100
AcDbSymbolTableRecord
100
AcDbBlockTableRecord
2
*PAPER_SPACE
0
ENDTAB
0
ENDSEC
0
SECTION
2
BLOCKS
0
BLOCK
5
20
100
AcDbEntity
100
AcDbBlockBegin
2
*MODEL_SPACE
0
ENDBLK
5
21
100
AcDbEntity
100
AcDbBlockEnd
0
BLOCK
5
1C
100
AcDbEntity
100
AcDbBlockBegin
2
*PAPER_SPACE
0
ENDBLK
5
1D
100
AcDbEntity
100
AcDbBlockEnd
0
ENDSEC
0
SECTION
2
ENTITIES
0
LWPOLYLINE
5
100
100
AcDbEntity
8
0
100
AcDbPolyline
90
8
70
1
43
0.0
10
-74.00000262260437
20
-100.25000013411045
10
-16.999999999999993
20
-100.25
42
0.41421356099484868
10
-14.750000000000004
20
-98
10
-14.749999999999993
20
-92
42
0.41421356237309798
10
-16.999999999999993
20
-89.750000000000014
10
-74.000001667067281
20
-89.750001370906901
42
0.41421341470924478
10
-76.250001102685843
20
-92.000000800937286
10
-76.25000262260437
20
-98.000000134110451
42
0.41421356375134172
0
LWPOLYLINE
5
101
100
AcDbEntity
8
0
100
AcDbPolyline
90
14
70
1
43
0.0
10
-56.354807624133436
20
-66.648481253648825
10
-109.02191330254485
20
-52.536372819433872
42
0.4142135623730932
10
-112.37465238797937
20
-54.472077632932034
10
-116.62575520378826
20
-70.337409329729979
42
0.41421356237309592
10
-114.69005039029007
20
-73.690148415164444
10
-98.933385348949656
20
-77.912134088399327
10
-103.15537102218454
20
-93.668799129739739
42
0.41421356237309503
10
-101.21966620868635
20
-97.021538215174218
10
-85.354334511888396
20
-101.27264103098312
42
0.41421356237309687
10
-82.001595426453932
20
-99.336936217484961
10
-77.779609753219049
20
-83.580271176144549
10
-62.022944711878637
20
-87.802256849379432
42
0.41421356237309531
10
-58.670205626444172
20
-85.866552035881256
10
-54.419102810635252
20
-70.001220339083304
42
0.41421356237309709
0
LWPOLYLINE
5
102
100
AcDbEntity
8
0
100
AcDbPolyline
90
8
70
1
43
0.0
10
-107.213043
20
-50.259074999999989
10
-21.106870999999998
20
-50.259074999999996
42
0.41421356237309465
10
-15.102861000000001
20
-44.255065000000009
10
-15.102860999999997
20
-10.066997000000006
42
0.41421356237309481
10
-21.919872999999992
20
-3.249985000000013
10
-106.42504199999999
20
-3.2499850000000063
42
0.41312146583171916
10
-113.115053
20
-9.964997000000011
10
-113.115053
20
-44.357066000000003
42
0.41421351274707896
0
LWPOLYLINE
5
103
100
AcDbEntity
8
0
100
AcDbPolyline
90
8
70
1
43
0.0
10
-257.30293713385367
20
-10.308511841826755
10
-257.30293713385367
20
-11.556012091857831
42
0.81983604918256348
10
-257.30293713385367
20
-36.561011591795676
10
-257.30293713385367
20
-37.808511841826757
10
-252.30293713385367
20
-37.808511841826757
10
-252.30293713385367
20
-36.56101159179569
42
0.81983604918256348
10
-252.30293713385367
20
-11.556012091857831
10
-252.30293713385367
20
-10.308511841826755
0
LWPOLYLINE
5
104
100
AcDbEntity
8
0
100
AcDbPolyline
90
12
70
1
43
0.0
10
0
20
-95
42
-0.41421356237309503
10
-10
20
-105
10
-118.69141582003635
20
-105
10
-118.69141582003635
20
-70.040362362765606
10
-138.47141582003621
20
-70.040362362765606
10
-138.47141582003621
20
-105
10
-280
20
-105
42
-0.41421356237309503
10
-290
20
-95
10
-289.99999999999994
20
-10
42
-0.41421356237309387
10
-280
20
0
10
-10
20
0
42
-0.41421356237309503
10
0
20
-10
0
LWPOLYLINE
5
105
100
AcDbEntity
8
0
100
AcDbPolyline
90
8
70
1
43
0.0
10
-170.192358180121
20
-10.308356268658541
10
-170.192358180121
20
-11.555920809637982
42
0.81983522255138097
10
-170.192358180121
20
-36.560791727679096
10
-170.192358180121
20
-37.808293225638927
10
-165.192358180121
20
-37.808293225638927
10
-165.192358180121
20
-36.560791727679096
42
0.81983522255138097
10
-165.192358180121
20
-11.555920809637982
10
-165.192358180121
20
-10.308356268658541
0
LWPOLYLINE
5
106
100
AcDbEntity
8
0
100
AcDbPolyline
90
8
70
1
43
0.0
10
-176.12362546498005
20
-47.874200379858237
10
-176.12362546498005
20
-49.121700629889347
42
0.81983604918256303
10
-176.12362546498005
20
-74.126700129827128
10
-176.12362546498005
20
-75.374200379858237
10
-171.12362546498005
20
-75.374200379858237
10
-171.12362546498005
20
-74.126700129827128
42
0.81983604918256303
10
-171.12362546498005
20
-49.121700629889347
10
-171.12362546498005
20
-47.874200379858237
0
LWPOLYLINE
5
107
100
AcDbEntity
8
0
100
AcDbPolyline
90
8
70
1
43
0.0
10
-223.53331133707536
20
-23.351908654676912
10
-223.53331133707536
20
-22.104408404645799
10
-228.53331133707536
20
-22.104408404645799
10
-228.53331133707536
20
-23.351908654676908
42
0.81983604918256303
10
-228.53331133707536
20
-48.356908154614686
10
-228.53331133707536
20
-49.604408404645795
10
-223.53331133707536
20
-49.604408404645795
10
-223.53331133707536
20
-48.356908154614686
42
0.81983604918256303
0
LWPOLYLINE
5
108
100
AcDbEntity
8
0
100
AcDbPolyline
90
8
70
1
43
0.0
10
-262.78173559532001
20
-74.11185141090229
10
-262.78173559532001
20
-75.35935166093337
10
-257.78173559532001
20
-75.35935166093337
10
-257.78173559532001
20
-74.111851410902304
42
0.81983604918256348
10
-257.78173559532001
20
-49.106851910964444
10
-257.78173559532001
20
-47.85935166093337
10
-262.78173559532001
20
-47.85935166093337
10
-262.78173559532001
20
-49.106851910964437
42
0.81983604918256348
0
LWPOLYLINE
5
109
100
AcDbEntity
8
0
100
AcDbPolyline
90
8
70
1
43
0.0
10
-199.02769704448411
20
-60.94513383630737
10
-199.02769704448411
20
-59.697633586276254
10
-204.02769704448411
20
-59.697633586276254
10
-204.02769704448411
20
-60.945133836307363
42
0.81983604918256325
10
-204.02769704448411
20
-85.950133336245145
10
-204.02769704448411
20
-87.197633586276254
10
-199.02769704448411
20
-87.197633586276254
10
-199.02769704448411
20
-85.950133336245145
42
0.81983604918256303
0
LWPOLYLINE
5
110
100
AcDbEntity
8
0
100
AcDbPolyline
90
8
70
1
43
0.0
10
-234.03127995772076
20
-85.884385833192937
10
-234.03127995772076
20
-87.131886083224046
10
-229.03127995772076
20
-87.131886083224046
10
-229.03127995772076
20
-85.884385833192951
42
0.81983604918256325
10
-229.03127995772076
20
-60.879386333255155
10
-229.03127995772076
20
-59.631886083224046
10
-234.03127995772076
20
-59.631886083224046
10
-234.03127995772076
20
-60.879386333255148
42
0.81983604918256325
0
LWPOLYLINE
5
111
100
AcDbEntity
8
0
100
AcDbPolyline
90
8
70
1
43
0.0
10
-193.09286396868359
20
-23.430039603571391
10
-193.09286396868359
20
-22.182539353540314
10
-198.09286396868359
20
-22.182539353540314
10
-198.09286396868359
20
-23.43003960357138
42
0.81983604918256348
10
-198.09286396868359
20
-48.43503910350924
10
-198.09286396868359
20
-49.682539353540314
10
-193.09286396868359
20
-49.682539353540314
10
-193.09286396868359
20
-48.435039103509247
42
0.81983604918256348
0
CIRCLE
5
112
100
AcDbEntity
8
0
100
AcDbCircle
10
-10
20
-10
30
0
40
3.0000000000000004
210
0
220
0
230
1
0
CIRCLE
5
113
100
AcDbEntity
8
0
100
AcDbCircle
10
-10
20
-95
30
0
40
3.0000000000000071
210
0
220
0
230
1
0
CIRCLE
5
114
100
AcDbEntity
8
0
100
AcDbCircle
10
-144.99999999999997
20
-10
30
0
40
3.0000000000000071
210
0
220
0
230
1
0
CIRCLE
5
115
100
AcDbEntity
8
0
100
AcDbCircle
10
-280
20
-95
30
0
40
3.0000000000000071
210
0
220
0
230
1
0
CIRCLE
5
116
100
AcDbEntity
8
0
100
AcDbCircle
10
-279.99999999999994
20
-10.000000000000004
30
0
40
3.0000000000000071
210
0
220
0
230
1
0
CIRCLE
5
117
100
AcDbEntity
8
0
100
AcDbCircle
10
-144.99999999999997
20
-95
30
0
40
3.0000000000000071
210
0
220
0
230
1
0
ENDSEC
0
SECTION
2
OBJECTS
0
DICTIONARY
5
C
100
AcDbDictionary
3
ACAD_GROUP
350
D
3
ACAD_MLINESTYLE
350
17
0
DICTIONARY
5
D
100
AcDbDictionary
0
DICTIONARY
5
1A
330
C
100
AcDbDictionary
0
DICTIONARY
5
17
100
AcDbDictionary
0
ENDSEC
0
EOF
