M48
; DRILL file {KiCad (5.1.10)-1} date 02/26/22 14:39:24
; FORMAT={-:-/ absolute / metric / decimal}
; #@! TF.CreationDate,2022-02-26T14:39:24-08:00
; #@! TF.GenerationSoftware,Kicad,Pcbnew,(5.1.10)-1
; #@! TF.FileFunction,NonPlated,1,2,NPTH
FMAT,2
METRIC
T1C0.650
T2C0.900
T3C1.702
T4C3.000
T5C3.429
%
G90
G05
T1
X81.827Y-101.367
X87.607Y-101.367
T2
X94.3Y-140.33
X97.3Y-140.33
T3
X76.552Y-112.652
X76.552Y-131.652
X76.552Y-150.652
X87.552Y-112.652
X87.552Y-131.652
X87.552Y-150.652
X103.291Y-114.002
X103.65Y-141.175
X113.917Y-116.849
X114.276Y-144.022
X132.453Y-109.125
X132.622Y-136.3
X138.02Y-124.771
X143.078Y-111.972
X143.247Y-139.147
X148.645Y-127.618
X156.99Y-127.391
X162.015Y-109.038
X163.622Y-137.06
X163.626Y-166.654
X167.616Y-130.238
X172.64Y-111.885
X174.247Y-139.907
X174.251Y-169.501
X174.73Y-134.602
X183.722Y-173.371
X185.355Y-137.449
X188.293Y-121.93
X191.02Y-149.265
X193.248Y-178.871
X198.918Y-124.777
X201.645Y-152.112
X203.517Y-176.122
X214.517Y-176.122
X216.389Y-152.112
X219.116Y-124.777
X224.785Y-178.871
X227.014Y-149.265
X229.741Y-121.93
X232.679Y-137.449
X234.312Y-173.371
X243.304Y-134.602
X243.783Y-169.501
X243.787Y-139.907
X245.394Y-111.885
X250.418Y-130.238
X254.408Y-166.654
X254.412Y-137.06
X256.019Y-109.038
X261.044Y-127.391
X269.389Y-127.618
X274.787Y-139.147
X274.956Y-111.972
X280.014Y-124.771
X285.412Y-136.3
X285.581Y-109.125
X303.758Y-144.022
X304.117Y-116.849
X314.384Y-141.175
X314.743Y-114.002
X330.481Y-112.652
X330.481Y-131.652
X330.481Y-150.652
X341.481Y-112.652
X341.481Y-131.652
X341.481Y-150.652
T4
X77.052Y-116.402
X77.052Y-135.402
X82.052Y-118.602
X82.052Y-137.602
X82.052Y-144.702
X87.052Y-146.902
X110.144Y-109.678
X110.503Y-136.851
X114.404Y-113.097
X114.763Y-140.271
X132.134Y-140.052
X136.395Y-143.471
X139.305Y-104.801
X143.565Y-108.22
X144.873Y-120.447
X149.133Y-123.866
X163.134Y-140.811
X163.843Y-123.067
X167.395Y-144.23
X168.103Y-126.486
X168.867Y-104.715
X170.478Y-162.331
X173.128Y-108.134
X174.738Y-165.75
X181.582Y-130.278
X185.842Y-133.698
X190.532Y-153.017
X191.46Y-170.969
X194.69Y-175.374
X194.792Y-156.436
X195.145Y-117.606
X199.405Y-121.025
X209.017Y-170.172
X214.017Y-172.372
X217.842Y-155.605
X222.889Y-117.606
X223.242Y-156.436
X226.573Y-170.968
X228.288Y-118.437
X232.003Y-170.374
X236.452Y-130.278
X241.851Y-131.109
X245.24Y-143.399
X247.556Y-162.331
X249.167Y-104.715
X250.639Y-144.23
X252.955Y-163.162
X254.191Y-123.067
X254.566Y-105.546
X259.59Y-123.898
X273.161Y-120.447
X276.24Y-142.64
X278.56Y-121.278
X278.729Y-104.801
X281.639Y-143.471
X284.128Y-105.632
X307.531Y-136.851
X307.89Y-109.678
X312.93Y-137.682
X313.289Y-110.509
X330.981Y-154.402
X335.981Y-106.702
X335.981Y-125.702
X335.981Y-156.602
X340.981Y-108.902
X340.981Y-127.902
T5
X82.052Y-112.652
X82.052Y-131.652
X82.052Y-150.652
X108.604Y-115.425
X108.963Y-142.599
X137.765Y-110.548
X137.935Y-137.724
X143.333Y-126.194
X162.303Y-128.814
X167.327Y-110.462
X168.935Y-138.483
X168.938Y-168.078
X180.042Y-136.026
X188.485Y-176.121
X193.605Y-123.353
X196.332Y-150.689
X209.017Y-176.122
X221.702Y-150.689
X224.429Y-123.353
X229.548Y-176.121
X237.992Y-136.026
X249.096Y-168.078
X249.099Y-138.483
X250.707Y-110.462
X255.731Y-128.814
X274.701Y-126.194
X280.099Y-137.724
X280.269Y-110.548
X309.071Y-142.599
X309.43Y-115.425
X335.981Y-112.652
X335.981Y-131.652
X335.981Y-150.652
T0
M30
