M48
; DRILL file {KiCad (5.1.10)-1} date 02/26/22 14:39:24
; FORMAT={-:-/ absolute / metric / decimal}
; #@! TF.CreationDate,2022-02-26T14:39:24-08:00
; #@! TF.GenerationSoftware,Kicad,Pcbnew,(5.1.10)-1
; #@! TF.FileFunction,Plated,1,2,PTH
FMAT,2
METRIC
T1C0.350
T2C0.500
T3C0.600
T4C1.000
T5C2.200
T6C2.499
T7C2.499
%
G90
G05
T1
X90.402Y-118.602
X96.165Y-126.765
X101.6Y-126.0
X108.4Y-132.4
X109.011Y-106.8
X140.6Y-141.0
X141.6Y-123.4
X149.634Y-102.0
X160.6Y-125.484
X164.4Y-114.4
X170.6Y-149.2
X178.4Y-132.4
X179.8Y-106.8
X183.0Y-106.8
X186.6Y-142.0
X187.2Y-100.0
X187.2Y-141.4
X187.8Y-131.8
X187.8Y-140.8
X188.8Y-132.2
X189.6Y-132.8
X190.6Y-125.8
X190.6Y-129.4
X191.2Y-134.6
X194.2Y-132.8
X197.4Y-141.0
X198.0Y-161.6
X198.179Y-142.021
X199.4Y-140.6
X200.4Y-136.0
X201.6Y-131.2
X201.6Y-133.475
X203.2Y-129.8
X205.6Y-143.0
X205.742Y-156.658
X205.8Y-150.6
X206.612Y-133.787
X206.8Y-142.0
X207.4Y-145.6
X207.4Y-154.0
X207.6Y-144.6
X207.742Y-138.254
X207.742Y-139.529
X207.742Y-140.804
X209.017Y-138.254
X209.017Y-139.529
X209.017Y-140.804
X209.2Y-129.0
X209.2Y-137.2
X209.217Y-134.383
X210.292Y-138.254
X210.292Y-139.529
X210.292Y-140.804
X211.2Y-125.6
X211.2Y-127.6
X212.45Y-146.89
X212.454Y-147.742
X212.475Y-148.612
X214.4Y-152.4
X214.8Y-133.0
X215.8Y-133.0
X219.4Y-169.2
X238.6Y-163.2
X240.315Y-142.485
X241.813Y-134.011
X242.077Y-148.877
X246.6Y-141.4
X247.8Y-133.4
X254.4Y-111.0
X255.6Y-112.2
X262.8Y-126.6
X265.6Y-117.2
X265.6Y-120.047
X268.71Y-119.653
X269.4Y-119.247
X273.2Y-147.0
X277.6Y-118.8
X281.8Y-123.2
X283.6Y-110.6
X284.4Y-118.8
X285.8Y-119.4
X286.6Y-112.6
X287.4Y-120.112
X311.0Y-106.8
X327.0Y-108.0
X327.0Y-120.4
T2
X68.275Y-151.017
X68.275Y-156.217
X70.317Y-151.017
X70.317Y-156.217
X72.155Y-151.778
X72.155Y-155.455
X72.917Y-153.617
X89.417Y-125.017
X90.091Y-123.39
X90.091Y-126.643
X91.717Y-122.717
X91.717Y-127.317
X93.343Y-123.39
X93.343Y-126.643
X94.017Y-125.017
X255.817Y-180.017
X255.817Y-184.617
X257.017Y-180.017
X257.017Y-184.617
X258.217Y-180.017
X258.217Y-184.617
X325.367Y-122.717
X325.367Y-127.317
X326.567Y-122.717
X326.567Y-127.317
X327.767Y-122.7
X327.767Y-127.317
X345.117Y-153.617
X345.879Y-151.778
X345.879Y-155.455
X347.717Y-151.017
X347.717Y-156.217
X349.759Y-151.017
X349.759Y-156.217
T4
X191.237Y-100.846
X191.237Y-103.386
X193.777Y-100.846
X193.777Y-103.386
X196.317Y-100.846
X196.317Y-103.386
X198.857Y-100.846
X198.857Y-103.386
X201.397Y-100.846
X201.397Y-103.386
X203.937Y-100.846
X203.937Y-103.386
X206.477Y-100.846
X206.477Y-103.386
X209.017Y-100.846
X209.017Y-103.386
X211.557Y-100.846
X211.557Y-103.386
X214.097Y-100.846
X214.097Y-103.386
X216.637Y-100.846
X216.637Y-103.386
X219.177Y-100.846
X219.177Y-103.386
X221.717Y-100.846
X221.717Y-103.386
X224.257Y-100.846
X224.257Y-103.386
X226.797Y-100.846
X226.797Y-103.386
T5
X71.516Y-186.716
X71.517Y-102.116
X126.942Y-186.716
X126.942Y-102.116
X182.368Y-102.116
X182.368Y-186.716
X235.666Y-186.716
X235.666Y-102.116
X291.091Y-102.116
X291.092Y-186.716
X346.517Y-102.117
X346.517Y-186.716
T7
X91.717Y-125.017
T3
X80.397Y-97.417G85X80.397Y-98.017
G05
X80.397Y-101.347G85X80.397Y-102.447
G05
X89.037Y-97.417G85X89.037Y-98.017
G05
X89.037Y-101.347G85X89.037Y-102.447
G05
T6
X255.766Y-182.317G85X258.268Y-182.317
G05
X325.316Y-125.017G85X327.818Y-125.017
G05
T0
M30
