%TF.GenerationSoftware,KiCad,Pcbnew,(5.1.10)-1*%
%TF.CreationDate,2022-02-26T14:39:07-08:00*%
%TF.ProjectId,keefighter,6b656566-6967-4687-9465-722e6b696361,rev?*%
%TF.SameCoordinates,Original*%
%TF.FileFunction,Paste,Bot*%
%TF.FilePolarity,Positive*%
%FSLAX46Y46*%
G04 Gerber Fmt 4.6, Leading zero omitted, Abs format (unit mm)*
G04 Created by KiCad (PCBNEW (5.1.10)-1) date 2022-02-26 14:39:07*
%MOMM*%
%LPD*%
G01*
G04 APERTURE LIST*
%ADD10R,0.600000X1.450000*%
%ADD11R,0.300000X1.450000*%
%ADD12C,0.100000*%
%ADD13R,2.600000X2.600000*%
%ADD14R,1.000000X0.800000*%
%ADD15R,0.700000X1.500000*%
%ADD16R,1.200000X1.400000*%
%ADD17R,0.650000X1.060000*%
G04 APERTURE END LIST*
D10*
X87966904Y-102811690D03*
X81466904Y-102811690D03*
X87166904Y-102811690D03*
X82266904Y-102811690D03*
D11*
X82966904Y-102811690D03*
X86466904Y-102811690D03*
X83466904Y-102811690D03*
X85966904Y-102811690D03*
X83966904Y-102811690D03*
X85466904Y-102811690D03*
X84966904Y-102811690D03*
X84466904Y-102811690D03*
G36*
G01*
X93166904Y-146116690D02*
X93166904Y-144516690D01*
G75*
G02*
X93366904Y-144316690I200000J0D01*
G01*
X93766904Y-144316690D01*
G75*
G02*
X93966904Y-144516690I0J-200000D01*
G01*
X93966904Y-146116690D01*
G75*
G02*
X93766904Y-146316690I-200000J0D01*
G01*
X93366904Y-146316690D01*
G75*
G02*
X93166904Y-146116690I0J200000D01*
G01*
G37*
G36*
G01*
X97366904Y-146116690D02*
X97366904Y-144516690D01*
G75*
G02*
X97566904Y-144316690I200000J0D01*
G01*
X97966904Y-144316690D01*
G75*
G02*
X98166904Y-144516690I0J-200000D01*
G01*
X98166904Y-146116690D01*
G75*
G02*
X97966904Y-146316690I-200000J0D01*
G01*
X97566904Y-146316690D01*
G75*
G02*
X97366904Y-146116690I0J200000D01*
G01*
G37*
D12*
G36*
X213759847Y-158044684D02*
G01*
X213086918Y-155533277D01*
X215598325Y-154860348D01*
X216271254Y-157371755D01*
X213759847Y-158044684D01*
G37*
G36*
X225485692Y-157180361D02*
G01*
X224812763Y-154668954D01*
X227324170Y-153996025D01*
X227997099Y-156507432D01*
X225485692Y-157180361D01*
G37*
G36*
X282642892Y-118838134D02*
G01*
X283315821Y-121349541D01*
X280804414Y-122022470D01*
X280131485Y-119511063D01*
X282642892Y-118838134D01*
G37*
G36*
X270917047Y-119702457D02*
G01*
X271589976Y-122213864D01*
X269078569Y-122886793D01*
X268405640Y-120375386D01*
X270917047Y-119702457D01*
G37*
G36*
X263672663Y-121457917D02*
G01*
X264345592Y-123969324D01*
X261834185Y-124642253D01*
X261161256Y-122130846D01*
X263672663Y-121457917D01*
G37*
G36*
X251946818Y-122322240D02*
G01*
X252619747Y-124833647D01*
X250108340Y-125506576D01*
X249435411Y-122995169D01*
X251946818Y-122322240D01*
G37*
G36*
X245933612Y-128669512D02*
G01*
X246606541Y-131180919D01*
X244095134Y-131853848D01*
X243422205Y-129342441D01*
X245933612Y-128669512D01*
G37*
G36*
X234207767Y-129533835D02*
G01*
X234880696Y-132045242D01*
X232369289Y-132718171D01*
X231696360Y-130206764D01*
X234207767Y-129533835D01*
G37*
G36*
X190597874Y-133625896D02*
G01*
X189924945Y-136137303D01*
X187413538Y-135464374D01*
X188086467Y-132952967D01*
X190597874Y-133625896D01*
G37*
G36*
X180010832Y-128511499D02*
G01*
X179337903Y-131022906D01*
X176826496Y-130349977D01*
X177499425Y-127838570D01*
X180010832Y-128511499D01*
G37*
G36*
X172858823Y-126414301D02*
G01*
X172185894Y-128925708D01*
X169674487Y-128252779D01*
X170347416Y-125741372D01*
X172858823Y-126414301D01*
G37*
G36*
X162271781Y-121299904D02*
G01*
X161598852Y-123811311D01*
X159087445Y-123138382D01*
X159760374Y-120626975D01*
X162271781Y-121299904D01*
G37*
G36*
X153888594Y-123794518D02*
G01*
X153215665Y-126305925D01*
X150704258Y-125632996D01*
X151377187Y-123121589D01*
X153888594Y-123794518D01*
G37*
G36*
X143301552Y-118680121D02*
G01*
X142628623Y-121191528D01*
X140117216Y-120518599D01*
X140790145Y-118007192D01*
X143301552Y-118680121D01*
G37*
D13*
X327706469Y-154402224D03*
X339256469Y-156602224D03*
D12*
G36*
X257037427Y-160721853D02*
G01*
X257710356Y-163233260D01*
X255198949Y-163906189D01*
X254526020Y-161394782D01*
X257037427Y-160721853D01*
G37*
G36*
X245311582Y-161586176D02*
G01*
X245984511Y-164097583D01*
X243473104Y-164770512D01*
X242800175Y-162259105D01*
X245311582Y-161586176D01*
G37*
G36*
X235315558Y-166960284D02*
G01*
X236615558Y-169211950D01*
X234363892Y-170511950D01*
X233063892Y-168260284D01*
X235315558Y-166960284D01*
G37*
G36*
X224212965Y-170830028D02*
G01*
X225512965Y-173081694D01*
X223261299Y-174381694D01*
X221961299Y-172130028D01*
X224212965Y-170830028D01*
G37*
D13*
X217291703Y-172371651D03*
X205741703Y-170171651D03*
D12*
G36*
X199302234Y-176535430D02*
G01*
X198002234Y-178787096D01*
X195750568Y-177487096D01*
X197050568Y-175235430D01*
X199302234Y-176535430D01*
G37*
G36*
X190399641Y-168855174D02*
G01*
X189099641Y-171106840D01*
X186847975Y-169806840D01*
X188147975Y-167555174D01*
X190399641Y-168855174D01*
G37*
G36*
X179494059Y-165678237D02*
G01*
X178821130Y-168189644D01*
X176309723Y-167516715D01*
X176982652Y-165005308D01*
X179494059Y-165678237D01*
G37*
G36*
X168907017Y-160563840D02*
G01*
X168234088Y-163075247D01*
X165722681Y-162402318D01*
X166395610Y-159890911D01*
X168907017Y-160563840D01*
G37*
D13*
X90327044Y-146902024D03*
X78777044Y-144702024D03*
X344256469Y-127902224D03*
X332706469Y-125702224D03*
D12*
G36*
X317012780Y-135242588D02*
G01*
X317685709Y-137753995D01*
X315174302Y-138426924D01*
X314501373Y-135915517D01*
X317012780Y-135242588D01*
G37*
G36*
X305286935Y-136106911D02*
G01*
X305959864Y-138618318D01*
X303448457Y-139291247D01*
X302775528Y-136779840D01*
X305286935Y-136106911D01*
G37*
G36*
X272157714Y-145080007D02*
G01*
X271484785Y-142568600D01*
X273996192Y-141895671D01*
X274669121Y-144407078D01*
X272157714Y-145080007D01*
G37*
G36*
X283883559Y-144215684D02*
G01*
X283210630Y-141704277D01*
X285722037Y-141031348D01*
X286394966Y-143542755D01*
X283883559Y-144215684D01*
G37*
G36*
X241157769Y-145839226D02*
G01*
X240484840Y-143327819D01*
X242996247Y-142654890D01*
X243669176Y-145166297D01*
X241157769Y-145839226D01*
G37*
G36*
X252883614Y-144974903D02*
G01*
X252210685Y-142463496D01*
X254722092Y-141790567D01*
X255395021Y-144301974D01*
X252883614Y-144974903D01*
G37*
G36*
X185776679Y-153088300D02*
G01*
X186449608Y-150576893D01*
X188961015Y-151249822D01*
X188288086Y-153761229D01*
X185776679Y-153088300D01*
G37*
G36*
X196363721Y-158202697D02*
G01*
X197036650Y-155691290D01*
X199548057Y-156364219D01*
X198875128Y-158875626D01*
X196363721Y-158202697D01*
G37*
G36*
X158378757Y-140882842D02*
G01*
X159051686Y-138371435D01*
X161563093Y-139044364D01*
X160890164Y-141555771D01*
X158378757Y-140882842D01*
G37*
G36*
X168965799Y-145997239D02*
G01*
X169638728Y-143485832D01*
X172150135Y-144158761D01*
X171477206Y-146670168D01*
X168965799Y-145997239D01*
G37*
G36*
X127378812Y-140123623D02*
G01*
X128051741Y-137612216D01*
X130563148Y-138285145D01*
X129890219Y-140796552D01*
X127378812Y-140123623D01*
G37*
G36*
X137965854Y-145238020D02*
G01*
X138638783Y-142726613D01*
X141150190Y-143399542D01*
X140477261Y-145910949D01*
X137965854Y-145238020D01*
G37*
G36*
X119518706Y-140198972D02*
G01*
X118845777Y-142710379D01*
X116334370Y-142037450D01*
X117007299Y-139526043D01*
X119518706Y-140198972D01*
G37*
G36*
X108931664Y-135084575D02*
G01*
X108258735Y-137595982D01*
X105747328Y-136923053D01*
X106420257Y-134411646D01*
X108931664Y-135084575D01*
G37*
D13*
X73777044Y-135402024D03*
X85327044Y-137602024D03*
X344256469Y-108902224D03*
X332706469Y-106702224D03*
D12*
G36*
X317371769Y-108069026D02*
G01*
X318044698Y-110580433D01*
X315533291Y-111253362D01*
X314860362Y-108741955D01*
X317371769Y-108069026D01*
G37*
G36*
X305645924Y-108933349D02*
G01*
X306318853Y-111444756D01*
X303807446Y-112117685D01*
X303134517Y-109606278D01*
X305645924Y-108933349D01*
G37*
G36*
X288210459Y-103192313D02*
G01*
X288883388Y-105703720D01*
X286371981Y-106376649D01*
X285699052Y-103865242D01*
X288210459Y-103192313D01*
G37*
G36*
X276484614Y-104056636D02*
G01*
X277157543Y-106568043D01*
X274646136Y-107240972D01*
X273973207Y-104729565D01*
X276484614Y-104056636D01*
G37*
G36*
X258648273Y-103105806D02*
G01*
X259321202Y-105617213D01*
X256809795Y-106290142D01*
X256136866Y-103778735D01*
X258648273Y-103105806D01*
G37*
G36*
X246922428Y-103970129D02*
G01*
X247595357Y-106481536D01*
X245083950Y-107154465D01*
X244411021Y-104643058D01*
X246922428Y-103970129D01*
G37*
G36*
X232370481Y-115997004D02*
G01*
X233043410Y-118508411D01*
X230532003Y-119181340D01*
X229859074Y-116669933D01*
X232370481Y-115997004D01*
G37*
G36*
X220644636Y-116861327D02*
G01*
X221317565Y-119372734D01*
X218806158Y-120045663D01*
X218133229Y-117534256D01*
X220644636Y-116861327D01*
G37*
G36*
X204161005Y-120953388D02*
G01*
X203488076Y-123464795D01*
X200976669Y-122791866D01*
X201649598Y-120280459D01*
X204161005Y-120953388D01*
G37*
G36*
X193573963Y-115838991D02*
G01*
X192901034Y-118350398D01*
X190389627Y-117677469D01*
X191062556Y-115166062D01*
X193573963Y-115838991D01*
G37*
G36*
X177883213Y-108062190D02*
G01*
X177210284Y-110573597D01*
X174698877Y-109900668D01*
X175371806Y-107389261D01*
X177883213Y-108062190D01*
G37*
G36*
X167296171Y-102947793D02*
G01*
X166623242Y-105459200D01*
X164111835Y-104786271D01*
X164784764Y-102274864D01*
X167296171Y-102947793D01*
G37*
G36*
X148321027Y-108148697D02*
G01*
X147648098Y-110660104D01*
X145136691Y-109987175D01*
X145809620Y-107475768D01*
X148321027Y-108148697D01*
G37*
G36*
X137733985Y-103034300D02*
G01*
X137061056Y-105545707D01*
X134549649Y-104872778D01*
X135222578Y-102361371D01*
X137733985Y-103034300D01*
G37*
G36*
X119159717Y-113025410D02*
G01*
X118486788Y-115536817D01*
X115975381Y-114863888D01*
X116648310Y-112352481D01*
X119159717Y-113025410D01*
G37*
G36*
X108572675Y-107911013D02*
G01*
X107899746Y-110422420D01*
X105388339Y-109749491D01*
X106061268Y-107238084D01*
X108572675Y-107911013D01*
G37*
D13*
X73777044Y-116402024D03*
X85327044Y-118602024D03*
G36*
G01*
X83125000Y-107025000D02*
X83675000Y-107025000D01*
G75*
G02*
X83875000Y-107225000I0J-200000D01*
G01*
X83875000Y-107625000D01*
G75*
G02*
X83675000Y-107825000I-200000J0D01*
G01*
X83125000Y-107825000D01*
G75*
G02*
X82925000Y-107625000I0J200000D01*
G01*
X82925000Y-107225000D01*
G75*
G02*
X83125000Y-107025000I200000J0D01*
G01*
G37*
G36*
G01*
X83125000Y-105375000D02*
X83675000Y-105375000D01*
G75*
G02*
X83875000Y-105575000I0J-200000D01*
G01*
X83875000Y-105975000D01*
G75*
G02*
X83675000Y-106175000I-200000J0D01*
G01*
X83125000Y-106175000D01*
G75*
G02*
X82925000Y-105975000I0J200000D01*
G01*
X82925000Y-105575000D01*
G75*
G02*
X83125000Y-105375000I200000J0D01*
G01*
G37*
G36*
G01*
X87625000Y-107675000D02*
X87625000Y-107125000D01*
G75*
G02*
X87825000Y-106925000I200000J0D01*
G01*
X88225000Y-106925000D01*
G75*
G02*
X88425000Y-107125000I0J-200000D01*
G01*
X88425000Y-107675000D01*
G75*
G02*
X88225000Y-107875000I-200000J0D01*
G01*
X87825000Y-107875000D01*
G75*
G02*
X87625000Y-107675000I0J200000D01*
G01*
G37*
G36*
G01*
X85975000Y-107675000D02*
X85975000Y-107125000D01*
G75*
G02*
X86175000Y-106925000I200000J0D01*
G01*
X86575000Y-106925000D01*
G75*
G02*
X86775000Y-107125000I0J-200000D01*
G01*
X86775000Y-107675000D01*
G75*
G02*
X86575000Y-107875000I-200000J0D01*
G01*
X86175000Y-107875000D01*
G75*
G02*
X85975000Y-107675000I0J200000D01*
G01*
G37*
G36*
G01*
X209475000Y-149775000D02*
X208925000Y-149775000D01*
G75*
G02*
X208725000Y-149575000I0J200000D01*
G01*
X208725000Y-149175000D01*
G75*
G02*
X208925000Y-148975000I200000J0D01*
G01*
X209475000Y-148975000D01*
G75*
G02*
X209675000Y-149175000I0J-200000D01*
G01*
X209675000Y-149575000D01*
G75*
G02*
X209475000Y-149775000I-200000J0D01*
G01*
G37*
G36*
G01*
X209475000Y-151425000D02*
X208925000Y-151425000D01*
G75*
G02*
X208725000Y-151225000I0J200000D01*
G01*
X208725000Y-150825000D01*
G75*
G02*
X208925000Y-150625000I200000J0D01*
G01*
X209475000Y-150625000D01*
G75*
G02*
X209675000Y-150825000I0J-200000D01*
G01*
X209675000Y-151225000D01*
G75*
G02*
X209475000Y-151425000I-200000J0D01*
G01*
G37*
G36*
G01*
X206125000Y-131625000D02*
X206675000Y-131625000D01*
G75*
G02*
X206875000Y-131825000I0J-200000D01*
G01*
X206875000Y-132225000D01*
G75*
G02*
X206675000Y-132425000I-200000J0D01*
G01*
X206125000Y-132425000D01*
G75*
G02*
X205925000Y-132225000I0J200000D01*
G01*
X205925000Y-131825000D01*
G75*
G02*
X206125000Y-131625000I200000J0D01*
G01*
G37*
G36*
G01*
X206125000Y-129975000D02*
X206675000Y-129975000D01*
G75*
G02*
X206875000Y-130175000I0J-200000D01*
G01*
X206875000Y-130575000D01*
G75*
G02*
X206675000Y-130775000I-200000J0D01*
G01*
X206125000Y-130775000D01*
G75*
G02*
X205925000Y-130575000I0J200000D01*
G01*
X205925000Y-130175000D01*
G75*
G02*
X206125000Y-129975000I200000J0D01*
G01*
G37*
G36*
G01*
X207725000Y-131625000D02*
X208275000Y-131625000D01*
G75*
G02*
X208475000Y-131825000I0J-200000D01*
G01*
X208475000Y-132225000D01*
G75*
G02*
X208275000Y-132425000I-200000J0D01*
G01*
X207725000Y-132425000D01*
G75*
G02*
X207525000Y-132225000I0J200000D01*
G01*
X207525000Y-131825000D01*
G75*
G02*
X207725000Y-131625000I200000J0D01*
G01*
G37*
G36*
G01*
X207725000Y-129975000D02*
X208275000Y-129975000D01*
G75*
G02*
X208475000Y-130175000I0J-200000D01*
G01*
X208475000Y-130575000D01*
G75*
G02*
X208275000Y-130775000I-200000J0D01*
G01*
X207725000Y-130775000D01*
G75*
G02*
X207525000Y-130575000I0J200000D01*
G01*
X207525000Y-130175000D01*
G75*
G02*
X207725000Y-129975000I200000J0D01*
G01*
G37*
G36*
G01*
X213025000Y-120475000D02*
X213025000Y-119925000D01*
G75*
G02*
X213225000Y-119725000I200000J0D01*
G01*
X213625000Y-119725000D01*
G75*
G02*
X213825000Y-119925000I0J-200000D01*
G01*
X213825000Y-120475000D01*
G75*
G02*
X213625000Y-120675000I-200000J0D01*
G01*
X213225000Y-120675000D01*
G75*
G02*
X213025000Y-120475000I0J200000D01*
G01*
G37*
G36*
G01*
X211375000Y-120475000D02*
X211375000Y-119925000D01*
G75*
G02*
X211575000Y-119725000I200000J0D01*
G01*
X211975000Y-119725000D01*
G75*
G02*
X212175000Y-119925000I0J-200000D01*
G01*
X212175000Y-120475000D01*
G75*
G02*
X211975000Y-120675000I-200000J0D01*
G01*
X211575000Y-120675000D01*
G75*
G02*
X211375000Y-120475000I0J200000D01*
G01*
G37*
G36*
G01*
X215425000Y-134675000D02*
X215425000Y-134125000D01*
G75*
G02*
X215625000Y-133925000I200000J0D01*
G01*
X216025000Y-133925000D01*
G75*
G02*
X216225000Y-134125000I0J-200000D01*
G01*
X216225000Y-134675000D01*
G75*
G02*
X216025000Y-134875000I-200000J0D01*
G01*
X215625000Y-134875000D01*
G75*
G02*
X215425000Y-134675000I0J200000D01*
G01*
G37*
G36*
G01*
X213775000Y-134675000D02*
X213775000Y-134125000D01*
G75*
G02*
X213975000Y-133925000I200000J0D01*
G01*
X214375000Y-133925000D01*
G75*
G02*
X214575000Y-134125000I0J-200000D01*
G01*
X214575000Y-134675000D01*
G75*
G02*
X214375000Y-134875000I-200000J0D01*
G01*
X213975000Y-134875000D01*
G75*
G02*
X213775000Y-134675000I0J200000D01*
G01*
G37*
G36*
G01*
X202075000Y-134150000D02*
X202075000Y-134650000D01*
G75*
G02*
X201850000Y-134875000I-225000J0D01*
G01*
X201400000Y-134875000D01*
G75*
G02*
X201175000Y-134650000I0J225000D01*
G01*
X201175000Y-134150000D01*
G75*
G02*
X201400000Y-133925000I225000J0D01*
G01*
X201850000Y-133925000D01*
G75*
G02*
X202075000Y-134150000I0J-225000D01*
G01*
G37*
G36*
G01*
X203625000Y-134150000D02*
X203625000Y-134650000D01*
G75*
G02*
X203400000Y-134875000I-225000J0D01*
G01*
X202950000Y-134875000D01*
G75*
G02*
X202725000Y-134650000I0J225000D01*
G01*
X202725000Y-134150000D01*
G75*
G02*
X202950000Y-133925000I225000J0D01*
G01*
X203400000Y-133925000D01*
G75*
G02*
X203625000Y-134150000I0J-225000D01*
G01*
G37*
G36*
G01*
X202075000Y-135750000D02*
X202075000Y-136250000D01*
G75*
G02*
X201850000Y-136475000I-225000J0D01*
G01*
X201400000Y-136475000D01*
G75*
G02*
X201175000Y-136250000I0J225000D01*
G01*
X201175000Y-135750000D01*
G75*
G02*
X201400000Y-135525000I225000J0D01*
G01*
X201850000Y-135525000D01*
G75*
G02*
X202075000Y-135750000I0J-225000D01*
G01*
G37*
G36*
G01*
X203625000Y-135750000D02*
X203625000Y-136250000D01*
G75*
G02*
X203400000Y-136475000I-225000J0D01*
G01*
X202950000Y-136475000D01*
G75*
G02*
X202725000Y-136250000I0J225000D01*
G01*
X202725000Y-135750000D01*
G75*
G02*
X202950000Y-135525000I225000J0D01*
G01*
X203400000Y-135525000D01*
G75*
G02*
X203625000Y-135750000I0J-225000D01*
G01*
G37*
G36*
G01*
X207150000Y-148925000D02*
X207650000Y-148925000D01*
G75*
G02*
X207875000Y-149150000I0J-225000D01*
G01*
X207875000Y-149600000D01*
G75*
G02*
X207650000Y-149825000I-225000J0D01*
G01*
X207150000Y-149825000D01*
G75*
G02*
X206925000Y-149600000I0J225000D01*
G01*
X206925000Y-149150000D01*
G75*
G02*
X207150000Y-148925000I225000J0D01*
G01*
G37*
G36*
G01*
X207150000Y-147375000D02*
X207650000Y-147375000D01*
G75*
G02*
X207875000Y-147600000I0J-225000D01*
G01*
X207875000Y-148050000D01*
G75*
G02*
X207650000Y-148275000I-225000J0D01*
G01*
X207150000Y-148275000D01*
G75*
G02*
X206925000Y-148050000I0J225000D01*
G01*
X206925000Y-147600000D01*
G75*
G02*
X207150000Y-147375000I225000J0D01*
G01*
G37*
G36*
G01*
X216125000Y-140850000D02*
X216125000Y-140350000D01*
G75*
G02*
X216350000Y-140125000I225000J0D01*
G01*
X216800000Y-140125000D01*
G75*
G02*
X217025000Y-140350000I0J-225000D01*
G01*
X217025000Y-140850000D01*
G75*
G02*
X216800000Y-141075000I-225000J0D01*
G01*
X216350000Y-141075000D01*
G75*
G02*
X216125000Y-140850000I0J225000D01*
G01*
G37*
G36*
G01*
X214575000Y-140850000D02*
X214575000Y-140350000D01*
G75*
G02*
X214800000Y-140125000I225000J0D01*
G01*
X215250000Y-140125000D01*
G75*
G02*
X215475000Y-140350000I0J-225000D01*
G01*
X215475000Y-140850000D01*
G75*
G02*
X215250000Y-141075000I-225000J0D01*
G01*
X214800000Y-141075000D01*
G75*
G02*
X214575000Y-140850000I0J225000D01*
G01*
G37*
G36*
G01*
X200875000Y-140350000D02*
X200875000Y-140850000D01*
G75*
G02*
X200650000Y-141075000I-225000J0D01*
G01*
X200200000Y-141075000D01*
G75*
G02*
X199975000Y-140850000I0J225000D01*
G01*
X199975000Y-140350000D01*
G75*
G02*
X200200000Y-140125000I225000J0D01*
G01*
X200650000Y-140125000D01*
G75*
G02*
X200875000Y-140350000I0J-225000D01*
G01*
G37*
G36*
G01*
X202425000Y-140350000D02*
X202425000Y-140850000D01*
G75*
G02*
X202200000Y-141075000I-225000J0D01*
G01*
X201750000Y-141075000D01*
G75*
G02*
X201525000Y-140850000I0J225000D01*
G01*
X201525000Y-140350000D01*
G75*
G02*
X201750000Y-140125000I225000J0D01*
G01*
X202200000Y-140125000D01*
G75*
G02*
X202425000Y-140350000I0J-225000D01*
G01*
G37*
G36*
G01*
X215325000Y-136250000D02*
X215325000Y-135750000D01*
G75*
G02*
X215550000Y-135525000I225000J0D01*
G01*
X216000000Y-135525000D01*
G75*
G02*
X216225000Y-135750000I0J-225000D01*
G01*
X216225000Y-136250000D01*
G75*
G02*
X216000000Y-136475000I-225000J0D01*
G01*
X215550000Y-136475000D01*
G75*
G02*
X215325000Y-136250000I0J225000D01*
G01*
G37*
G36*
G01*
X213775000Y-136250000D02*
X213775000Y-135750000D01*
G75*
G02*
X214000000Y-135525000I225000J0D01*
G01*
X214450000Y-135525000D01*
G75*
G02*
X214675000Y-135750000I0J-225000D01*
G01*
X214675000Y-136250000D01*
G75*
G02*
X214450000Y-136475000I-225000J0D01*
G01*
X214000000Y-136475000D01*
G75*
G02*
X213775000Y-136250000I0J225000D01*
G01*
G37*
G36*
G01*
X203450000Y-131675000D02*
X202950000Y-131675000D01*
G75*
G02*
X202725000Y-131450000I0J225000D01*
G01*
X202725000Y-131000000D01*
G75*
G02*
X202950000Y-130775000I225000J0D01*
G01*
X203450000Y-130775000D01*
G75*
G02*
X203675000Y-131000000I0J-225000D01*
G01*
X203675000Y-131450000D01*
G75*
G02*
X203450000Y-131675000I-225000J0D01*
G01*
G37*
G36*
G01*
X203450000Y-133225000D02*
X202950000Y-133225000D01*
G75*
G02*
X202725000Y-133000000I0J225000D01*
G01*
X202725000Y-132550000D01*
G75*
G02*
X202950000Y-132325000I225000J0D01*
G01*
X203450000Y-132325000D01*
G75*
G02*
X203675000Y-132550000I0J-225000D01*
G01*
X203675000Y-133000000D01*
G75*
G02*
X203450000Y-133225000I-225000J0D01*
G01*
G37*
G36*
G01*
X209850000Y-130875000D02*
X209350000Y-130875000D01*
G75*
G02*
X209125000Y-130650000I0J225000D01*
G01*
X209125000Y-130200000D01*
G75*
G02*
X209350000Y-129975000I225000J0D01*
G01*
X209850000Y-129975000D01*
G75*
G02*
X210075000Y-130200000I0J-225000D01*
G01*
X210075000Y-130650000D01*
G75*
G02*
X209850000Y-130875000I-225000J0D01*
G01*
G37*
G36*
G01*
X209850000Y-132425000D02*
X209350000Y-132425000D01*
G75*
G02*
X209125000Y-132200000I0J225000D01*
G01*
X209125000Y-131750000D01*
G75*
G02*
X209350000Y-131525000I225000J0D01*
G01*
X209850000Y-131525000D01*
G75*
G02*
X210075000Y-131750000I0J-225000D01*
G01*
X210075000Y-132200000D01*
G75*
G02*
X209850000Y-132425000I-225000J0D01*
G01*
G37*
G36*
G01*
X205050000Y-130875000D02*
X204550000Y-130875000D01*
G75*
G02*
X204325000Y-130650000I0J225000D01*
G01*
X204325000Y-130200000D01*
G75*
G02*
X204550000Y-129975000I225000J0D01*
G01*
X205050000Y-129975000D01*
G75*
G02*
X205275000Y-130200000I0J-225000D01*
G01*
X205275000Y-130650000D01*
G75*
G02*
X205050000Y-130875000I-225000J0D01*
G01*
G37*
G36*
G01*
X205050000Y-132425000D02*
X204550000Y-132425000D01*
G75*
G02*
X204325000Y-132200000I0J225000D01*
G01*
X204325000Y-131750000D01*
G75*
G02*
X204550000Y-131525000I225000J0D01*
G01*
X205050000Y-131525000D01*
G75*
G02*
X205275000Y-131750000I0J-225000D01*
G01*
X205275000Y-132200000D01*
G75*
G02*
X205050000Y-132425000I-225000J0D01*
G01*
G37*
G36*
G01*
X205550000Y-148925000D02*
X206050000Y-148925000D01*
G75*
G02*
X206275000Y-149150000I0J-225000D01*
G01*
X206275000Y-149600000D01*
G75*
G02*
X206050000Y-149825000I-225000J0D01*
G01*
X205550000Y-149825000D01*
G75*
G02*
X205325000Y-149600000I0J225000D01*
G01*
X205325000Y-149150000D01*
G75*
G02*
X205550000Y-148925000I225000J0D01*
G01*
G37*
G36*
G01*
X205550000Y-147375000D02*
X206050000Y-147375000D01*
G75*
G02*
X206275000Y-147600000I0J-225000D01*
G01*
X206275000Y-148050000D01*
G75*
G02*
X206050000Y-148275000I-225000J0D01*
G01*
X205550000Y-148275000D01*
G75*
G02*
X205325000Y-148050000I0J225000D01*
G01*
X205325000Y-147600000D01*
G75*
G02*
X205550000Y-147375000I225000J0D01*
G01*
G37*
G36*
G01*
X211450000Y-129075000D02*
X210950000Y-129075000D01*
G75*
G02*
X210725000Y-128850000I0J225000D01*
G01*
X210725000Y-128400000D01*
G75*
G02*
X210950000Y-128175000I225000J0D01*
G01*
X211450000Y-128175000D01*
G75*
G02*
X211675000Y-128400000I0J-225000D01*
G01*
X211675000Y-128850000D01*
G75*
G02*
X211450000Y-129075000I-225000J0D01*
G01*
G37*
G36*
G01*
X211450000Y-130625000D02*
X210950000Y-130625000D01*
G75*
G02*
X210725000Y-130400000I0J225000D01*
G01*
X210725000Y-129950000D01*
G75*
G02*
X210950000Y-129725000I225000J0D01*
G01*
X211450000Y-129725000D01*
G75*
G02*
X211675000Y-129950000I0J-225000D01*
G01*
X211675000Y-130400000D01*
G75*
G02*
X211450000Y-130625000I-225000J0D01*
G01*
G37*
G36*
G01*
X207325000Y-120450000D02*
X207325000Y-119950000D01*
G75*
G02*
X207550000Y-119725000I225000J0D01*
G01*
X208000000Y-119725000D01*
G75*
G02*
X208225000Y-119950000I0J-225000D01*
G01*
X208225000Y-120450000D01*
G75*
G02*
X208000000Y-120675000I-225000J0D01*
G01*
X207550000Y-120675000D01*
G75*
G02*
X207325000Y-120450000I0J225000D01*
G01*
G37*
G36*
G01*
X205775000Y-120450000D02*
X205775000Y-119950000D01*
G75*
G02*
X206000000Y-119725000I225000J0D01*
G01*
X206450000Y-119725000D01*
G75*
G02*
X206675000Y-119950000I0J-225000D01*
G01*
X206675000Y-120450000D01*
G75*
G02*
X206450000Y-120675000I-225000J0D01*
G01*
X206000000Y-120675000D01*
G75*
G02*
X205775000Y-120450000I0J225000D01*
G01*
G37*
G36*
G01*
X96875000Y-105350000D02*
X96875000Y-105850000D01*
G75*
G02*
X96650000Y-106075000I-225000J0D01*
G01*
X96200000Y-106075000D01*
G75*
G02*
X95975000Y-105850000I0J225000D01*
G01*
X95975000Y-105350000D01*
G75*
G02*
X96200000Y-105125000I225000J0D01*
G01*
X96650000Y-105125000D01*
G75*
G02*
X96875000Y-105350000I0J-225000D01*
G01*
G37*
G36*
G01*
X98425000Y-105350000D02*
X98425000Y-105850000D01*
G75*
G02*
X98200000Y-106075000I-225000J0D01*
G01*
X97750000Y-106075000D01*
G75*
G02*
X97525000Y-105850000I0J225000D01*
G01*
X97525000Y-105350000D01*
G75*
G02*
X97750000Y-105125000I225000J0D01*
G01*
X98200000Y-105125000D01*
G75*
G02*
X98425000Y-105350000I0J-225000D01*
G01*
G37*
G36*
G01*
X207150000Y-152125000D02*
X207650000Y-152125000D01*
G75*
G02*
X207875000Y-152350000I0J-225000D01*
G01*
X207875000Y-152800000D01*
G75*
G02*
X207650000Y-153025000I-225000J0D01*
G01*
X207150000Y-153025000D01*
G75*
G02*
X206925000Y-152800000I0J225000D01*
G01*
X206925000Y-152350000D01*
G75*
G02*
X207150000Y-152125000I225000J0D01*
G01*
G37*
G36*
G01*
X207150000Y-150575000D02*
X207650000Y-150575000D01*
G75*
G02*
X207875000Y-150800000I0J-225000D01*
G01*
X207875000Y-151250000D01*
G75*
G02*
X207650000Y-151475000I-225000J0D01*
G01*
X207150000Y-151475000D01*
G75*
G02*
X206925000Y-151250000I0J225000D01*
G01*
X206925000Y-150800000D01*
G75*
G02*
X207150000Y-150575000I225000J0D01*
G01*
G37*
G36*
G01*
X211475000Y-150750000D02*
X211475000Y-151250000D01*
G75*
G02*
X211250000Y-151475000I-225000J0D01*
G01*
X210800000Y-151475000D01*
G75*
G02*
X210575000Y-151250000I0J225000D01*
G01*
X210575000Y-150750000D01*
G75*
G02*
X210800000Y-150525000I225000J0D01*
G01*
X211250000Y-150525000D01*
G75*
G02*
X211475000Y-150750000I0J-225000D01*
G01*
G37*
G36*
G01*
X213025000Y-150750000D02*
X213025000Y-151250000D01*
G75*
G02*
X212800000Y-151475000I-225000J0D01*
G01*
X212350000Y-151475000D01*
G75*
G02*
X212125000Y-151250000I0J225000D01*
G01*
X212125000Y-150750000D01*
G75*
G02*
X212350000Y-150525000I225000J0D01*
G01*
X212800000Y-150525000D01*
G75*
G02*
X213025000Y-150750000I0J-225000D01*
G01*
G37*
G36*
G01*
X96875000Y-111350000D02*
X96875000Y-111850000D01*
G75*
G02*
X96650000Y-112075000I-225000J0D01*
G01*
X96200000Y-112075000D01*
G75*
G02*
X95975000Y-111850000I0J225000D01*
G01*
X95975000Y-111350000D01*
G75*
G02*
X96200000Y-111125000I225000J0D01*
G01*
X96650000Y-111125000D01*
G75*
G02*
X96875000Y-111350000I0J-225000D01*
G01*
G37*
G36*
G01*
X98425000Y-111350000D02*
X98425000Y-111850000D01*
G75*
G02*
X98200000Y-112075000I-225000J0D01*
G01*
X97750000Y-112075000D01*
G75*
G02*
X97525000Y-111850000I0J225000D01*
G01*
X97525000Y-111350000D01*
G75*
G02*
X97750000Y-111125000I225000J0D01*
G01*
X98200000Y-111125000D01*
G75*
G02*
X98425000Y-111350000I0J-225000D01*
G01*
G37*
D14*
X99450000Y-139220000D03*
X92150000Y-139220000D03*
X92150000Y-141430000D03*
X99450000Y-141430000D03*
D15*
X93550000Y-138570000D03*
X95050000Y-138570000D03*
X98050000Y-138570000D03*
D16*
X209350000Y-152900000D03*
X209350000Y-155100000D03*
X211050000Y-155100000D03*
X211050000Y-152900000D03*
G36*
G01*
X211717003Y-135704040D02*
X211717003Y-136479040D01*
G75*
G02*
X211667003Y-136529040I-50000J0D01*
G01*
X211567003Y-136529040D01*
G75*
G02*
X211517003Y-136479040I0J50000D01*
G01*
X211517003Y-135704040D01*
G75*
G02*
X211567003Y-135654040I50000J0D01*
G01*
X211667003Y-135654040D01*
G75*
G02*
X211717003Y-135704040I0J-50000D01*
G01*
G37*
G36*
G01*
X211317003Y-135704040D02*
X211317003Y-136479040D01*
G75*
G02*
X211267003Y-136529040I-50000J0D01*
G01*
X211167003Y-136529040D01*
G75*
G02*
X211117003Y-136479040I0J50000D01*
G01*
X211117003Y-135704040D01*
G75*
G02*
X211167003Y-135654040I50000J0D01*
G01*
X211267003Y-135654040D01*
G75*
G02*
X211317003Y-135704040I0J-50000D01*
G01*
G37*
G36*
G01*
X210917003Y-135704040D02*
X210917003Y-136479040D01*
G75*
G02*
X210867003Y-136529040I-50000J0D01*
G01*
X210767003Y-136529040D01*
G75*
G02*
X210717003Y-136479040I0J50000D01*
G01*
X210717003Y-135704040D01*
G75*
G02*
X210767003Y-135654040I50000J0D01*
G01*
X210867003Y-135654040D01*
G75*
G02*
X210917003Y-135704040I0J-50000D01*
G01*
G37*
G36*
G01*
X210517003Y-135704040D02*
X210517003Y-136479040D01*
G75*
G02*
X210467003Y-136529040I-50000J0D01*
G01*
X210367003Y-136529040D01*
G75*
G02*
X210317003Y-136479040I0J50000D01*
G01*
X210317003Y-135704040D01*
G75*
G02*
X210367003Y-135654040I50000J0D01*
G01*
X210467003Y-135654040D01*
G75*
G02*
X210517003Y-135704040I0J-50000D01*
G01*
G37*
G36*
G01*
X210117003Y-135704040D02*
X210117003Y-136479040D01*
G75*
G02*
X210067003Y-136529040I-50000J0D01*
G01*
X209967003Y-136529040D01*
G75*
G02*
X209917003Y-136479040I0J50000D01*
G01*
X209917003Y-135704040D01*
G75*
G02*
X209967003Y-135654040I50000J0D01*
G01*
X210067003Y-135654040D01*
G75*
G02*
X210117003Y-135704040I0J-50000D01*
G01*
G37*
G36*
G01*
X209717003Y-135704040D02*
X209717003Y-136479040D01*
G75*
G02*
X209667003Y-136529040I-50000J0D01*
G01*
X209567003Y-136529040D01*
G75*
G02*
X209517003Y-136479040I0J50000D01*
G01*
X209517003Y-135704040D01*
G75*
G02*
X209567003Y-135654040I50000J0D01*
G01*
X209667003Y-135654040D01*
G75*
G02*
X209717003Y-135704040I0J-50000D01*
G01*
G37*
G36*
G01*
X209317003Y-135704040D02*
X209317003Y-136479040D01*
G75*
G02*
X209267003Y-136529040I-50000J0D01*
G01*
X209167003Y-136529040D01*
G75*
G02*
X209117003Y-136479040I0J50000D01*
G01*
X209117003Y-135704040D01*
G75*
G02*
X209167003Y-135654040I50000J0D01*
G01*
X209267003Y-135654040D01*
G75*
G02*
X209317003Y-135704040I0J-50000D01*
G01*
G37*
G36*
G01*
X208917003Y-135704040D02*
X208917003Y-136479040D01*
G75*
G02*
X208867003Y-136529040I-50000J0D01*
G01*
X208767003Y-136529040D01*
G75*
G02*
X208717003Y-136479040I0J50000D01*
G01*
X208717003Y-135704040D01*
G75*
G02*
X208767003Y-135654040I50000J0D01*
G01*
X208867003Y-135654040D01*
G75*
G02*
X208917003Y-135704040I0J-50000D01*
G01*
G37*
G36*
G01*
X208517003Y-135704040D02*
X208517003Y-136479040D01*
G75*
G02*
X208467003Y-136529040I-50000J0D01*
G01*
X208367003Y-136529040D01*
G75*
G02*
X208317003Y-136479040I0J50000D01*
G01*
X208317003Y-135704040D01*
G75*
G02*
X208367003Y-135654040I50000J0D01*
G01*
X208467003Y-135654040D01*
G75*
G02*
X208517003Y-135704040I0J-50000D01*
G01*
G37*
G36*
G01*
X208117003Y-135704040D02*
X208117003Y-136479040D01*
G75*
G02*
X208067003Y-136529040I-50000J0D01*
G01*
X207967003Y-136529040D01*
G75*
G02*
X207917003Y-136479040I0J50000D01*
G01*
X207917003Y-135704040D01*
G75*
G02*
X207967003Y-135654040I50000J0D01*
G01*
X208067003Y-135654040D01*
G75*
G02*
X208117003Y-135704040I0J-50000D01*
G01*
G37*
G36*
G01*
X207717003Y-135704040D02*
X207717003Y-136479040D01*
G75*
G02*
X207667003Y-136529040I-50000J0D01*
G01*
X207567003Y-136529040D01*
G75*
G02*
X207517003Y-136479040I0J50000D01*
G01*
X207517003Y-135704040D01*
G75*
G02*
X207567003Y-135654040I50000J0D01*
G01*
X207667003Y-135654040D01*
G75*
G02*
X207717003Y-135704040I0J-50000D01*
G01*
G37*
G36*
G01*
X207317003Y-135704040D02*
X207317003Y-136479040D01*
G75*
G02*
X207267003Y-136529040I-50000J0D01*
G01*
X207167003Y-136529040D01*
G75*
G02*
X207117003Y-136479040I0J50000D01*
G01*
X207117003Y-135704040D01*
G75*
G02*
X207167003Y-135654040I50000J0D01*
G01*
X207267003Y-135654040D01*
G75*
G02*
X207317003Y-135704040I0J-50000D01*
G01*
G37*
G36*
G01*
X206917003Y-135704040D02*
X206917003Y-136479040D01*
G75*
G02*
X206867003Y-136529040I-50000J0D01*
G01*
X206767003Y-136529040D01*
G75*
G02*
X206717003Y-136479040I0J50000D01*
G01*
X206717003Y-135704040D01*
G75*
G02*
X206767003Y-135654040I50000J0D01*
G01*
X206867003Y-135654040D01*
G75*
G02*
X206917003Y-135704040I0J-50000D01*
G01*
G37*
G36*
G01*
X206517003Y-135704040D02*
X206517003Y-136479040D01*
G75*
G02*
X206467003Y-136529040I-50000J0D01*
G01*
X206367003Y-136529040D01*
G75*
G02*
X206317003Y-136479040I0J50000D01*
G01*
X206317003Y-135704040D01*
G75*
G02*
X206367003Y-135654040I50000J0D01*
G01*
X206467003Y-135654040D01*
G75*
G02*
X206517003Y-135704040I0J-50000D01*
G01*
G37*
G36*
G01*
X206017003Y-136879040D02*
X206017003Y-136979040D01*
G75*
G02*
X205967003Y-137029040I-50000J0D01*
G01*
X205192003Y-137029040D01*
G75*
G02*
X205142003Y-136979040I0J50000D01*
G01*
X205142003Y-136879040D01*
G75*
G02*
X205192003Y-136829040I50000J0D01*
G01*
X205967003Y-136829040D01*
G75*
G02*
X206017003Y-136879040I0J-50000D01*
G01*
G37*
G36*
G01*
X206017003Y-137279040D02*
X206017003Y-137379040D01*
G75*
G02*
X205967003Y-137429040I-50000J0D01*
G01*
X205192003Y-137429040D01*
G75*
G02*
X205142003Y-137379040I0J50000D01*
G01*
X205142003Y-137279040D01*
G75*
G02*
X205192003Y-137229040I50000J0D01*
G01*
X205967003Y-137229040D01*
G75*
G02*
X206017003Y-137279040I0J-50000D01*
G01*
G37*
G36*
G01*
X206017003Y-137679040D02*
X206017003Y-137779040D01*
G75*
G02*
X205967003Y-137829040I-50000J0D01*
G01*
X205192003Y-137829040D01*
G75*
G02*
X205142003Y-137779040I0J50000D01*
G01*
X205142003Y-137679040D01*
G75*
G02*
X205192003Y-137629040I50000J0D01*
G01*
X205967003Y-137629040D01*
G75*
G02*
X206017003Y-137679040I0J-50000D01*
G01*
G37*
G36*
G01*
X206017003Y-138079040D02*
X206017003Y-138179040D01*
G75*
G02*
X205967003Y-138229040I-50000J0D01*
G01*
X205192003Y-138229040D01*
G75*
G02*
X205142003Y-138179040I0J50000D01*
G01*
X205142003Y-138079040D01*
G75*
G02*
X205192003Y-138029040I50000J0D01*
G01*
X205967003Y-138029040D01*
G75*
G02*
X206017003Y-138079040I0J-50000D01*
G01*
G37*
G36*
G01*
X206017003Y-138479040D02*
X206017003Y-138579040D01*
G75*
G02*
X205967003Y-138629040I-50000J0D01*
G01*
X205192003Y-138629040D01*
G75*
G02*
X205142003Y-138579040I0J50000D01*
G01*
X205142003Y-138479040D01*
G75*
G02*
X205192003Y-138429040I50000J0D01*
G01*
X205967003Y-138429040D01*
G75*
G02*
X206017003Y-138479040I0J-50000D01*
G01*
G37*
G36*
G01*
X206017003Y-138879040D02*
X206017003Y-138979040D01*
G75*
G02*
X205967003Y-139029040I-50000J0D01*
G01*
X205192003Y-139029040D01*
G75*
G02*
X205142003Y-138979040I0J50000D01*
G01*
X205142003Y-138879040D01*
G75*
G02*
X205192003Y-138829040I50000J0D01*
G01*
X205967003Y-138829040D01*
G75*
G02*
X206017003Y-138879040I0J-50000D01*
G01*
G37*
G36*
G01*
X206017003Y-139279040D02*
X206017003Y-139379040D01*
G75*
G02*
X205967003Y-139429040I-50000J0D01*
G01*
X205192003Y-139429040D01*
G75*
G02*
X205142003Y-139379040I0J50000D01*
G01*
X205142003Y-139279040D01*
G75*
G02*
X205192003Y-139229040I50000J0D01*
G01*
X205967003Y-139229040D01*
G75*
G02*
X206017003Y-139279040I0J-50000D01*
G01*
G37*
G36*
G01*
X206017003Y-139679040D02*
X206017003Y-139779040D01*
G75*
G02*
X205967003Y-139829040I-50000J0D01*
G01*
X205192003Y-139829040D01*
G75*
G02*
X205142003Y-139779040I0J50000D01*
G01*
X205142003Y-139679040D01*
G75*
G02*
X205192003Y-139629040I50000J0D01*
G01*
X205967003Y-139629040D01*
G75*
G02*
X206017003Y-139679040I0J-50000D01*
G01*
G37*
G36*
G01*
X206017003Y-140079040D02*
X206017003Y-140179040D01*
G75*
G02*
X205967003Y-140229040I-50000J0D01*
G01*
X205192003Y-140229040D01*
G75*
G02*
X205142003Y-140179040I0J50000D01*
G01*
X205142003Y-140079040D01*
G75*
G02*
X205192003Y-140029040I50000J0D01*
G01*
X205967003Y-140029040D01*
G75*
G02*
X206017003Y-140079040I0J-50000D01*
G01*
G37*
G36*
G01*
X206017003Y-140479040D02*
X206017003Y-140579040D01*
G75*
G02*
X205967003Y-140629040I-50000J0D01*
G01*
X205192003Y-140629040D01*
G75*
G02*
X205142003Y-140579040I0J50000D01*
G01*
X205142003Y-140479040D01*
G75*
G02*
X205192003Y-140429040I50000J0D01*
G01*
X205967003Y-140429040D01*
G75*
G02*
X206017003Y-140479040I0J-50000D01*
G01*
G37*
G36*
G01*
X206017003Y-140879040D02*
X206017003Y-140979040D01*
G75*
G02*
X205967003Y-141029040I-50000J0D01*
G01*
X205192003Y-141029040D01*
G75*
G02*
X205142003Y-140979040I0J50000D01*
G01*
X205142003Y-140879040D01*
G75*
G02*
X205192003Y-140829040I50000J0D01*
G01*
X205967003Y-140829040D01*
G75*
G02*
X206017003Y-140879040I0J-50000D01*
G01*
G37*
G36*
G01*
X206017003Y-141279040D02*
X206017003Y-141379040D01*
G75*
G02*
X205967003Y-141429040I-50000J0D01*
G01*
X205192003Y-141429040D01*
G75*
G02*
X205142003Y-141379040I0J50000D01*
G01*
X205142003Y-141279040D01*
G75*
G02*
X205192003Y-141229040I50000J0D01*
G01*
X205967003Y-141229040D01*
G75*
G02*
X206017003Y-141279040I0J-50000D01*
G01*
G37*
G36*
G01*
X206017003Y-141679040D02*
X206017003Y-141779040D01*
G75*
G02*
X205967003Y-141829040I-50000J0D01*
G01*
X205192003Y-141829040D01*
G75*
G02*
X205142003Y-141779040I0J50000D01*
G01*
X205142003Y-141679040D01*
G75*
G02*
X205192003Y-141629040I50000J0D01*
G01*
X205967003Y-141629040D01*
G75*
G02*
X206017003Y-141679040I0J-50000D01*
G01*
G37*
G36*
G01*
X206017003Y-142079040D02*
X206017003Y-142179040D01*
G75*
G02*
X205967003Y-142229040I-50000J0D01*
G01*
X205192003Y-142229040D01*
G75*
G02*
X205142003Y-142179040I0J50000D01*
G01*
X205142003Y-142079040D01*
G75*
G02*
X205192003Y-142029040I50000J0D01*
G01*
X205967003Y-142029040D01*
G75*
G02*
X206017003Y-142079040I0J-50000D01*
G01*
G37*
G36*
G01*
X206517003Y-142579040D02*
X206517003Y-143354040D01*
G75*
G02*
X206467003Y-143404040I-50000J0D01*
G01*
X206367003Y-143404040D01*
G75*
G02*
X206317003Y-143354040I0J50000D01*
G01*
X206317003Y-142579040D01*
G75*
G02*
X206367003Y-142529040I50000J0D01*
G01*
X206467003Y-142529040D01*
G75*
G02*
X206517003Y-142579040I0J-50000D01*
G01*
G37*
G36*
G01*
X206917003Y-142579040D02*
X206917003Y-143354040D01*
G75*
G02*
X206867003Y-143404040I-50000J0D01*
G01*
X206767003Y-143404040D01*
G75*
G02*
X206717003Y-143354040I0J50000D01*
G01*
X206717003Y-142579040D01*
G75*
G02*
X206767003Y-142529040I50000J0D01*
G01*
X206867003Y-142529040D01*
G75*
G02*
X206917003Y-142579040I0J-50000D01*
G01*
G37*
G36*
G01*
X207317003Y-142579040D02*
X207317003Y-143354040D01*
G75*
G02*
X207267003Y-143404040I-50000J0D01*
G01*
X207167003Y-143404040D01*
G75*
G02*
X207117003Y-143354040I0J50000D01*
G01*
X207117003Y-142579040D01*
G75*
G02*
X207167003Y-142529040I50000J0D01*
G01*
X207267003Y-142529040D01*
G75*
G02*
X207317003Y-142579040I0J-50000D01*
G01*
G37*
G36*
G01*
X207717003Y-142579040D02*
X207717003Y-143354040D01*
G75*
G02*
X207667003Y-143404040I-50000J0D01*
G01*
X207567003Y-143404040D01*
G75*
G02*
X207517003Y-143354040I0J50000D01*
G01*
X207517003Y-142579040D01*
G75*
G02*
X207567003Y-142529040I50000J0D01*
G01*
X207667003Y-142529040D01*
G75*
G02*
X207717003Y-142579040I0J-50000D01*
G01*
G37*
G36*
G01*
X208117003Y-142579040D02*
X208117003Y-143354040D01*
G75*
G02*
X208067003Y-143404040I-50000J0D01*
G01*
X207967003Y-143404040D01*
G75*
G02*
X207917003Y-143354040I0J50000D01*
G01*
X207917003Y-142579040D01*
G75*
G02*
X207967003Y-142529040I50000J0D01*
G01*
X208067003Y-142529040D01*
G75*
G02*
X208117003Y-142579040I0J-50000D01*
G01*
G37*
G36*
G01*
X208517003Y-142579040D02*
X208517003Y-143354040D01*
G75*
G02*
X208467003Y-143404040I-50000J0D01*
G01*
X208367003Y-143404040D01*
G75*
G02*
X208317003Y-143354040I0J50000D01*
G01*
X208317003Y-142579040D01*
G75*
G02*
X208367003Y-142529040I50000J0D01*
G01*
X208467003Y-142529040D01*
G75*
G02*
X208517003Y-142579040I0J-50000D01*
G01*
G37*
G36*
G01*
X208917003Y-142579040D02*
X208917003Y-143354040D01*
G75*
G02*
X208867003Y-143404040I-50000J0D01*
G01*
X208767003Y-143404040D01*
G75*
G02*
X208717003Y-143354040I0J50000D01*
G01*
X208717003Y-142579040D01*
G75*
G02*
X208767003Y-142529040I50000J0D01*
G01*
X208867003Y-142529040D01*
G75*
G02*
X208917003Y-142579040I0J-50000D01*
G01*
G37*
G36*
G01*
X209317003Y-142579040D02*
X209317003Y-143354040D01*
G75*
G02*
X209267003Y-143404040I-50000J0D01*
G01*
X209167003Y-143404040D01*
G75*
G02*
X209117003Y-143354040I0J50000D01*
G01*
X209117003Y-142579040D01*
G75*
G02*
X209167003Y-142529040I50000J0D01*
G01*
X209267003Y-142529040D01*
G75*
G02*
X209317003Y-142579040I0J-50000D01*
G01*
G37*
G36*
G01*
X209717003Y-142579040D02*
X209717003Y-143354040D01*
G75*
G02*
X209667003Y-143404040I-50000J0D01*
G01*
X209567003Y-143404040D01*
G75*
G02*
X209517003Y-143354040I0J50000D01*
G01*
X209517003Y-142579040D01*
G75*
G02*
X209567003Y-142529040I50000J0D01*
G01*
X209667003Y-142529040D01*
G75*
G02*
X209717003Y-142579040I0J-50000D01*
G01*
G37*
G36*
G01*
X210117003Y-142579040D02*
X210117003Y-143354040D01*
G75*
G02*
X210067003Y-143404040I-50000J0D01*
G01*
X209967003Y-143404040D01*
G75*
G02*
X209917003Y-143354040I0J50000D01*
G01*
X209917003Y-142579040D01*
G75*
G02*
X209967003Y-142529040I50000J0D01*
G01*
X210067003Y-142529040D01*
G75*
G02*
X210117003Y-142579040I0J-50000D01*
G01*
G37*
G36*
G01*
X210517003Y-142579040D02*
X210517003Y-143354040D01*
G75*
G02*
X210467003Y-143404040I-50000J0D01*
G01*
X210367003Y-143404040D01*
G75*
G02*
X210317003Y-143354040I0J50000D01*
G01*
X210317003Y-142579040D01*
G75*
G02*
X210367003Y-142529040I50000J0D01*
G01*
X210467003Y-142529040D01*
G75*
G02*
X210517003Y-142579040I0J-50000D01*
G01*
G37*
G36*
G01*
X210917003Y-142579040D02*
X210917003Y-143354040D01*
G75*
G02*
X210867003Y-143404040I-50000J0D01*
G01*
X210767003Y-143404040D01*
G75*
G02*
X210717003Y-143354040I0J50000D01*
G01*
X210717003Y-142579040D01*
G75*
G02*
X210767003Y-142529040I50000J0D01*
G01*
X210867003Y-142529040D01*
G75*
G02*
X210917003Y-142579040I0J-50000D01*
G01*
G37*
G36*
G01*
X211317003Y-142579040D02*
X211317003Y-143354040D01*
G75*
G02*
X211267003Y-143404040I-50000J0D01*
G01*
X211167003Y-143404040D01*
G75*
G02*
X211117003Y-143354040I0J50000D01*
G01*
X211117003Y-142579040D01*
G75*
G02*
X211167003Y-142529040I50000J0D01*
G01*
X211267003Y-142529040D01*
G75*
G02*
X211317003Y-142579040I0J-50000D01*
G01*
G37*
G36*
G01*
X211717003Y-142579040D02*
X211717003Y-143354040D01*
G75*
G02*
X211667003Y-143404040I-50000J0D01*
G01*
X211567003Y-143404040D01*
G75*
G02*
X211517003Y-143354040I0J50000D01*
G01*
X211517003Y-142579040D01*
G75*
G02*
X211567003Y-142529040I50000J0D01*
G01*
X211667003Y-142529040D01*
G75*
G02*
X211717003Y-142579040I0J-50000D01*
G01*
G37*
G36*
G01*
X212892003Y-142079040D02*
X212892003Y-142179040D01*
G75*
G02*
X212842003Y-142229040I-50000J0D01*
G01*
X212067003Y-142229040D01*
G75*
G02*
X212017003Y-142179040I0J50000D01*
G01*
X212017003Y-142079040D01*
G75*
G02*
X212067003Y-142029040I50000J0D01*
G01*
X212842003Y-142029040D01*
G75*
G02*
X212892003Y-142079040I0J-50000D01*
G01*
G37*
G36*
G01*
X212892003Y-141679040D02*
X212892003Y-141779040D01*
G75*
G02*
X212842003Y-141829040I-50000J0D01*
G01*
X212067003Y-141829040D01*
G75*
G02*
X212017003Y-141779040I0J50000D01*
G01*
X212017003Y-141679040D01*
G75*
G02*
X212067003Y-141629040I50000J0D01*
G01*
X212842003Y-141629040D01*
G75*
G02*
X212892003Y-141679040I0J-50000D01*
G01*
G37*
G36*
G01*
X212892003Y-141279040D02*
X212892003Y-141379040D01*
G75*
G02*
X212842003Y-141429040I-50000J0D01*
G01*
X212067003Y-141429040D01*
G75*
G02*
X212017003Y-141379040I0J50000D01*
G01*
X212017003Y-141279040D01*
G75*
G02*
X212067003Y-141229040I50000J0D01*
G01*
X212842003Y-141229040D01*
G75*
G02*
X212892003Y-141279040I0J-50000D01*
G01*
G37*
G36*
G01*
X212892003Y-140879040D02*
X212892003Y-140979040D01*
G75*
G02*
X212842003Y-141029040I-50000J0D01*
G01*
X212067003Y-141029040D01*
G75*
G02*
X212017003Y-140979040I0J50000D01*
G01*
X212017003Y-140879040D01*
G75*
G02*
X212067003Y-140829040I50000J0D01*
G01*
X212842003Y-140829040D01*
G75*
G02*
X212892003Y-140879040I0J-50000D01*
G01*
G37*
G36*
G01*
X212892003Y-140479040D02*
X212892003Y-140579040D01*
G75*
G02*
X212842003Y-140629040I-50000J0D01*
G01*
X212067003Y-140629040D01*
G75*
G02*
X212017003Y-140579040I0J50000D01*
G01*
X212017003Y-140479040D01*
G75*
G02*
X212067003Y-140429040I50000J0D01*
G01*
X212842003Y-140429040D01*
G75*
G02*
X212892003Y-140479040I0J-50000D01*
G01*
G37*
G36*
G01*
X212892003Y-140079040D02*
X212892003Y-140179040D01*
G75*
G02*
X212842003Y-140229040I-50000J0D01*
G01*
X212067003Y-140229040D01*
G75*
G02*
X212017003Y-140179040I0J50000D01*
G01*
X212017003Y-140079040D01*
G75*
G02*
X212067003Y-140029040I50000J0D01*
G01*
X212842003Y-140029040D01*
G75*
G02*
X212892003Y-140079040I0J-50000D01*
G01*
G37*
G36*
G01*
X212892003Y-139679040D02*
X212892003Y-139779040D01*
G75*
G02*
X212842003Y-139829040I-50000J0D01*
G01*
X212067003Y-139829040D01*
G75*
G02*
X212017003Y-139779040I0J50000D01*
G01*
X212017003Y-139679040D01*
G75*
G02*
X212067003Y-139629040I50000J0D01*
G01*
X212842003Y-139629040D01*
G75*
G02*
X212892003Y-139679040I0J-50000D01*
G01*
G37*
G36*
G01*
X212892003Y-139279040D02*
X212892003Y-139379040D01*
G75*
G02*
X212842003Y-139429040I-50000J0D01*
G01*
X212067003Y-139429040D01*
G75*
G02*
X212017003Y-139379040I0J50000D01*
G01*
X212017003Y-139279040D01*
G75*
G02*
X212067003Y-139229040I50000J0D01*
G01*
X212842003Y-139229040D01*
G75*
G02*
X212892003Y-139279040I0J-50000D01*
G01*
G37*
G36*
G01*
X212892003Y-138879040D02*
X212892003Y-138979040D01*
G75*
G02*
X212842003Y-139029040I-50000J0D01*
G01*
X212067003Y-139029040D01*
G75*
G02*
X212017003Y-138979040I0J50000D01*
G01*
X212017003Y-138879040D01*
G75*
G02*
X212067003Y-138829040I50000J0D01*
G01*
X212842003Y-138829040D01*
G75*
G02*
X212892003Y-138879040I0J-50000D01*
G01*
G37*
G36*
G01*
X212892003Y-138479040D02*
X212892003Y-138579040D01*
G75*
G02*
X212842003Y-138629040I-50000J0D01*
G01*
X212067003Y-138629040D01*
G75*
G02*
X212017003Y-138579040I0J50000D01*
G01*
X212017003Y-138479040D01*
G75*
G02*
X212067003Y-138429040I50000J0D01*
G01*
X212842003Y-138429040D01*
G75*
G02*
X212892003Y-138479040I0J-50000D01*
G01*
G37*
G36*
G01*
X212892003Y-138079040D02*
X212892003Y-138179040D01*
G75*
G02*
X212842003Y-138229040I-50000J0D01*
G01*
X212067003Y-138229040D01*
G75*
G02*
X212017003Y-138179040I0J50000D01*
G01*
X212017003Y-138079040D01*
G75*
G02*
X212067003Y-138029040I50000J0D01*
G01*
X212842003Y-138029040D01*
G75*
G02*
X212892003Y-138079040I0J-50000D01*
G01*
G37*
G36*
G01*
X212892003Y-137679040D02*
X212892003Y-137779040D01*
G75*
G02*
X212842003Y-137829040I-50000J0D01*
G01*
X212067003Y-137829040D01*
G75*
G02*
X212017003Y-137779040I0J50000D01*
G01*
X212017003Y-137679040D01*
G75*
G02*
X212067003Y-137629040I50000J0D01*
G01*
X212842003Y-137629040D01*
G75*
G02*
X212892003Y-137679040I0J-50000D01*
G01*
G37*
G36*
G01*
X212892003Y-137279040D02*
X212892003Y-137379040D01*
G75*
G02*
X212842003Y-137429040I-50000J0D01*
G01*
X212067003Y-137429040D01*
G75*
G02*
X212017003Y-137379040I0J50000D01*
G01*
X212017003Y-137279040D01*
G75*
G02*
X212067003Y-137229040I50000J0D01*
G01*
X212842003Y-137229040D01*
G75*
G02*
X212892003Y-137279040I0J-50000D01*
G01*
G37*
G36*
G01*
X212892003Y-136879040D02*
X212892003Y-136979040D01*
G75*
G02*
X212842003Y-137029040I-50000J0D01*
G01*
X212067003Y-137029040D01*
G75*
G02*
X212017003Y-136979040I0J50000D01*
G01*
X212017003Y-136879040D01*
G75*
G02*
X212067003Y-136829040I50000J0D01*
G01*
X212842003Y-136829040D01*
G75*
G02*
X212892003Y-136879040I0J-50000D01*
G01*
G37*
G36*
G01*
X208921720Y-139874323D02*
X208921720Y-140458757D01*
G75*
G02*
X208671720Y-140708757I-250000J0D01*
G01*
X208087286Y-140708757D01*
G75*
G02*
X207837286Y-140458757I0J250000D01*
G01*
X207837286Y-139874323D01*
G75*
G02*
X208087286Y-139624323I250000J0D01*
G01*
X208671720Y-139624323D01*
G75*
G02*
X208921720Y-139874323I0J-250000D01*
G01*
G37*
G36*
G01*
X208921720Y-138599323D02*
X208921720Y-139183757D01*
G75*
G02*
X208671720Y-139433757I-250000J0D01*
G01*
X208087286Y-139433757D01*
G75*
G02*
X207837286Y-139183757I0J250000D01*
G01*
X207837286Y-138599323D01*
G75*
G02*
X208087286Y-138349323I250000J0D01*
G01*
X208671720Y-138349323D01*
G75*
G02*
X208921720Y-138599323I0J-250000D01*
G01*
G37*
G36*
G01*
X210196720Y-139874323D02*
X210196720Y-140458757D01*
G75*
G02*
X209946720Y-140708757I-250000J0D01*
G01*
X209362286Y-140708757D01*
G75*
G02*
X209112286Y-140458757I0J250000D01*
G01*
X209112286Y-139874323D01*
G75*
G02*
X209362286Y-139624323I250000J0D01*
G01*
X209946720Y-139624323D01*
G75*
G02*
X210196720Y-139874323I0J-250000D01*
G01*
G37*
G36*
G01*
X210196720Y-138599323D02*
X210196720Y-139183757D01*
G75*
G02*
X209946720Y-139433757I-250000J0D01*
G01*
X209362286Y-139433757D01*
G75*
G02*
X209112286Y-139183757I0J250000D01*
G01*
X209112286Y-138599323D01*
G75*
G02*
X209362286Y-138349323I250000J0D01*
G01*
X209946720Y-138349323D01*
G75*
G02*
X210196720Y-138599323I0J-250000D01*
G01*
G37*
G36*
G01*
X207000000Y-122345000D02*
X207000000Y-122645000D01*
G75*
G02*
X206850000Y-122795000I-150000J0D01*
G01*
X205550000Y-122795000D01*
G75*
G02*
X205400000Y-122645000I0J150000D01*
G01*
X205400000Y-122345000D01*
G75*
G02*
X205550000Y-122195000I150000J0D01*
G01*
X206850000Y-122195000D01*
G75*
G02*
X207000000Y-122345000I0J-150000D01*
G01*
G37*
G36*
G01*
X207000000Y-123615000D02*
X207000000Y-123915000D01*
G75*
G02*
X206850000Y-124065000I-150000J0D01*
G01*
X205550000Y-124065000D01*
G75*
G02*
X205400000Y-123915000I0J150000D01*
G01*
X205400000Y-123615000D01*
G75*
G02*
X205550000Y-123465000I150000J0D01*
G01*
X206850000Y-123465000D01*
G75*
G02*
X207000000Y-123615000I0J-150000D01*
G01*
G37*
G36*
G01*
X207000000Y-124885000D02*
X207000000Y-125185000D01*
G75*
G02*
X206850000Y-125335000I-150000J0D01*
G01*
X205550000Y-125335000D01*
G75*
G02*
X205400000Y-125185000I0J150000D01*
G01*
X205400000Y-124885000D01*
G75*
G02*
X205550000Y-124735000I150000J0D01*
G01*
X206850000Y-124735000D01*
G75*
G02*
X207000000Y-124885000I0J-150000D01*
G01*
G37*
G36*
G01*
X207000000Y-126155000D02*
X207000000Y-126455000D01*
G75*
G02*
X206850000Y-126605000I-150000J0D01*
G01*
X205550000Y-126605000D01*
G75*
G02*
X205400000Y-126455000I0J150000D01*
G01*
X205400000Y-126155000D01*
G75*
G02*
X205550000Y-126005000I150000J0D01*
G01*
X206850000Y-126005000D01*
G75*
G02*
X207000000Y-126155000I0J-150000D01*
G01*
G37*
G36*
G01*
X214200000Y-126155000D02*
X214200000Y-126455000D01*
G75*
G02*
X214050000Y-126605000I-150000J0D01*
G01*
X212750000Y-126605000D01*
G75*
G02*
X212600000Y-126455000I0J150000D01*
G01*
X212600000Y-126155000D01*
G75*
G02*
X212750000Y-126005000I150000J0D01*
G01*
X214050000Y-126005000D01*
G75*
G02*
X214200000Y-126155000I0J-150000D01*
G01*
G37*
G36*
G01*
X214200000Y-124885000D02*
X214200000Y-125185000D01*
G75*
G02*
X214050000Y-125335000I-150000J0D01*
G01*
X212750000Y-125335000D01*
G75*
G02*
X212600000Y-125185000I0J150000D01*
G01*
X212600000Y-124885000D01*
G75*
G02*
X212750000Y-124735000I150000J0D01*
G01*
X214050000Y-124735000D01*
G75*
G02*
X214200000Y-124885000I0J-150000D01*
G01*
G37*
G36*
G01*
X214200000Y-123615000D02*
X214200000Y-123915000D01*
G75*
G02*
X214050000Y-124065000I-150000J0D01*
G01*
X212750000Y-124065000D01*
G75*
G02*
X212600000Y-123915000I0J150000D01*
G01*
X212600000Y-123615000D01*
G75*
G02*
X212750000Y-123465000I150000J0D01*
G01*
X214050000Y-123465000D01*
G75*
G02*
X214200000Y-123615000I0J-150000D01*
G01*
G37*
G36*
G01*
X214200000Y-122345000D02*
X214200000Y-122645000D01*
G75*
G02*
X214050000Y-122795000I-150000J0D01*
G01*
X212750000Y-122795000D01*
G75*
G02*
X212600000Y-122645000I0J150000D01*
G01*
X212600000Y-122345000D01*
G75*
G02*
X212750000Y-122195000I150000J0D01*
G01*
X214050000Y-122195000D01*
G75*
G02*
X214200000Y-122345000I0J-150000D01*
G01*
G37*
D17*
X97750000Y-107500000D03*
X95850000Y-107500000D03*
X95850000Y-109700000D03*
X96800000Y-109700000D03*
X97750000Y-109700000D03*
M02*
