%TF.GenerationSoftware,KiCad,Pcbnew,(5.1.10)-1*%
%TF.CreationDate,2022-02-26T14:39:07-08:00*%
%TF.ProjectId,keefighter,6b656566-6967-4687-9465-722e6b696361,rev?*%
%TF.SameCoordinates,Original*%
%TF.FileFunction,Profile,NP*%
%FSLAX46Y46*%
G04 Gerber Fmt 4.6, Leading zero omitted, Abs format (unit mm)*
G04 Created by KiCad (PCBNEW (5.1.10)-1) date 2022-02-26 14:39:07*
%MOMM*%
%LPD*%
G01*
G04 APERTURE LIST*
%TA.AperFunction,Profile*%
%ADD10C,0.300000*%
%TD*%
G04 APERTURE END LIST*
D10*
X68517003Y-191716540D02*
X349517003Y-191716540D01*
X349517003Y-97116540D02*
X90717003Y-97116540D01*
X66517003Y-189716540D02*
X66517003Y-155016540D01*
X66517003Y-155016540D02*
X70317003Y-155016540D01*
X70317003Y-152216540D02*
X66517003Y-152216540D01*
X66517003Y-152216540D02*
X66517003Y-99116540D01*
X351517003Y-155016540D02*
X351517003Y-189716540D01*
X351517003Y-152216540D02*
X351517003Y-99116540D01*
X347717003Y-155016540D02*
X351517003Y-155016540D01*
X347717003Y-152216540D02*
X351517003Y-152216540D01*
X79217003Y-96616540D02*
X90217003Y-96616540D01*
X68517003Y-97116540D02*
X78717003Y-97116540D01*
X90217003Y-96616540D02*
G75*
G03*
X90717003Y-97116540I500000J0D01*
G01*
X78717003Y-97116540D02*
G75*
G03*
X79217003Y-96616540I0J500000D01*
G01*
X70317003Y-155016540D02*
G75*
G03*
X71717003Y-153616540I0J1400000D01*
G01*
X347717003Y-155016540D02*
G75*
G02*
X346317003Y-153616540I0J1400000D01*
G01*
X346317003Y-153616540D02*
G75*
G02*
X347717003Y-152216540I1400000J0D01*
G01*
X71717003Y-153616540D02*
G75*
G03*
X70317003Y-152216540I-1400000J0D01*
G01*
X351517003Y-99116540D02*
G75*
G03*
X349517003Y-97116540I-2000000J0D01*
G01*
X349517003Y-191716540D02*
G75*
G03*
X351517003Y-189716540I0J2000000D01*
G01*
X66517003Y-189716540D02*
G75*
G03*
X68517003Y-191716540I2000000J0D01*
G01*
X68517003Y-97116540D02*
G75*
G03*
X66517003Y-99116540I0J-2000000D01*
G01*
M02*
