%TF.GenerationSoftware,KiCad,Pcbnew,(5.1.10)-1*%
%TF.CreationDate,2022-02-26T14:39:07-08:00*%
%TF.ProjectId,keefighter,6b656566-6967-4687-9465-722e6b696361,rev?*%
%TF.SameCoordinates,Original*%
%TF.FileFunction,Soldermask,Top*%
%TF.FilePolarity,Negative*%
%FSLAX46Y46*%
G04 Gerber Fmt 4.6, Leading zero omitted, Abs format (unit mm)*
G04 Created by KiCad (PCBNEW (5.1.10)-1) date 2022-02-26 14:39:07*
%MOMM*%
%LPD*%
G01*
G04 APERTURE LIST*
%ADD10C,2.501900*%
%ADD11C,7.001300*%
%ADD12C,7.000240*%
%ADD13C,1.000000*%
%ADD14C,4.400000*%
%ADD15C,0.650000*%
%ADD16O,1.000000X2.100000*%
%ADD17O,1.000000X1.600000*%
%ADD18R,1.700000X1.700000*%
%ADD19O,1.700000X1.700000*%
%ADD20C,3.000000*%
%ADD21C,3.429000*%
%ADD22C,1.701800*%
%ADD23C,0.900000*%
G04 APERTURE END LIST*
D10*
X66517003Y-156267490D02*
X70317003Y-156267490D01*
X66517003Y-150965590D02*
X70317003Y-150965590D01*
X347717003Y-156267490D02*
X351567003Y-156267490D01*
X347717003Y-150965590D02*
X351517003Y-150965590D01*
X345066053Y-153616540D02*
G75*
G02*
X347717003Y-150965590I2650950J0D01*
G01*
X347717003Y-156267490D02*
G75*
G02*
X345066053Y-153616540I0J2650950D01*
G01*
X72967953Y-153616540D02*
G75*
G03*
X70317003Y-150965590I-2650950J0D01*
G01*
X70317003Y-156267490D02*
G75*
G03*
X72967953Y-153616540I0J2650950D01*
G01*
D11*
X91717003Y-125016540D03*
D12*
X257017003Y-182316540D03*
X326567003Y-125016540D03*
D13*
X91717003Y-122716540D03*
X89417003Y-125016540D03*
X94017003Y-125016540D03*
X91717003Y-127316540D03*
X90090657Y-123390194D03*
X93343349Y-123390194D03*
X90090657Y-126642886D03*
X93343349Y-126642886D03*
X326567003Y-122716540D03*
X326567003Y-127316540D03*
X327767003Y-127316540D03*
X325367003Y-127316540D03*
X325367003Y-122716540D03*
X327767003Y-122699540D03*
X257017003Y-180016540D03*
X257017003Y-184616540D03*
X258217003Y-180016540D03*
X255817003Y-180016540D03*
X255817003Y-184616540D03*
X258217003Y-184616540D03*
X72917003Y-153616540D03*
X70317003Y-151016540D03*
X70317003Y-156216540D03*
X72155481Y-151778062D03*
X72155481Y-155455018D03*
X68274968Y-151016540D03*
X68274968Y-156216540D03*
X345117003Y-153616540D03*
X345878525Y-151778062D03*
X347717003Y-151016540D03*
X349759038Y-151016540D03*
X349759038Y-156216540D03*
X347717003Y-156216540D03*
X345878525Y-155455018D03*
D14*
X346517237Y-186716430D03*
X291091534Y-186716431D03*
X235665831Y-186716431D03*
X182368175Y-186716430D03*
X126942325Y-186716430D03*
X71516476Y-186716430D03*
X71516510Y-102116490D03*
X126942343Y-102116303D03*
X182368175Y-102116115D03*
X235665898Y-102116115D03*
X291091450Y-102116403D03*
X346517003Y-102116691D03*
D15*
X87606904Y-101366690D03*
X81826904Y-101366690D03*
D16*
X80396904Y-101896690D03*
X89036904Y-101896690D03*
D17*
X80396904Y-97716690D03*
X89036904Y-97716690D03*
D18*
X191236854Y-103385684D03*
D19*
X191236854Y-100845684D03*
X193776854Y-103385684D03*
X193776854Y-100845684D03*
X196316854Y-103385684D03*
X196316854Y-100845684D03*
X198856854Y-103385684D03*
X198856854Y-100845684D03*
X201396854Y-103385684D03*
X201396854Y-100845684D03*
X203936854Y-103385684D03*
X203936854Y-100845684D03*
X206476854Y-103385684D03*
X206476854Y-100845684D03*
X209016854Y-103385684D03*
X209016854Y-100845684D03*
X211556854Y-103385684D03*
X211556854Y-100845684D03*
X214096854Y-103385684D03*
X214096854Y-100845684D03*
X216636854Y-103385684D03*
X216636854Y-100845684D03*
X219176854Y-103385684D03*
X219176854Y-100845684D03*
X221716854Y-103385684D03*
X221716854Y-100845684D03*
X224256854Y-103385684D03*
X224256854Y-100845684D03*
X226796854Y-103385684D03*
X226796854Y-100845684D03*
D20*
X223241524Y-156435826D03*
D21*
X221701551Y-150688567D03*
D20*
X217842493Y-155604884D03*
D22*
X227014143Y-149265062D03*
X216388959Y-152112072D03*
D20*
X273161215Y-120446992D03*
D21*
X274701188Y-126194251D03*
D20*
X278560246Y-121277934D03*
D22*
X269388596Y-127617756D03*
X280013780Y-124770746D03*
D20*
X254190986Y-123066775D03*
D21*
X255730959Y-128814034D03*
D20*
X259590017Y-123897717D03*
D22*
X250418367Y-130237539D03*
X261043551Y-127390529D03*
D20*
X236451935Y-130278370D03*
D21*
X237991908Y-136025629D03*
D20*
X241850966Y-131109312D03*
D22*
X232679316Y-137449134D03*
X243304500Y-134602124D03*
D20*
X181582071Y-130278370D03*
D21*
X180042098Y-136025629D03*
D20*
X185842299Y-133697502D03*
D22*
X174729506Y-134602124D03*
X185354690Y-137449134D03*
D20*
X163843020Y-123066775D03*
D21*
X162303047Y-128814034D03*
D20*
X168103248Y-126485907D03*
D22*
X156990455Y-127390529D03*
X167615639Y-130237539D03*
D20*
X144872791Y-120446992D03*
D21*
X143332818Y-126194251D03*
D20*
X149133019Y-123866124D03*
D22*
X138020226Y-124770746D03*
X148645410Y-127617756D03*
D20*
X335981469Y-156602224D03*
D21*
X335981469Y-150652224D03*
D20*
X330981469Y-154402224D03*
D22*
X341481469Y-150652224D03*
X330481469Y-150652224D03*
D20*
X247555750Y-162330711D03*
D21*
X249095723Y-168077970D03*
D20*
X252954781Y-163161653D03*
D22*
X243783131Y-169501475D03*
X254408315Y-166654465D03*
D20*
X226573365Y-170968361D03*
D21*
X229548365Y-176121212D03*
D20*
X232003492Y-170373617D03*
D22*
X224785225Y-178871212D03*
X234311505Y-173371212D03*
D20*
X209016703Y-170171651D03*
D21*
X209016703Y-176121651D03*
D20*
X214016703Y-172371651D03*
D22*
X203516703Y-176121651D03*
X214516703Y-176121651D03*
D20*
X191460041Y-170968507D03*
D21*
X188485041Y-176121358D03*
D20*
X194690168Y-175373763D03*
D22*
X183721901Y-173371358D03*
X193248181Y-178871358D03*
D20*
X170478256Y-162330711D03*
D21*
X168938283Y-168077970D03*
D20*
X174738484Y-165749843D03*
D22*
X163625691Y-166654465D03*
X174250875Y-169501475D03*
D20*
X82052044Y-144702024D03*
D21*
X82052044Y-150652024D03*
D20*
X87052044Y-146902024D03*
D22*
X76552044Y-150652024D03*
X87552044Y-150652024D03*
D20*
X335981469Y-125702224D03*
D21*
X335981469Y-131652224D03*
D20*
X340981469Y-127902224D03*
D22*
X330481469Y-131652224D03*
X341481469Y-131652224D03*
D20*
X307531103Y-136851446D03*
D21*
X309071076Y-142598705D03*
D20*
X312930134Y-137682388D03*
D22*
X303758484Y-144022210D03*
X314383668Y-141175200D03*
D20*
X281639391Y-143471149D03*
D21*
X280099418Y-137723890D03*
D20*
X276240360Y-142640207D03*
D22*
X285412010Y-136300385D03*
X274786826Y-139147395D03*
D20*
X250639446Y-144230368D03*
D21*
X249099473Y-138483109D03*
D20*
X245240415Y-143399426D03*
D22*
X254412065Y-137059604D03*
X243786881Y-139906614D03*
D20*
X194792482Y-156435826D03*
D21*
X196332455Y-150688567D03*
D20*
X190532254Y-153016694D03*
D22*
X201645047Y-152112072D03*
X191019863Y-149265062D03*
D20*
X167394560Y-144230368D03*
D21*
X168934533Y-138483109D03*
D20*
X163134332Y-140811236D03*
D22*
X174247125Y-139906614D03*
X163621941Y-137059604D03*
D20*
X136394615Y-143471149D03*
D21*
X137934588Y-137723890D03*
D20*
X132134387Y-140052017D03*
D22*
X143247180Y-139147395D03*
X132621996Y-136300385D03*
D20*
X110502903Y-136851446D03*
D21*
X108962930Y-142598705D03*
D20*
X114763131Y-140270578D03*
D22*
X103650338Y-141175200D03*
X114275522Y-144022210D03*
D20*
X82052044Y-137602024D03*
D21*
X82052044Y-131652024D03*
D20*
X77052044Y-135402024D03*
D22*
X87552044Y-131652024D03*
X76552044Y-131652024D03*
D20*
X335981469Y-106702224D03*
D21*
X335981469Y-112652224D03*
D20*
X340981469Y-108902224D03*
D22*
X330481469Y-112652224D03*
X341481469Y-112652224D03*
D20*
X307890092Y-109677884D03*
D21*
X309430065Y-115425143D03*
D20*
X313289123Y-110508826D03*
D22*
X304117473Y-116848648D03*
X314742657Y-114001638D03*
D20*
X278728782Y-104801171D03*
D21*
X280268755Y-110548430D03*
D20*
X284127813Y-105632113D03*
D22*
X274956163Y-111971935D03*
X285581347Y-109124925D03*
D20*
X249166596Y-104714664D03*
D21*
X250706569Y-110461923D03*
D20*
X254565627Y-105545606D03*
D22*
X245393977Y-111885428D03*
X256019161Y-109038418D03*
D20*
X222888804Y-117605862D03*
D21*
X224428777Y-123353121D03*
D20*
X228287835Y-118436804D03*
D22*
X219116185Y-124776626D03*
X229741369Y-121929616D03*
D20*
X195145202Y-117605862D03*
D21*
X193605229Y-123353121D03*
D20*
X199405430Y-121024994D03*
D22*
X188292637Y-121929616D03*
X198917821Y-124776626D03*
D20*
X168867410Y-104714664D03*
D21*
X167327437Y-110461923D03*
D20*
X173127638Y-108133796D03*
D22*
X162014845Y-109038418D03*
X172640029Y-111885428D03*
D20*
X139305224Y-104801171D03*
D21*
X137765251Y-110548430D03*
D20*
X143565452Y-108220303D03*
D22*
X132452659Y-109124925D03*
X143077843Y-111971935D03*
D20*
X110143914Y-109677884D03*
D21*
X108603941Y-115425143D03*
D20*
X114404142Y-113097016D03*
D22*
X103291349Y-114001638D03*
X113916533Y-116848648D03*
D20*
X82052044Y-118602024D03*
D21*
X82052044Y-112652024D03*
D20*
X77052044Y-116402024D03*
D22*
X87552044Y-112652024D03*
X76552044Y-112652024D03*
D23*
X94300000Y-140330000D03*
X97300000Y-140330000D03*
M02*
