%TF.GenerationSoftware,KiCad,Pcbnew,(5.1.10)-1*%
%TF.CreationDate,2022-02-26T14:39:07-08:00*%
%TF.ProjectId,keefighter,6b656566-6967-4687-9465-722e6b696361,rev?*%
%TF.SameCoordinates,Original*%
%TF.FileFunction,Legend,Top*%
%TF.FilePolarity,Positive*%
%FSLAX46Y46*%
G04 Gerber Fmt 4.6, Leading zero omitted, Abs format (unit mm)*
G04 Created by KiCad (PCBNEW (5.1.10)-1) date 2022-02-26 14:39:07*
%MOMM*%
%LPD*%
G01*
G04 APERTURE LIST*
%ADD10C,0.120000*%
%ADD11C,0.150000*%
%ADD12C,2.501900*%
%ADD13C,7.001300*%
%ADD14C,7.000240*%
%ADD15C,1.000000*%
%ADD16C,4.400000*%
%ADD17C,0.650000*%
%ADD18O,1.000000X2.100000*%
%ADD19O,1.000000X1.600000*%
%ADD20R,1.700000X1.700000*%
%ADD21O,1.700000X1.700000*%
%ADD22C,3.000000*%
%ADD23C,3.429000*%
%ADD24C,1.701800*%
%ADD25C,0.900000*%
G04 APERTURE END LIST*
D10*
X228126854Y-104715684D02*
X228126854Y-99515684D01*
X192506854Y-104715684D02*
X228126854Y-104715684D01*
X189906854Y-99515684D02*
X228126854Y-99515684D01*
X192506854Y-104715684D02*
X192506854Y-102115684D01*
X192506854Y-102115684D02*
X189906854Y-102115684D01*
X189906854Y-102115684D02*
X189906854Y-99515684D01*
X191236854Y-104715684D02*
X189906854Y-104715684D01*
X189906854Y-104715684D02*
X189906854Y-103385684D01*
D11*
X226651298Y-142115353D02*
X225685373Y-142374172D01*
X226651298Y-142115353D02*
X226910118Y-143081279D01*
X229308839Y-155897134D02*
X230274765Y-155638314D01*
X230274765Y-155638314D02*
X229308839Y-155897134D01*
X230015946Y-154672389D02*
X230274765Y-155638314D01*
X216751804Y-159261781D02*
X216492984Y-158295855D01*
X214094263Y-145480000D02*
X213128337Y-145738820D01*
X216751804Y-159261781D02*
X217717729Y-159002962D01*
X213387156Y-146704745D02*
X213128337Y-145738820D01*
X269751441Y-134767465D02*
X270717366Y-134508646D01*
X269751441Y-134767465D02*
X269492621Y-133801539D01*
X267093900Y-120985684D02*
X266127974Y-121244504D01*
X266127974Y-121244504D02*
X267093900Y-120985684D01*
X266386793Y-122210429D02*
X266127974Y-121244504D01*
X279650935Y-117621037D02*
X279909755Y-118586963D01*
X282308476Y-131402818D02*
X283274402Y-131143998D01*
X279650935Y-117621037D02*
X278685010Y-117879856D01*
X283015583Y-130178073D02*
X283274402Y-131143998D01*
X250781212Y-137387248D02*
X251747137Y-137128429D01*
X250781212Y-137387248D02*
X250522392Y-136421322D01*
X248123671Y-123605467D02*
X247157745Y-123864287D01*
X247157745Y-123864287D02*
X248123671Y-123605467D01*
X247416564Y-124830212D02*
X247157745Y-123864287D01*
X260680706Y-120240820D02*
X260939526Y-121206746D01*
X263338247Y-134022601D02*
X264304173Y-133763781D01*
X260680706Y-120240820D02*
X259714781Y-120499639D01*
X264045354Y-132797856D02*
X264304173Y-133763781D01*
X233042161Y-144598843D02*
X234008086Y-144340024D01*
X233042161Y-144598843D02*
X232783341Y-143632917D01*
X230384620Y-130817062D02*
X229418694Y-131075882D01*
X229418694Y-131075882D02*
X230384620Y-130817062D01*
X229677513Y-132041807D02*
X229418694Y-131075882D01*
X242941655Y-127452415D02*
X243200475Y-128418341D01*
X245599196Y-141234196D02*
X246565122Y-140975376D01*
X242941655Y-127452415D02*
X241975730Y-127711234D01*
X246306303Y-140009451D02*
X246565122Y-140975376D01*
X171468884Y-140975376D02*
X172434810Y-141234196D01*
X171468884Y-140975376D02*
X171727703Y-140009451D01*
X176058276Y-127711234D02*
X175092351Y-127452415D01*
X175092351Y-127452415D02*
X176058276Y-127711234D01*
X174833531Y-128418341D02*
X175092351Y-127452415D01*
X188615312Y-131075882D02*
X188356493Y-132041807D01*
X184025920Y-144340024D02*
X184991845Y-144598843D01*
X188615312Y-131075882D02*
X187649386Y-130817062D01*
X185250665Y-143632917D02*
X184991845Y-144598843D01*
X153729833Y-133763781D02*
X154695759Y-134022601D01*
X153729833Y-133763781D02*
X153988652Y-132797856D01*
X158319225Y-120499639D02*
X157353300Y-120240820D01*
X157353300Y-120240820D02*
X158319225Y-120499639D01*
X157094480Y-121206746D02*
X157353300Y-120240820D01*
X170876261Y-123864287D02*
X170617442Y-124830212D01*
X166286869Y-137128429D02*
X167252794Y-137387248D01*
X170876261Y-123864287D02*
X169910335Y-123605467D01*
X167511614Y-136421322D02*
X167252794Y-137387248D01*
X134759604Y-131143998D02*
X135725530Y-131402818D01*
X134759604Y-131143998D02*
X135018423Y-130178073D01*
X139348996Y-117879856D02*
X138383071Y-117621037D01*
X138383071Y-117621037D02*
X139348996Y-117879856D01*
X138124251Y-118586963D02*
X138383071Y-117621037D01*
X151906032Y-121244504D02*
X151647213Y-122210429D01*
X147316640Y-134508646D02*
X148282565Y-134767465D01*
X151906032Y-121244504D02*
X150940106Y-120985684D01*
X148541385Y-133801539D02*
X148282565Y-134767465D01*
X342981469Y-143652224D02*
X341981469Y-143652224D01*
X342981469Y-143652224D02*
X342981469Y-144652224D01*
X341981469Y-157652224D02*
X342981469Y-157652224D01*
X342981469Y-157652224D02*
X341981469Y-157652224D01*
X342981469Y-156652224D02*
X342981469Y-157652224D01*
X328981469Y-157652224D02*
X328981469Y-156652224D01*
X329981469Y-143652224D02*
X328981469Y-143652224D01*
X328981469Y-157652224D02*
X329981469Y-157652224D01*
X328981469Y-144652224D02*
X328981469Y-143652224D01*
X244145976Y-176651184D02*
X245111901Y-176392365D01*
X244145976Y-176651184D02*
X243887156Y-175685258D01*
X241488435Y-162869403D02*
X240522509Y-163128223D01*
X240522509Y-163128223D02*
X241488435Y-162869403D01*
X240781328Y-164094148D02*
X240522509Y-163128223D01*
X254045470Y-159504756D02*
X254304290Y-160470682D01*
X256703011Y-173286537D02*
X257668937Y-173027717D01*
X254045470Y-159504756D02*
X253079545Y-159763575D01*
X257410118Y-172061792D02*
X257668937Y-173027717D01*
X226986187Y-185683390D02*
X227852213Y-185183390D01*
X226986187Y-185683390D02*
X226486187Y-184817364D01*
X220852213Y-173059034D02*
X219986187Y-173559034D01*
X219986187Y-173559034D02*
X220852213Y-173059034D01*
X220486187Y-174425060D02*
X219986187Y-173559034D01*
X232110543Y-166559034D02*
X232610543Y-167425060D01*
X238244517Y-179183390D02*
X239110543Y-178683390D01*
X232110543Y-166559034D02*
X231244517Y-167059034D01*
X238610543Y-177817364D02*
X239110543Y-178683390D01*
X202016703Y-183121651D02*
X203016703Y-183121651D01*
X202016703Y-183121651D02*
X202016703Y-182121651D01*
X203016703Y-169121651D02*
X202016703Y-169121651D01*
X202016703Y-169121651D02*
X203016703Y-169121651D01*
X202016703Y-170121651D02*
X202016703Y-169121651D01*
X216016703Y-169121651D02*
X216016703Y-170121651D01*
X215016703Y-183121651D02*
X216016703Y-183121651D01*
X216016703Y-169121651D02*
X215016703Y-169121651D01*
X216016703Y-182121651D02*
X216016703Y-183121651D01*
X178922863Y-178683536D02*
X179788889Y-179183536D01*
X178922863Y-178683536D02*
X179422863Y-177817510D01*
X186788889Y-167059180D02*
X185922863Y-166559180D01*
X185922863Y-166559180D02*
X186788889Y-167059180D01*
X185422863Y-167425206D02*
X185922863Y-166559180D01*
X198047219Y-173559180D02*
X197547219Y-174425206D01*
X190181193Y-185183536D02*
X191047219Y-185683536D01*
X198047219Y-173559180D02*
X197181193Y-173059180D01*
X191547219Y-184817510D02*
X191047219Y-185683536D01*
X160365069Y-173027717D02*
X161330995Y-173286537D01*
X160365069Y-173027717D02*
X160623888Y-172061792D01*
X164954461Y-159763575D02*
X163988536Y-159504756D01*
X163988536Y-159504756D02*
X164954461Y-159763575D01*
X163729716Y-160470682D02*
X163988536Y-159504756D01*
X177511497Y-163128223D02*
X177252678Y-164094148D01*
X172922105Y-176392365D02*
X173888030Y-176651184D01*
X177511497Y-163128223D02*
X176545571Y-162869403D01*
X174146850Y-175685258D02*
X173888030Y-176651184D01*
X75052044Y-157652024D02*
X76052044Y-157652024D01*
X75052044Y-157652024D02*
X75052044Y-156652024D01*
X76052044Y-143652024D02*
X75052044Y-143652024D01*
X75052044Y-143652024D02*
X76052044Y-143652024D01*
X75052044Y-144652024D02*
X75052044Y-143652024D01*
X89052044Y-143652024D02*
X89052044Y-144652024D01*
X88052044Y-157652024D02*
X89052044Y-157652024D01*
X89052044Y-143652024D02*
X88052044Y-143652024D01*
X89052044Y-156652024D02*
X89052044Y-157652024D01*
X328981469Y-138652224D02*
X329981469Y-138652224D01*
X328981469Y-138652224D02*
X328981469Y-137652224D01*
X329981469Y-124652224D02*
X328981469Y-124652224D01*
X328981469Y-124652224D02*
X329981469Y-124652224D01*
X328981469Y-125652224D02*
X328981469Y-124652224D01*
X342981469Y-124652224D02*
X342981469Y-125652224D01*
X341981469Y-138652224D02*
X342981469Y-138652224D01*
X342981469Y-124652224D02*
X341981469Y-124652224D01*
X342981469Y-137652224D02*
X342981469Y-138652224D01*
X304121329Y-151171919D02*
X305087254Y-150913100D01*
X304121329Y-151171919D02*
X303862509Y-150205993D01*
X301463788Y-137390138D02*
X300497862Y-137648958D01*
X300497862Y-137648958D02*
X301463788Y-137390138D01*
X300756681Y-138614883D02*
X300497862Y-137648958D01*
X314020823Y-134025491D02*
X314279643Y-134991417D01*
X316678364Y-147807272D02*
X317644290Y-147548452D01*
X314020823Y-134025491D02*
X313054898Y-134284310D01*
X317385471Y-146582527D02*
X317644290Y-147548452D01*
X285049165Y-129150676D02*
X284083240Y-129409495D01*
X285049165Y-129150676D02*
X285307985Y-130116602D01*
X287706706Y-142932457D02*
X288672632Y-142673637D01*
X288672632Y-142673637D02*
X287706706Y-142932457D01*
X288413813Y-141707712D02*
X288672632Y-142673637D01*
X275149671Y-146297104D02*
X274890851Y-145331178D01*
X272492130Y-132515323D02*
X271526204Y-132774143D01*
X275149671Y-146297104D02*
X276115596Y-146038285D01*
X271785023Y-133740068D02*
X271526204Y-132774143D01*
X254049220Y-129909895D02*
X253083295Y-130168714D01*
X254049220Y-129909895D02*
X254308040Y-130875821D01*
X256706761Y-143691676D02*
X257672687Y-143432856D01*
X257672687Y-143432856D02*
X256706761Y-143691676D01*
X257413868Y-142466931D02*
X257672687Y-143432856D01*
X244149726Y-147056323D02*
X243890906Y-146090397D01*
X241492185Y-133274542D02*
X240526259Y-133533362D01*
X244149726Y-147056323D02*
X245115651Y-146797504D01*
X240785078Y-134499287D02*
X240526259Y-133533362D01*
X204905669Y-145738820D02*
X203939743Y-145480000D01*
X204905669Y-145738820D02*
X204646850Y-146704745D01*
X200316277Y-159002962D02*
X201282202Y-159261781D01*
X201282202Y-159261781D02*
X200316277Y-159002962D01*
X201541022Y-158295855D02*
X201282202Y-159261781D01*
X187759241Y-155638314D02*
X188018060Y-154672389D01*
X192348633Y-142374172D02*
X191382708Y-142115353D01*
X187759241Y-155638314D02*
X188725167Y-155897134D01*
X191123888Y-143081279D02*
X191382708Y-142115353D01*
X177507747Y-133533362D02*
X176541821Y-133274542D01*
X177507747Y-133533362D02*
X177248928Y-134499287D01*
X172918355Y-146797504D02*
X173884280Y-147056323D01*
X173884280Y-147056323D02*
X172918355Y-146797504D01*
X174143100Y-146090397D02*
X173884280Y-147056323D01*
X160361319Y-143432856D02*
X160620138Y-142466931D01*
X164950711Y-130168714D02*
X163984786Y-129909895D01*
X160361319Y-143432856D02*
X161327245Y-143691676D01*
X163725966Y-130875821D02*
X163984786Y-129909895D01*
X146507802Y-132774143D02*
X145541876Y-132515323D01*
X146507802Y-132774143D02*
X146248983Y-133740068D01*
X141918410Y-146038285D02*
X142884335Y-146297104D01*
X142884335Y-146297104D02*
X141918410Y-146038285D01*
X143143155Y-145331178D02*
X142884335Y-146297104D01*
X129361374Y-142673637D02*
X129620193Y-141707712D01*
X133950766Y-129409495D02*
X132984841Y-129150676D01*
X129361374Y-142673637D02*
X130327300Y-142932457D01*
X132726021Y-130116602D02*
X132984841Y-129150676D01*
X100389716Y-147548452D02*
X101355642Y-147807272D01*
X100389716Y-147548452D02*
X100648535Y-146582527D01*
X104979108Y-134284310D02*
X104013183Y-134025491D01*
X104013183Y-134025491D02*
X104979108Y-134284310D01*
X103754363Y-134991417D02*
X104013183Y-134025491D01*
X117536144Y-137648958D02*
X117277325Y-138614883D01*
X112946752Y-150913100D02*
X113912677Y-151171919D01*
X117536144Y-137648958D02*
X116570218Y-137390138D01*
X114171497Y-150205993D02*
X113912677Y-151171919D01*
X89052044Y-124652024D02*
X88052044Y-124652024D01*
X89052044Y-124652024D02*
X89052044Y-125652024D01*
X88052044Y-138652024D02*
X89052044Y-138652024D01*
X89052044Y-138652024D02*
X88052044Y-138652024D01*
X89052044Y-137652024D02*
X89052044Y-138652024D01*
X75052044Y-138652024D02*
X75052044Y-137652024D01*
X76052044Y-124652024D02*
X75052044Y-124652024D01*
X75052044Y-138652024D02*
X76052044Y-138652024D01*
X75052044Y-125652024D02*
X75052044Y-124652024D01*
X328981469Y-119652224D02*
X329981469Y-119652224D01*
X328981469Y-119652224D02*
X328981469Y-118652224D01*
X329981469Y-105652224D02*
X328981469Y-105652224D01*
X328981469Y-105652224D02*
X329981469Y-105652224D01*
X328981469Y-106652224D02*
X328981469Y-105652224D01*
X342981469Y-105652224D02*
X342981469Y-106652224D01*
X341981469Y-119652224D02*
X342981469Y-119652224D01*
X342981469Y-105652224D02*
X341981469Y-105652224D01*
X342981469Y-118652224D02*
X342981469Y-119652224D01*
X304480318Y-123998357D02*
X305446243Y-123739538D01*
X304480318Y-123998357D02*
X304221498Y-123032431D01*
X301822777Y-110216576D02*
X300856851Y-110475396D01*
X300856851Y-110475396D02*
X301822777Y-110216576D01*
X301115670Y-111441321D02*
X300856851Y-110475396D01*
X314379812Y-106851929D02*
X314638632Y-107817855D01*
X317037353Y-120633710D02*
X318003279Y-120374890D01*
X314379812Y-106851929D02*
X313413887Y-107110748D01*
X317744460Y-119408965D02*
X318003279Y-120374890D01*
X275319008Y-119121644D02*
X276284933Y-118862825D01*
X275319008Y-119121644D02*
X275060188Y-118155718D01*
X272661467Y-105339863D02*
X271695541Y-105598683D01*
X271695541Y-105598683D02*
X272661467Y-105339863D01*
X271954360Y-106564608D02*
X271695541Y-105598683D01*
X285218502Y-101975216D02*
X285477322Y-102941142D01*
X287876043Y-115756997D02*
X288841969Y-115498177D01*
X285218502Y-101975216D02*
X284252577Y-102234035D01*
X288583150Y-114532252D02*
X288841969Y-115498177D01*
X245756822Y-119035137D02*
X246722747Y-118776318D01*
X245756822Y-119035137D02*
X245498002Y-118069211D01*
X243099281Y-105253356D02*
X242133355Y-105512176D01*
X242133355Y-105512176D02*
X243099281Y-105253356D01*
X242392174Y-106478101D02*
X242133355Y-105512176D01*
X255656316Y-101888709D02*
X255915136Y-102854635D01*
X258313857Y-115670490D02*
X259279783Y-115411670D01*
X255656316Y-101888709D02*
X254690391Y-102147528D01*
X259020964Y-114445745D02*
X259279783Y-115411670D01*
X219479030Y-131926335D02*
X220444955Y-131667516D01*
X219479030Y-131926335D02*
X219220210Y-130960409D01*
X216821489Y-118144554D02*
X215855563Y-118403374D01*
X215855563Y-118403374D02*
X216821489Y-118144554D01*
X216114382Y-119369299D02*
X215855563Y-118403374D01*
X229378524Y-114779907D02*
X229637344Y-115745833D01*
X232036065Y-128561688D02*
X233001991Y-128302868D01*
X229378524Y-114779907D02*
X228412599Y-115038726D01*
X232743172Y-127336943D02*
X233001991Y-128302868D01*
X185032015Y-128302868D02*
X185997941Y-128561688D01*
X185032015Y-128302868D02*
X185290834Y-127336943D01*
X189621407Y-115038726D02*
X188655482Y-114779907D01*
X188655482Y-114779907D02*
X189621407Y-115038726D01*
X188396662Y-115745833D02*
X188655482Y-114779907D01*
X202178443Y-118403374D02*
X201919624Y-119369299D01*
X197589051Y-131667516D02*
X198554976Y-131926335D01*
X202178443Y-118403374D02*
X201212517Y-118144554D01*
X198813796Y-130960409D02*
X198554976Y-131926335D01*
X158754223Y-115411670D02*
X159720149Y-115670490D01*
X158754223Y-115411670D02*
X159013042Y-114445745D01*
X163343615Y-102147528D02*
X162377690Y-101888709D01*
X162377690Y-101888709D02*
X163343615Y-102147528D01*
X162118870Y-102854635D02*
X162377690Y-101888709D01*
X175900651Y-105512176D02*
X175641832Y-106478101D01*
X171311259Y-118776318D02*
X172277184Y-119035137D01*
X175900651Y-105512176D02*
X174934725Y-105253356D01*
X172536004Y-118069211D02*
X172277184Y-119035137D01*
X129192037Y-115498177D02*
X130157963Y-115756997D01*
X129192037Y-115498177D02*
X129450856Y-114532252D01*
X133781429Y-102234035D02*
X132815504Y-101975216D01*
X132815504Y-101975216D02*
X133781429Y-102234035D01*
X132556684Y-102941142D02*
X132815504Y-101975216D01*
X146338465Y-105598683D02*
X146079646Y-106564608D01*
X141749073Y-118862825D02*
X142714998Y-119121644D01*
X146338465Y-105598683D02*
X145372539Y-105339863D01*
X142973818Y-118155718D02*
X142714998Y-119121644D01*
X100030727Y-120374890D02*
X100996653Y-120633710D01*
X100030727Y-120374890D02*
X100289546Y-119408965D01*
X104620119Y-107110748D02*
X103654194Y-106851929D01*
X103654194Y-106851929D02*
X104620119Y-107110748D01*
X103395374Y-107817855D02*
X103654194Y-106851929D01*
X117177155Y-110475396D02*
X116918336Y-111441321D01*
X112587763Y-123739538D02*
X113553688Y-123998357D01*
X117177155Y-110475396D02*
X116211229Y-110216576D01*
X113812508Y-123032431D02*
X113553688Y-123998357D01*
X89052044Y-105652024D02*
X88052044Y-105652024D01*
X89052044Y-105652024D02*
X89052044Y-106652024D01*
X88052044Y-119652024D02*
X89052044Y-119652024D01*
X89052044Y-119652024D02*
X88052044Y-119652024D01*
X89052044Y-118652024D02*
X89052044Y-119652024D01*
X75052044Y-119652024D02*
X75052044Y-118652024D01*
X76052044Y-105652024D02*
X75052044Y-105652024D01*
X75052044Y-119652024D02*
X76052044Y-119652024D01*
X75052044Y-106652024D02*
X75052044Y-105652024D01*
X188359234Y-102449017D02*
X189073520Y-102449017D01*
X189216377Y-102496636D01*
X189311615Y-102591874D01*
X189359234Y-102734731D01*
X189359234Y-102829969D01*
X189359234Y-101449017D02*
X189359234Y-102020445D01*
X189359234Y-101734731D02*
X188359234Y-101734731D01*
X188502092Y-101829969D01*
X188597330Y-101925207D01*
X188644949Y-102020445D01*
%LPC*%
D12*
X66517003Y-156267490D02*
X70317003Y-156267490D01*
X66517003Y-150965590D02*
X70317003Y-150965590D01*
X347717003Y-156267490D02*
X351567003Y-156267490D01*
X347717003Y-150965590D02*
X351517003Y-150965590D01*
X345066053Y-153616540D02*
G75*
G02*
X347717003Y-150965590I2650950J0D01*
G01*
X347717003Y-156267490D02*
G75*
G02*
X345066053Y-153616540I0J2650950D01*
G01*
X72967953Y-153616540D02*
G75*
G03*
X70317003Y-150965590I-2650950J0D01*
G01*
X70317003Y-156267490D02*
G75*
G03*
X72967953Y-153616540I0J2650950D01*
G01*
D13*
X91717003Y-125016540D03*
D14*
X257017003Y-182316540D03*
X326567003Y-125016540D03*
D15*
X91717003Y-122716540D03*
X89417003Y-125016540D03*
X94017003Y-125016540D03*
X91717003Y-127316540D03*
X90090657Y-123390194D03*
X93343349Y-123390194D03*
X90090657Y-126642886D03*
X93343349Y-126642886D03*
X326567003Y-122716540D03*
X326567003Y-127316540D03*
X327767003Y-127316540D03*
X325367003Y-127316540D03*
X325367003Y-122716540D03*
X327767003Y-122699540D03*
X257017003Y-180016540D03*
X257017003Y-184616540D03*
X258217003Y-180016540D03*
X255817003Y-180016540D03*
X255817003Y-184616540D03*
X258217003Y-184616540D03*
X72917003Y-153616540D03*
X70317003Y-151016540D03*
X70317003Y-156216540D03*
X72155481Y-151778062D03*
X72155481Y-155455018D03*
X68274968Y-151016540D03*
X68274968Y-156216540D03*
X345117003Y-153616540D03*
X345878525Y-151778062D03*
X347717003Y-151016540D03*
X349759038Y-151016540D03*
X349759038Y-156216540D03*
X347717003Y-156216540D03*
X345878525Y-155455018D03*
D16*
X346517237Y-186716430D03*
X291091534Y-186716431D03*
X235665831Y-186716431D03*
X182368175Y-186716430D03*
X126942325Y-186716430D03*
X71516476Y-186716430D03*
X71516510Y-102116490D03*
X126942343Y-102116303D03*
X182368175Y-102116115D03*
X235665898Y-102116115D03*
X291091450Y-102116403D03*
X346517003Y-102116691D03*
D17*
X87606904Y-101366690D03*
X81826904Y-101366690D03*
D18*
X80396904Y-101896690D03*
X89036904Y-101896690D03*
D19*
X80396904Y-97716690D03*
X89036904Y-97716690D03*
D20*
X191236854Y-103385684D03*
D21*
X191236854Y-100845684D03*
X193776854Y-103385684D03*
X193776854Y-100845684D03*
X196316854Y-103385684D03*
X196316854Y-100845684D03*
X198856854Y-103385684D03*
X198856854Y-100845684D03*
X201396854Y-103385684D03*
X201396854Y-100845684D03*
X203936854Y-103385684D03*
X203936854Y-100845684D03*
X206476854Y-103385684D03*
X206476854Y-100845684D03*
X209016854Y-103385684D03*
X209016854Y-100845684D03*
X211556854Y-103385684D03*
X211556854Y-100845684D03*
X214096854Y-103385684D03*
X214096854Y-100845684D03*
X216636854Y-103385684D03*
X216636854Y-100845684D03*
X219176854Y-103385684D03*
X219176854Y-100845684D03*
X221716854Y-103385684D03*
X221716854Y-100845684D03*
X224256854Y-103385684D03*
X224256854Y-100845684D03*
X226796854Y-103385684D03*
X226796854Y-100845684D03*
D22*
X223241524Y-156435826D03*
D23*
X221701551Y-150688567D03*
D22*
X217842493Y-155604884D03*
D24*
X227014143Y-149265062D03*
X216388959Y-152112072D03*
D22*
X273161215Y-120446992D03*
D23*
X274701188Y-126194251D03*
D22*
X278560246Y-121277934D03*
D24*
X269388596Y-127617756D03*
X280013780Y-124770746D03*
D22*
X254190986Y-123066775D03*
D23*
X255730959Y-128814034D03*
D22*
X259590017Y-123897717D03*
D24*
X250418367Y-130237539D03*
X261043551Y-127390529D03*
D22*
X236451935Y-130278370D03*
D23*
X237991908Y-136025629D03*
D22*
X241850966Y-131109312D03*
D24*
X232679316Y-137449134D03*
X243304500Y-134602124D03*
D22*
X181582071Y-130278370D03*
D23*
X180042098Y-136025629D03*
D22*
X185842299Y-133697502D03*
D24*
X174729506Y-134602124D03*
X185354690Y-137449134D03*
D22*
X163843020Y-123066775D03*
D23*
X162303047Y-128814034D03*
D22*
X168103248Y-126485907D03*
D24*
X156990455Y-127390529D03*
X167615639Y-130237539D03*
D22*
X144872791Y-120446992D03*
D23*
X143332818Y-126194251D03*
D22*
X149133019Y-123866124D03*
D24*
X138020226Y-124770746D03*
X148645410Y-127617756D03*
D22*
X335981469Y-156602224D03*
D23*
X335981469Y-150652224D03*
D22*
X330981469Y-154402224D03*
D24*
X341481469Y-150652224D03*
X330481469Y-150652224D03*
D22*
X247555750Y-162330711D03*
D23*
X249095723Y-168077970D03*
D22*
X252954781Y-163161653D03*
D24*
X243783131Y-169501475D03*
X254408315Y-166654465D03*
D22*
X226573365Y-170968361D03*
D23*
X229548365Y-176121212D03*
D22*
X232003492Y-170373617D03*
D24*
X224785225Y-178871212D03*
X234311505Y-173371212D03*
D22*
X209016703Y-170171651D03*
D23*
X209016703Y-176121651D03*
D22*
X214016703Y-172371651D03*
D24*
X203516703Y-176121651D03*
X214516703Y-176121651D03*
D22*
X191460041Y-170968507D03*
D23*
X188485041Y-176121358D03*
D22*
X194690168Y-175373763D03*
D24*
X183721901Y-173371358D03*
X193248181Y-178871358D03*
D22*
X170478256Y-162330711D03*
D23*
X168938283Y-168077970D03*
D22*
X174738484Y-165749843D03*
D24*
X163625691Y-166654465D03*
X174250875Y-169501475D03*
D22*
X82052044Y-144702024D03*
D23*
X82052044Y-150652024D03*
D22*
X87052044Y-146902024D03*
D24*
X76552044Y-150652024D03*
X87552044Y-150652024D03*
D22*
X335981469Y-125702224D03*
D23*
X335981469Y-131652224D03*
D22*
X340981469Y-127902224D03*
D24*
X330481469Y-131652224D03*
X341481469Y-131652224D03*
D22*
X307531103Y-136851446D03*
D23*
X309071076Y-142598705D03*
D22*
X312930134Y-137682388D03*
D24*
X303758484Y-144022210D03*
X314383668Y-141175200D03*
D22*
X281639391Y-143471149D03*
D23*
X280099418Y-137723890D03*
D22*
X276240360Y-142640207D03*
D24*
X285412010Y-136300385D03*
X274786826Y-139147395D03*
D22*
X250639446Y-144230368D03*
D23*
X249099473Y-138483109D03*
D22*
X245240415Y-143399426D03*
D24*
X254412065Y-137059604D03*
X243786881Y-139906614D03*
D22*
X194792482Y-156435826D03*
D23*
X196332455Y-150688567D03*
D22*
X190532254Y-153016694D03*
D24*
X201645047Y-152112072D03*
X191019863Y-149265062D03*
D22*
X167394560Y-144230368D03*
D23*
X168934533Y-138483109D03*
D22*
X163134332Y-140811236D03*
D24*
X174247125Y-139906614D03*
X163621941Y-137059604D03*
D22*
X136394615Y-143471149D03*
D23*
X137934588Y-137723890D03*
D22*
X132134387Y-140052017D03*
D24*
X143247180Y-139147395D03*
X132621996Y-136300385D03*
D22*
X110502903Y-136851446D03*
D23*
X108962930Y-142598705D03*
D22*
X114763131Y-140270578D03*
D24*
X103650338Y-141175200D03*
X114275522Y-144022210D03*
D22*
X82052044Y-137602024D03*
D23*
X82052044Y-131652024D03*
D22*
X77052044Y-135402024D03*
D24*
X87552044Y-131652024D03*
X76552044Y-131652024D03*
D22*
X335981469Y-106702224D03*
D23*
X335981469Y-112652224D03*
D22*
X340981469Y-108902224D03*
D24*
X330481469Y-112652224D03*
X341481469Y-112652224D03*
D22*
X307890092Y-109677884D03*
D23*
X309430065Y-115425143D03*
D22*
X313289123Y-110508826D03*
D24*
X304117473Y-116848648D03*
X314742657Y-114001638D03*
D22*
X278728782Y-104801171D03*
D23*
X280268755Y-110548430D03*
D22*
X284127813Y-105632113D03*
D24*
X274956163Y-111971935D03*
X285581347Y-109124925D03*
D22*
X249166596Y-104714664D03*
D23*
X250706569Y-110461923D03*
D22*
X254565627Y-105545606D03*
D24*
X245393977Y-111885428D03*
X256019161Y-109038418D03*
D22*
X222888804Y-117605862D03*
D23*
X224428777Y-123353121D03*
D22*
X228287835Y-118436804D03*
D24*
X219116185Y-124776626D03*
X229741369Y-121929616D03*
D22*
X195145202Y-117605862D03*
D23*
X193605229Y-123353121D03*
D22*
X199405430Y-121024994D03*
D24*
X188292637Y-121929616D03*
X198917821Y-124776626D03*
D22*
X168867410Y-104714664D03*
D23*
X167327437Y-110461923D03*
D22*
X173127638Y-108133796D03*
D24*
X162014845Y-109038418D03*
X172640029Y-111885428D03*
D22*
X139305224Y-104801171D03*
D23*
X137765251Y-110548430D03*
D22*
X143565452Y-108220303D03*
D24*
X132452659Y-109124925D03*
X143077843Y-111971935D03*
D22*
X110143914Y-109677884D03*
D23*
X108603941Y-115425143D03*
D22*
X114404142Y-113097016D03*
D24*
X103291349Y-114001638D03*
X113916533Y-116848648D03*
D22*
X82052044Y-118602024D03*
D23*
X82052044Y-112652024D03*
D22*
X77052044Y-116402024D03*
D24*
X87552044Y-112652024D03*
X76552044Y-112652024D03*
D25*
X94300000Y-140330000D03*
X97300000Y-140330000D03*
M02*
